<?xml version="1.0" encoding="utf-8" standalone="no"?>
<!DOCTYPE svg PUBLIC "-//W3C//DTD SVG 1.1//EN"
  "http://www.w3.org/Graphics/SVG/1.1/DTD/svg11.dtd">
<!-- Created with matplotlib (https://matplotlib.org/) -->
<svg height="252pt" version="1.1" viewBox="0 0 216 252" width="216pt" xmlns="http://www.w3.org/2000/svg" xmlns:xlink="http://www.w3.org/1999/xlink">
 <metadata>
  <rdf:RDF xmlns:cc="http://creativecommons.org/ns#" xmlns:dc="http://purl.org/dc/elements/1.1/" xmlns:rdf="http://www.w3.org/1999/02/22-rdf-syntax-ns#">
   <cc:Work>
    <dc:type rdf:resource="http://purl.org/dc/dcmitype/StillImage"/>
    <dc:date>2023-11-13T12:07:19.704985</dc:date>
    <dc:format>image/svg+xml</dc:format>
    <dc:creator>
     <cc:Agent>
      <dc:title>Matplotlib v3.3.4, https://matplotlib.org/</dc:title>
     </cc:Agent>
    </dc:creator>
   </cc:Work>
  </rdf:RDF>
 </metadata>
 <defs>
  <style type="text/css">*{stroke-linecap:butt;stroke-linejoin:round;}</style>
 </defs>
 <g id="figure_1">
  <g id="patch_1">
   <path d="M 0 252 
L 216 252 
L 216 0 
L 0 0 
z
" style="fill:#ffffff;"/>
  </g>
  <g id="axes_1">
   <g id="patch_2">
    <path d="M 36 216 
L 180 216 
L 180 72 
L 36 72 
z
" style="fill:#ffffff;"/>
   </g>
   <g id="matplotlib.axis_1">
    <g id="xtick_1">
     <g id="line2d_1">
      <defs>
       <path d="M 0 0 
L 0 4.8 
" id="mc1c078b22f" style="stroke:#262626;"/>
      </defs>
      <g>
       <use style="fill:#262626;stroke:#262626;" x="48" xlink:href="#mc1c078b22f" y="216"/>
      </g>
     </g>
     <g id="text_1">
      <text style="fill:#262626;font-family:Arial;font-size:8.8px;font-stretch:normal;font-style:normal;font-weight:normal;text-anchor:middle;" transform="rotate(-0, 48, 230.598875)" x="48" y="230.598875">0.0</text>
     </g>
    </g>
    <g id="xtick_2">
     <g id="line2d_2">
      <g>
       <use style="fill:#262626;stroke:#262626;" x="72" xlink:href="#mc1c078b22f" y="216"/>
      </g>
     </g>
     <g id="text_2">
      <text style="fill:#262626;font-family:Arial;font-size:8.8px;font-stretch:normal;font-style:normal;font-weight:normal;text-anchor:middle;" transform="rotate(-0, 72, 230.598875)" x="72" y="230.598875">0.2</text>
     </g>
    </g>
    <g id="xtick_3">
     <g id="line2d_3">
      <g>
       <use style="fill:#262626;stroke:#262626;" x="96" xlink:href="#mc1c078b22f" y="216"/>
      </g>
     </g>
     <g id="text_3">
      <text style="fill:#262626;font-family:Arial;font-size:8.8px;font-stretch:normal;font-style:normal;font-weight:normal;text-anchor:middle;" transform="rotate(-0, 96, 230.598875)" x="96" y="230.598875">0.4</text>
     </g>
    </g>
    <g id="xtick_4">
     <g id="line2d_4">
      <g>
       <use style="fill:#262626;stroke:#262626;" x="120" xlink:href="#mc1c078b22f" y="216"/>
      </g>
     </g>
     <g id="text_4">
      <text style="fill:#262626;font-family:Arial;font-size:8.8px;font-stretch:normal;font-style:normal;font-weight:normal;text-anchor:middle;" transform="rotate(-0, 120, 230.598875)" x="120" y="230.598875">0.6</text>
     </g>
    </g>
    <g id="xtick_5">
     <g id="line2d_5">
      <g>
       <use style="fill:#262626;stroke:#262626;" x="144" xlink:href="#mc1c078b22f" y="216"/>
      </g>
     </g>
     <g id="text_5">
      <text style="fill:#262626;font-family:Arial;font-size:8.8px;font-stretch:normal;font-style:normal;font-weight:normal;text-anchor:middle;" transform="rotate(-0, 144, 230.598875)" x="144" y="230.598875">0.8</text>
     </g>
    </g>
    <g id="xtick_6">
     <g id="line2d_6">
      <g>
       <use style="fill:#262626;stroke:#262626;" x="168" xlink:href="#mc1c078b22f" y="216"/>
      </g>
     </g>
     <g id="text_6">
      <text style="fill:#262626;font-family:Arial;font-size:8.8px;font-stretch:normal;font-style:normal;font-weight:normal;text-anchor:middle;" transform="rotate(-0, 168, 230.598875)" x="168" y="230.598875">1.0</text>
     </g>
    </g>
   </g>
   <g id="matplotlib.axis_2">
    <g id="ytick_1">
     <g id="line2d_7">
      <defs>
       <path d="M 0 0 
L -4.8 0 
" id="m54a2e1ab42" style="stroke:#262626;"/>
      </defs>
      <g>
       <use style="fill:#262626;stroke:#262626;" x="36" xlink:href="#m54a2e1ab42" y="204"/>
      </g>
     </g>
     <g id="text_7">
      <text style="fill:#262626;font-family:Arial;font-size:8.8px;font-stretch:normal;font-style:normal;font-weight:normal;text-anchor:end;" transform="rotate(-0, 27.7, 207.149437)" x="27.7" y="207.149437">0.0</text>
     </g>
    </g>
    <g id="ytick_2">
     <g id="line2d_8">
      <g>
       <use style="fill:#262626;stroke:#262626;" x="36" xlink:href="#m54a2e1ab42" y="180"/>
      </g>
     </g>
     <g id="text_8">
      <text style="fill:#262626;font-family:Arial;font-size:8.8px;font-stretch:normal;font-style:normal;font-weight:normal;text-anchor:end;" transform="rotate(-0, 27.7, 183.149437)" x="27.7" y="183.149437">0.2</text>
     </g>
    </g>
    <g id="ytick_3">
     <g id="line2d_9">
      <g>
       <use style="fill:#262626;stroke:#262626;" x="36" xlink:href="#m54a2e1ab42" y="156"/>
      </g>
     </g>
     <g id="text_9">
      <text style="fill:#262626;font-family:Arial;font-size:8.8px;font-stretch:normal;font-style:normal;font-weight:normal;text-anchor:end;" transform="rotate(-0, 27.7, 159.149437)" x="27.7" y="159.149437">0.4</text>
     </g>
    </g>
    <g id="ytick_4">
     <g id="line2d_10">
      <g>
       <use style="fill:#262626;stroke:#262626;" x="36" xlink:href="#m54a2e1ab42" y="132"/>
      </g>
     </g>
     <g id="text_10">
      <text style="fill:#262626;font-family:Arial;font-size:8.8px;font-stretch:normal;font-style:normal;font-weight:normal;text-anchor:end;" transform="rotate(-0, 27.7, 135.149438)" x="27.7" y="135.149438">0.6</text>
     </g>
    </g>
    <g id="ytick_5">
     <g id="line2d_11">
      <g>
       <use style="fill:#262626;stroke:#262626;" x="36" xlink:href="#m54a2e1ab42" y="108"/>
      </g>
     </g>
     <g id="text_11">
      <text style="fill:#262626;font-family:Arial;font-size:8.8px;font-stretch:normal;font-style:normal;font-weight:normal;text-anchor:end;" transform="rotate(-0, 27.7, 111.149438)" x="27.7" y="111.149438">0.8</text>
     </g>
    </g>
    <g id="ytick_6">
     <g id="line2d_12">
      <g>
       <use style="fill:#262626;stroke:#262626;" x="36" xlink:href="#m54a2e1ab42" y="84"/>
      </g>
     </g>
     <g id="text_12">
      <text style="fill:#262626;font-family:Arial;font-size:8.8px;font-stretch:normal;font-style:normal;font-weight:normal;text-anchor:end;" transform="rotate(-0, 27.7, 87.149438)" x="27.7" y="87.149438">1.0</text>
     </g>
    </g>
   </g>
   <g id="PathCollection_1">
    <path clip-path="url(#pff9d94581f)" d="M 37.514289 228.816657 
L 40.10464 230.341048 
L 42.694991 231.115116 
L 45.285343 231.430803 
L 47.875694 231.44374 
L 50.466046 231.232972 
L 53.056397 230.829622 
L 55.646748 230.230002 
L 58.2371 229.400299 
L 60.286122 228.539564 
L 60.827451 228.379391 
L 63.417803 227.486536 
L 66.008154 226.329208 
L 67.652371 225.444653 
L 68.598506 225.065462 
L 71.188857 223.897149 
L 73.779208 222.406101 
L 73.879105 222.349742 
L 76.36956 221.247114 
L 78.959911 219.873763 
L 80.146719 219.25483 
L 81.550263 218.654479 
L 84.140614 217.608448 
L 86.730965 216.664246 
L 88.915448 216.159919 
L 89.321317 216.079632 
L 91.911668 215.958222 
L 94.50202 216.128506 
L 94.771418 216.159919 
L 97.092371 216.486789 
L 99.682722 216.832255 
L 102.273074 217.116401 
L 104.863425 217.365251 
L 107.453777 217.608348 
L 110.044128 217.832208 
L 112.634479 217.96663 
L 115.224831 217.916275 
L 117.815182 217.607592 
L 120.405534 217.001761 
L 122.743555 216.159919 
L 122.995885 216.076567 
L 125.586237 214.918151 
L 128.176588 213.443622 
L 128.731284 213.065008 
L 130.766939 211.726139 
L 133.012948 209.970097 
L 133.357291 209.697963 
L 135.947642 207.417882 
L 136.510467 206.875185 
L 138.537994 204.7951 
L 139.468239 203.780274 
L 141.128345 201.755609 
L 141.988599 200.685363 
L 143.718696 198.152249 
L 144.110557 197.590452 
L 145.876773 194.49554 
L 146.309048 193.50168 
L 147.297953 191.400629 
L 148.29958 188.305718 
L 148.860813 185.210806 
L 148.899399 182.115895 
L 148.33586 179.020984 
L 147.347363 175.926073 
L 146.429545 172.831161 
L 146.309048 172.047689 
L 146.027434 169.73625 
L 146.067647 166.641339 
L 146.309048 164.637009 
L 146.451056 163.546428 
L 147.154889 160.451516 
L 148.095359 157.356605 
L 148.899399 155.208024 
L 149.277537 154.261694 
L 150.749312 151.166782 
L 151.489751 149.756936 
L 152.424283 148.071871 
L 154.080102 145.228439 
L 154.234153 144.97696 
L 156.238456 141.882049 
L 156.670453 141.212854 
L 158.322139 138.787137 
L 159.260805 137.365403 
L 160.420377 135.692226 
L 161.851156 133.525681 
L 162.491026 132.597315 
L 164.441508 129.580411 
L 164.493907 129.502404 
L 166.439971 126.407492 
L 167.031859 125.364976 
L 168.256574 123.312581 
L 169.622211 120.771023 
L 169.934423 120.21767 
L 171.50213 117.122758 
L 172.212562 115.578157 
L 172.963123 114.027847 
L 174.338551 110.932936 
L 174.802913 109.826089 
L 175.674513 107.838025 
L 176.979067 104.743113 
L 177.393265 103.741552 
L 178.29395 101.648202 
L 179.586284 98.553291 
L 179.983616 97.561 
L 180.87229 95.458379 
L 182.073012 92.363468 
L 182.573968 90.864062 
L 183.159422 89.268557 
L 184.037275 86.173646 
L 184.554867 83.078734 
L 184.549006 79.983823 
L 183.786876 76.888912 
L 182.573968 74.651249 
L 182.07808 73.794001 
L 179.983616 71.21264 
L 179.520206 70.699089 
L 177.393265 68.680067 
L 175.908822 67.604178 
L 174.802913 66.885073 
L 172.212562 65.819909 
L 169.622211 65.290129 
L 167.031859 65.02835 
L 164.441508 64.760147 
L 163.283614 64.509267 
L 161.851156 63.917275 
L 159.43791 61.414355 
L 159.260805 60.834678 
L 158.629763 58.319444 
L 158.088753 55.224533 
L 156.915954 52.129622 
L 156.670453 51.809557 
L 154.080102 50.301636 
L 151.489751 50.35824 
L 148.899399 51.223808 
L 147.233229 52.129622 
L 146.309048 52.605074 
L 143.718696 54.344422 
L 142.581798 55.224533 
L 141.128345 56.317595 
L 138.664714 58.319444 
L 138.537994 58.421866 
L 135.947642 60.701681 
L 135.159406 61.414355 
L 133.357291 63.085416 
L 131.834178 64.509267 
L 130.766939 65.555447 
L 128.670042 67.604178 
L 128.176588 68.117845 
L 125.669768 70.699089 
L 125.586237 70.791238 
L 122.995885 73.617583 
L 122.830044 73.794001 
L 120.405534 76.564363 
L 120.11431 76.888912 
L 117.815182 79.587506 
L 117.47166 79.983823 
L 115.224831 82.615599 
L 114.827957 83.078734 
L 112.634479 85.555756 
L 112.095101 86.173646 
L 110.044128 88.340964 
L 109.196394 89.268557 
L 107.453777 90.965314 
L 106.095092 92.363468 
L 104.863425 93.471416 
L 102.810689 95.458379 
L 102.273074 95.913379 
L 99.682722 98.286193 
L 99.407484 98.553291 
L 97.092371 100.576497 
L 95.960911 101.648202 
L 94.50202 102.920262 
L 92.579147 104.743113 
L 91.911668 105.342744 
L 89.351116 107.838025 
L 89.321317 107.866468 
L 86.730965 110.479558 
L 86.308514 110.932936 
L 84.140614 113.314996 
L 83.525203 114.027847 
L 81.550263 116.451358 
L 81.023685 117.122758 
L 78.959911 120.003244 
L 78.809453 120.21767 
L 76.824993 123.312581 
L 76.36956 124.111675 
L 75.058135 126.407492 
L 73.779208 128.968919 
L 73.507828 129.502404 
L 71.997626 132.597315 
L 71.188857 134.335049 
L 70.543984 135.692226 
L 69.037536 138.787137 
L 68.598506 139.614993 
L 67.387401 141.882049 
L 66.008154 144.426072 
L 65.705375 144.97696 
L 63.848855 148.071871 
L 63.417803 148.756137 
L 61.890229 151.166782 
L 60.827451 152.866352 
L 59.937029 154.261694 
L 58.2371 157.033086 
L 58.030994 157.356605 
L 56.040739 160.451516 
L 55.646748 161.095038 
L 54.063518 163.546428 
L 53.056397 165.277628 
L 52.199433 166.641339 
L 50.487266 169.73625 
L 50.466046 169.774973 
L 48.615577 172.831161 
L 47.875694 174.267103 
L 46.906018 175.926073 
L 45.375372 179.020984 
L 45.285343 179.210083 
L 43.674466 182.115895 
L 42.694991 184.311389 
L 42.214307 185.210806 
L 40.723506 188.305718 
L 40.10464 189.842439 
L 39.328447 191.400629 
L 38.029861 194.49554 
L 37.514289 195.970846 
L 36.786899 197.590452 
L 35.646132 200.685363 
L 34.923937 203.236439 
L 34.717025 203.780274 
L 33.749298 206.875185 
L 33.073673 209.970097 
L 32.639807 213.065008 
L 32.448751 216.159919 
L 32.5625 219.25483 
L 33.135689 222.349742 
L 34.490719 225.444653 
L 34.923937 226.082082 
L 37.179348 228.539564 
z
M 45.836371 225.444653 
L 45.285343 225.323141 
L 42.694991 224.151495 
L 40.600774 222.349742 
L 40.10464 221.72904 
L 38.649414 219.25483 
L 37.8029 216.159919 
L 37.568022 213.065008 
L 37.712057 209.970097 
L 38.134036 206.875185 
L 38.810635 203.780274 
L 39.776007 200.685363 
L 40.10464 199.838731 
L 40.791492 197.590452 
L 41.991644 194.49554 
L 42.694991 192.98657 
L 43.303622 191.400629 
L 44.72732 188.305718 
L 45.285343 187.237261 
L 46.190857 185.210806 
L 47.875694 182.13542 
L 47.885126 182.115895 
L 49.429402 179.020984 
L 50.466046 177.258194 
L 51.177539 175.926073 
L 53.056397 172.864582 
L 53.075535 172.831161 
L 54.87333 169.73625 
L 55.646748 168.540726 
L 56.819789 166.641339 
L 58.2371 164.53499 
L 58.887439 163.546428 
L 60.827451 160.770899 
L 61.050623 160.451516 
L 63.25101 157.356605 
L 63.417803 157.121395 
L 65.472447 154.261694 
L 66.008154 153.519922 
L 67.757363 151.166782 
L 68.598506 150.013589 
L 70.074268 148.071871 
L 71.188857 146.544864 
L 72.391608 144.97696 
L 73.779208 143.061007 
L 74.681201 141.882049 
L 76.36956 139.520022 
L 76.924438 138.787137 
L 78.959911 135.904665 
L 79.11906 135.692226 
L 81.243993 132.597315 
L 81.550263 132.13303 
L 83.369545 129.502404 
L 84.140614 128.386577 
L 85.583935 126.407492 
L 86.730965 124.863397 
L 87.95803 123.312581 
L 89.321317 121.638382 
L 90.567226 120.21767 
L 91.911668 118.726643 
L 93.487086 117.122758 
L 94.50202 116.106413 
L 96.785923 114.027847 
L 97.092371 113.748226 
L 99.682722 111.542443 
L 100.464457 110.932936 
L 102.273074 109.476203 
L 104.513292 107.838025 
L 104.863425 107.567706 
L 107.453777 105.649308 
L 108.750291 104.743113 
L 110.044128 103.771572 
L 112.634479 101.91757 
L 113.015 101.648202 
L 115.224831 99.950235 
L 117.13845 98.553291 
L 117.815182 98.010226 
L 120.405534 96.018717 
L 121.178737 95.458379 
L 122.995885 93.998817 
L 125.244165 92.363468 
L 125.586237 92.084248 
L 128.176588 90.198124 
L 129.677746 89.268557 
L 130.766939 88.500836 
L 133.357291 87.029713 
L 135.347848 86.173646 
L 135.947642 85.876064 
L 138.537994 85.010787 
L 141.128345 84.50359 
L 143.718696 84.251197 
L 146.309048 84.137716 
L 148.899399 84.089712 
L 151.489751 84.110869 
L 154.080102 84.294566 
L 156.670453 84.843245 
L 159.260805 86.099308 
L 159.358463 86.173646 
L 161.391198 89.268557 
L 161.851156 92.363468 
L 161.457533 95.458379 
L 160.555748 98.553291 
L 159.376328 101.648202 
L 159.260805 101.91908 
L 158.116004 104.743113 
L 156.919635 107.838025 
L 156.670453 108.594485 
L 155.944455 110.932936 
L 155.229861 114.027847 
L 154.739223 117.122758 
L 154.332116 120.21767 
L 154.080102 121.655666 
L 153.823636 123.312581 
L 153.090838 126.407492 
L 152.086079 129.502404 
L 151.489751 130.882354 
L 150.832368 132.597315 
L 149.37535 135.692226 
L 148.899399 136.552413 
L 147.769648 138.787137 
L 146.309048 141.353129 
L 146.028493 141.882049 
L 144.251963 144.97696 
L 143.718696 145.868969 
L 142.454767 148.071871 
L 141.128345 150.341775 
L 140.657657 151.166782 
L 138.948366 154.261694 
L 138.537994 155.067788 
L 137.37781 157.356605 
L 135.947642 160.420786 
L 135.933161 160.451516 
L 134.780384 163.546428 
L 133.841076 166.641339 
L 133.357291 168.841995 
L 133.158522 169.73625 
L 132.68286 172.831161 
L 132.319742 175.926073 
L 132.02655 179.020984 
L 131.804411 182.115895 
L 131.68391 185.210806 
L 131.649171 188.305718 
L 131.474483 191.400629 
L 130.766939 194.347184 
L 130.724963 194.49554 
L 128.767031 197.590452 
L 128.176588 198.182175 
L 125.586237 200.24411 
L 124.833106 200.685363 
L 122.995885 201.490998 
L 120.405534 202.358037 
L 117.815182 203.03052 
L 115.224831 203.592185 
L 114.285035 203.780274 
L 112.634479 204.084019 
L 110.044128 204.480672 
L 107.453777 204.735342 
L 104.863425 204.833935 
L 102.273074 204.841927 
L 99.682722 204.944432 
L 97.092371 205.351443 
L 94.50202 206.103784 
L 92.548357 206.875185 
L 91.911668 207.134883 
L 89.321317 208.549313 
L 86.730965 209.899297 
L 86.612897 209.970097 
L 84.140614 211.584833 
L 81.550263 213.033269 
L 81.496417 213.065008 
L 78.959911 214.767207 
L 76.380873 216.159919 
L 76.36956 216.167152 
L 73.779208 217.827724 
L 71.188857 219.123815 
L 70.907539 219.25483 
L 68.598506 220.59498 
L 66.008154 221.780713 
L 64.509087 222.349742 
L 63.417803 222.891143 
L 60.827451 223.952659 
L 58.2371 224.748449 
L 55.646748 225.33163 
L 54.88586 225.444653 
L 53.056397 225.823928 
L 50.466046 226.046002 
L 47.875694 225.909202 
z
" style="fill:#a9c6f1;"/>
   </g>
   <g id="PathCollection_2">
    <path clip-path="url(#pff9d94581f)" d="M 47.875694 225.909202 
L 50.466046 226.046002 
L 53.056397 225.823928 
L 54.88586 225.444653 
L 55.646748 225.33163 
L 58.2371 224.748449 
L 60.827451 223.952659 
L 63.417803 222.891143 
L 64.509087 222.349742 
L 66.008154 221.780713 
L 68.598506 220.59498 
L 70.907539 219.25483 
L 71.188857 219.123815 
L 73.779208 217.827724 
L 76.36956 216.167152 
L 76.380873 216.159919 
L 78.959911 214.767207 
L 81.496417 213.065008 
L 81.550263 213.033269 
L 84.140614 211.584833 
L 86.612897 209.970097 
L 86.730965 209.899297 
L 89.321317 208.549313 
L 91.911668 207.134883 
L 92.548357 206.875185 
L 94.50202 206.103784 
L 97.092371 205.351443 
L 99.682722 204.944432 
L 102.273074 204.841927 
L 104.863425 204.833935 
L 107.453777 204.735342 
L 110.044128 204.480672 
L 112.634479 204.084019 
L 114.285035 203.780274 
L 115.224831 203.592185 
L 117.815182 203.03052 
L 120.405534 202.358037 
L 122.995885 201.490998 
L 124.833106 200.685363 
L 125.586237 200.24411 
L 128.176588 198.182175 
L 128.767031 197.590452 
L 130.724963 194.49554 
L 130.766939 194.347184 
L 131.474483 191.400629 
L 131.649171 188.305718 
L 131.68391 185.210806 
L 131.804411 182.115895 
L 132.02655 179.020984 
L 132.319742 175.926073 
L 132.68286 172.831161 
L 133.158522 169.73625 
L 133.357291 168.841995 
L 133.841076 166.641339 
L 134.780384 163.546428 
L 135.933161 160.451516 
L 135.947642 160.420786 
L 137.37781 157.356605 
L 138.537994 155.067788 
L 138.948366 154.261694 
L 140.657657 151.166782 
L 141.128345 150.341775 
L 142.454767 148.071871 
L 143.718696 145.868969 
L 144.251963 144.97696 
L 146.028493 141.882049 
L 146.309048 141.353129 
L 147.769648 138.787137 
L 148.899399 136.552413 
L 149.37535 135.692226 
L 150.832368 132.597315 
L 151.489751 130.882354 
L 152.086079 129.502404 
L 153.090838 126.407492 
L 153.823636 123.312581 
L 154.080102 121.655666 
L 154.332116 120.21767 
L 154.739223 117.122758 
L 155.229861 114.027847 
L 155.944455 110.932936 
L 156.670453 108.594485 
L 156.919635 107.838025 
L 158.116004 104.743113 
L 159.260805 101.91908 
L 159.376328 101.648202 
L 160.555748 98.553291 
L 161.457533 95.458379 
L 161.851156 92.363468 
L 161.391198 89.268557 
L 159.358463 86.173646 
L 159.260805 86.099308 
L 156.670453 84.843245 
L 154.080102 84.294566 
L 151.489751 84.110869 
L 148.899399 84.089712 
L 146.309048 84.137716 
L 143.718696 84.251197 
L 141.128345 84.50359 
L 138.537994 85.010787 
L 135.947642 85.876064 
L 135.347848 86.173646 
L 133.357291 87.029713 
L 130.766939 88.500836 
L 129.677746 89.268557 
L 128.176588 90.198124 
L 125.586237 92.084248 
L 125.244165 92.363468 
L 122.995885 93.998817 
L 121.178737 95.458379 
L 120.405534 96.018717 
L 117.815182 98.010226 
L 117.13845 98.553291 
L 115.224831 99.950235 
L 113.015 101.648202 
L 112.634479 101.91757 
L 110.044128 103.771572 
L 108.750291 104.743113 
L 107.453777 105.649308 
L 104.863425 107.567706 
L 104.513292 107.838025 
L 102.273074 109.476203 
L 100.464457 110.932936 
L 99.682722 111.542443 
L 97.092371 113.748226 
L 96.785923 114.027847 
L 94.50202 116.106413 
L 93.487086 117.122758 
L 91.911668 118.726643 
L 90.567226 120.21767 
L 89.321317 121.638382 
L 87.95803 123.312581 
L 86.730965 124.863397 
L 85.583935 126.407492 
L 84.140614 128.386577 
L 83.369545 129.502404 
L 81.550263 132.13303 
L 81.243993 132.597315 
L 79.11906 135.692226 
L 78.959911 135.904665 
L 76.924438 138.787137 
L 76.36956 139.520022 
L 74.681201 141.882049 
L 73.779208 143.061007 
L 72.391608 144.97696 
L 71.188857 146.544864 
L 70.074268 148.071871 
L 68.598506 150.013589 
L 67.757363 151.166782 
L 66.008154 153.519922 
L 65.472447 154.261694 
L 63.417803 157.121395 
L 63.25101 157.356605 
L 61.050623 160.451516 
L 60.827451 160.770899 
L 58.887439 163.546428 
L 58.2371 164.53499 
L 56.819789 166.641339 
L 55.646748 168.540726 
L 54.87333 169.73625 
L 53.075535 172.831161 
L 53.056397 172.864582 
L 51.177539 175.926073 
L 50.466046 177.258194 
L 49.429402 179.020984 
L 47.885126 182.115895 
L 47.875694 182.13542 
L 46.190857 185.210806 
L 45.285343 187.237261 
L 44.72732 188.305718 
L 43.303622 191.400629 
L 42.694991 192.98657 
L 41.991644 194.49554 
L 40.791492 197.590452 
L 40.10464 199.838731 
L 39.776007 200.685363 
L 38.810635 203.780274 
L 38.134036 206.875185 
L 37.712057 209.970097 
L 37.568022 213.065008 
L 37.8029 216.159919 
L 38.649414 219.25483 
L 40.10464 221.72904 
L 40.600774 222.349742 
L 42.694991 224.151495 
L 45.285343 225.323141 
L 45.836371 225.444653 
z
M 51.544027 222.349742 
L 50.466046 222.322166 
L 47.875694 221.806502 
L 45.285343 220.534341 
L 43.831447 219.25483 
L 42.694991 217.710325 
L 41.861702 216.159919 
L 41.045075 213.065008 
L 40.863145 209.970097 
L 41.090771 206.875185 
L 41.63773 203.780274 
L 42.496417 200.685363 
L 42.694991 200.136175 
L 43.435138 197.590452 
L 44.597423 194.49554 
L 45.285343 192.986817 
L 45.894964 191.400629 
L 47.319904 188.305718 
L 47.875694 187.245909 
L 48.812568 185.210806 
L 50.466046 182.229841 
L 50.523264 182.115895 
L 52.152133 179.020984 
L 53.056397 177.520055 
L 53.953259 175.926073 
L 55.646748 173.247024 
L 55.899034 172.831161 
L 57.871301 169.73625 
L 58.2371 169.190124 
L 59.913042 166.641339 
L 60.827451 165.334918 
L 62.085403 163.546428 
L 63.417803 161.722912 
L 64.371635 160.451516 
L 66.008154 158.300666 
L 66.759973 157.356605 
L 68.598506 155.025884 
L 69.239811 154.261694 
L 71.188857 151.86262 
L 71.798063 151.166782 
L 73.779208 148.778227 
L 74.416375 148.071871 
L 76.36956 145.741813 
L 77.070675 144.97696 
L 78.959911 142.724647 
L 79.734724 141.882049 
L 81.550263 139.703523 
L 82.388052 138.787137 
L 84.140614 136.66808 
L 85.026251 135.692226 
L 86.730965 133.630753 
L 87.669778 132.597315 
L 89.321317 130.632943 
L 90.368037 129.502404 
L 91.911668 127.737846 
L 93.197573 126.407492 
L 94.50202 125.008307 
L 96.253947 123.312581 
L 97.092371 122.483998 
L 99.635375 120.21767 
L 99.682722 120.174887 
L 102.273074 118.004759 
L 103.426373 117.122758 
L 104.863425 116.001614 
L 107.453777 114.131497 
L 107.604779 114.027847 
L 110.044128 112.306197 
L 112.094195 110.932936 
L 112.634479 110.557007 
L 115.224831 108.844225 
L 116.821546 107.838025 
L 117.815182 107.179603 
L 120.405534 105.59411 
L 121.926683 104.743113 
L 122.995885 104.106813 
L 125.586237 102.794475 
L 128.176588 101.680351 
L 128.289032 101.648202 
L 130.766939 100.898359 
L 133.357291 100.510626 
L 135.947642 100.656413 
L 138.537994 101.648202 
L 140.50386 104.743113 
L 140.896843 107.838025 
L 140.740348 110.932936 
L 140.400015 114.027847 
L 140.064901 117.122758 
L 139.881377 120.21767 
L 139.96878 123.312581 
L 140.321957 126.407492 
L 140.681997 129.502404 
L 140.683023 132.597315 
L 140.187509 135.692226 
L 139.285906 138.787137 
L 138.537994 140.634579 
L 138.04683 141.882049 
L 136.566251 144.97696 
L 135.947642 146.124124 
L 134.91329 148.071871 
L 133.357291 150.8537 
L 133.183633 151.166782 
L 131.397507 154.261694 
L 130.766939 155.360866 
L 129.617296 157.356605 
L 128.176588 159.920197 
L 127.87655 160.451516 
L 126.214057 163.546428 
L 125.586237 164.803929 
L 124.643381 166.641339 
L 123.148951 169.73625 
L 122.995885 170.110568 
L 121.813406 172.831161 
L 120.5095 175.926073 
L 120.405534 176.216051 
L 119.286061 179.020984 
L 117.894126 182.115895 
L 117.815182 182.277839 
L 116.117397 185.210806 
L 115.224831 186.398009 
L 113.448455 188.305718 
L 112.634479 188.989325 
L 110.044128 190.812924 
L 109.130961 191.400629 
L 107.453777 192.294774 
L 104.863425 193.733563 
L 103.633731 194.49554 
L 102.273074 195.236305 
L 99.682722 196.87015 
L 98.663565 197.590452 
L 97.092371 198.619766 
L 94.50202 200.388133 
L 94.114378 200.685363 
L 91.911668 202.327053 
L 89.846705 203.780274 
L 89.321317 204.153292 
L 86.730965 206.086062 
L 85.608779 206.875185 
L 84.140614 207.963513 
L 81.550263 209.705969 
L 81.14739 209.970097 
L 78.959911 211.54846 
L 76.408822 213.065008 
L 76.36956 213.091717 
L 73.779208 214.809937 
L 71.188857 216.155565 
L 71.179859 216.159919 
L 68.598506 217.663763 
L 66.008154 218.835419 
L 64.900208 219.25483 
L 63.417803 219.963529 
L 60.827451 220.9411 
L 58.2371 221.656244 
L 55.646748 222.140578 
L 53.399575 222.349742 
L 53.056397 222.392778 
z
" style="fill:#9dc0f3;"/>
   </g>
   <g id="PathCollection_3">
    <path clip-path="url(#pff9d94581f)" d="M 53.056397 222.392778 
L 53.399575 222.349742 
L 55.646748 222.140578 
L 58.2371 221.656244 
L 60.827451 220.9411 
L 63.417803 219.963529 
L 64.900208 219.25483 
L 66.008154 218.835419 
L 68.598506 217.663763 
L 71.179859 216.159919 
L 71.188857 216.155565 
L 73.779208 214.809937 
L 76.36956 213.091717 
L 76.408822 213.065008 
L 78.959911 211.54846 
L 81.14739 209.970097 
L 81.550263 209.705969 
L 84.140614 207.963513 
L 85.608779 206.875185 
L 86.730965 206.086062 
L 89.321317 204.153292 
L 89.846705 203.780274 
L 91.911668 202.327053 
L 94.114378 200.685363 
L 94.50202 200.388133 
L 97.092371 198.619766 
L 98.663565 197.590452 
L 99.682722 196.87015 
L 102.273074 195.236305 
L 103.633731 194.49554 
L 104.863425 193.733563 
L 107.453777 192.294774 
L 109.130961 191.400629 
L 110.044128 190.812924 
L 112.634479 188.989325 
L 113.448455 188.305718 
L 115.224831 186.398009 
L 116.117397 185.210806 
L 117.815182 182.277839 
L 117.894126 182.115895 
L 119.286061 179.020984 
L 120.405534 176.216051 
L 120.5095 175.926073 
L 121.813406 172.831161 
L 122.995885 170.110568 
L 123.148951 169.73625 
L 124.643381 166.641339 
L 125.586237 164.803929 
L 126.214057 163.546428 
L 127.87655 160.451516 
L 128.176588 159.920197 
L 129.617296 157.356605 
L 130.766939 155.360866 
L 131.397507 154.261694 
L 133.183633 151.166782 
L 133.357291 150.8537 
L 134.91329 148.071871 
L 135.947642 146.124124 
L 136.566251 144.97696 
L 138.04683 141.882049 
L 138.537994 140.634579 
L 139.285906 138.787137 
L 140.187509 135.692226 
L 140.683023 132.597315 
L 140.681997 129.502404 
L 140.321957 126.407492 
L 139.96878 123.312581 
L 139.881377 120.21767 
L 140.064901 117.122758 
L 140.400015 114.027847 
L 140.740348 110.932936 
L 140.896843 107.838025 
L 140.50386 104.743113 
L 138.537994 101.648202 
L 135.947642 100.656413 
L 133.357291 100.510626 
L 130.766939 100.898359 
L 128.289032 101.648202 
L 128.176588 101.680351 
L 125.586237 102.794475 
L 122.995885 104.106813 
L 121.926683 104.743113 
L 120.405534 105.59411 
L 117.815182 107.179603 
L 116.821546 107.838025 
L 115.224831 108.844225 
L 112.634479 110.557007 
L 112.094195 110.932936 
L 110.044128 112.306197 
L 107.604779 114.027847 
L 107.453777 114.131497 
L 104.863425 116.001614 
L 103.426373 117.122758 
L 102.273074 118.004759 
L 99.682722 120.174887 
L 99.635375 120.21767 
L 97.092371 122.483998 
L 96.253947 123.312581 
L 94.50202 125.008307 
L 93.197573 126.407492 
L 91.911668 127.737846 
L 90.368037 129.502404 
L 89.321317 130.632943 
L 87.669778 132.597315 
L 86.730965 133.630753 
L 85.026251 135.692226 
L 84.140614 136.66808 
L 82.388052 138.787137 
L 81.550263 139.703523 
L 79.734724 141.882049 
L 78.959911 142.724647 
L 77.070675 144.97696 
L 76.36956 145.741813 
L 74.416375 148.071871 
L 73.779208 148.778227 
L 71.798063 151.166782 
L 71.188857 151.86262 
L 69.239811 154.261694 
L 68.598506 155.025884 
L 66.759973 157.356605 
L 66.008154 158.300666 
L 64.371635 160.451516 
L 63.417803 161.722912 
L 62.085403 163.546428 
L 60.827451 165.334918 
L 59.913042 166.641339 
L 58.2371 169.190124 
L 57.871301 169.73625 
L 55.899034 172.831161 
L 55.646748 173.247024 
L 53.953259 175.926073 
L 53.056397 177.520055 
L 52.152133 179.020984 
L 50.523264 182.115895 
L 50.466046 182.229841 
L 48.812568 185.210806 
L 47.875694 187.245909 
L 47.319904 188.305718 
L 45.894964 191.400629 
L 45.285343 192.986817 
L 44.597423 194.49554 
L 43.435138 197.590452 
L 42.694991 200.136175 
L 42.496417 200.685363 
L 41.63773 203.780274 
L 41.090771 206.875185 
L 40.863145 209.970097 
L 41.045075 213.065008 
L 41.861702 216.159919 
L 42.694991 217.710325 
L 43.831447 219.25483 
L 45.285343 220.534341 
L 47.875694 221.806502 
L 50.466046 222.322166 
L 51.544027 222.349742 
z
M 52.672261 219.25483 
L 50.466046 218.885177 
L 47.875694 217.686006 
L 46.184874 216.159919 
L 45.285343 214.813722 
L 44.440942 213.065008 
L 43.796129 209.970097 
L 43.755937 206.875185 
L 44.122355 203.780274 
L 44.826322 200.685363 
L 45.285343 199.28484 
L 45.741581 197.590452 
L 46.817131 194.49554 
L 47.875694 192.100707 
L 48.142659 191.400629 
L 49.507273 188.305718 
L 50.466046 186.481073 
L 51.066932 185.210806 
L 52.7507 182.115895 
L 53.056397 181.594316 
L 54.463216 179.020984 
L 55.646748 177.109166 
L 56.34991 175.926073 
L 58.2371 173.040229 
L 58.372044 172.831161 
L 60.429862 169.73625 
L 60.827451 169.16594 
L 62.604478 166.641339 
L 63.417803 165.530775 
L 64.919175 163.546428 
L 66.008154 162.129644 
L 67.368768 160.451516 
L 68.598506 158.923379 
L 69.952872 157.356605 
L 71.188857 155.883011 
L 72.671602 154.261694 
L 73.779208 152.985981 
L 75.520819 151.166782 
L 76.36956 150.21367 
L 78.488068 148.071871 
L 78.959911 147.549661 
L 81.550263 144.978079 
L 81.551514 144.97696 
L 84.140614 142.365707 
L 84.685133 141.882049 
L 86.730965 139.816359 
L 87.88591 138.787137 
L 89.321317 137.333357 
L 91.152978 135.692226 
L 91.911668 134.92675 
L 94.50202 132.609392 
L 94.517295 132.597315 
L 97.092371 130.322286 
L 98.143318 129.502404 
L 99.682722 128.194122 
L 102.040982 126.407492 
L 102.273074 126.220832 
L 104.863425 124.385313 
L 106.534606 123.312581 
L 107.453777 122.697224 
L 110.044128 121.17599 
L 111.858338 120.21767 
L 112.634479 119.79592 
L 115.224831 118.680502 
L 117.815182 117.821661 
L 120.405534 117.456776 
L 122.995885 118.387057 
L 124.258174 120.21767 
L 124.718938 123.312581 
L 124.534728 126.407492 
L 124.117993 129.502404 
L 123.632859 132.597315 
L 123.192384 135.692226 
L 122.995885 138.148523 
L 122.949843 138.787137 
L 122.995885 141.882049 
L 123.230186 144.97696 
L 123.218151 148.071871 
L 122.995885 149.42727 
L 122.751775 151.166782 
L 121.877678 154.261694 
L 120.773221 157.356605 
L 120.405534 158.169856 
L 119.500363 160.451516 
L 118.09284 163.546428 
L 117.815182 164.078093 
L 116.619021 166.641339 
L 115.224831 169.254906 
L 114.998794 169.73625 
L 113.332677 172.831161 
L 112.634479 173.967651 
L 111.538823 175.926073 
L 110.044128 178.177647 
L 109.536044 179.020984 
L 107.453777 181.898654 
L 107.310653 182.115895 
L 104.86614 185.210806 
L 104.863425 185.213771 
L 102.273074 188.224351 
L 102.207701 188.305718 
L 99.682722 191.015944 
L 99.340945 191.400629 
L 97.092371 193.642432 
L 96.255722 194.49554 
L 94.50202 196.129052 
L 92.923904 197.590452 
L 91.911668 198.47594 
L 89.321317 200.665811 
L 89.299149 200.685363 
L 86.730965 202.911284 
L 85.642484 203.780274 
L 84.140614 205.002939 
L 81.551982 206.875185 
L 81.550263 206.876502 
L 78.959911 208.85403 
L 77.228283 209.970097 
L 76.36956 210.581926 
L 73.779208 212.247236 
L 72.280394 213.065008 
L 71.188857 213.753492 
L 68.598506 215.159247 
L 66.293472 216.159919 
L 66.008154 216.309975 
L 63.417803 217.462682 
L 60.827451 218.318449 
L 58.2371 218.921677 
L 55.761719 219.25483 
L 55.646748 219.27479 
L 53.056397 219.316921 
z
" style="fill:#8fbaf5;"/>
   </g>
   <g id="PathCollection_4">
    <path clip-path="url(#pff9d94581f)" d="M 53.056397 219.316921 
L 55.646748 219.27479 
L 55.761719 219.25483 
L 58.2371 218.921677 
L 60.827451 218.318449 
L 63.417803 217.462682 
L 66.008154 216.309975 
L 66.293472 216.159919 
L 68.598506 215.159247 
L 71.188857 213.753492 
L 72.280394 213.065008 
L 73.779208 212.247236 
L 76.36956 210.581926 
L 77.228283 209.970097 
L 78.959911 208.85403 
L 81.550263 206.876502 
L 81.551982 206.875185 
L 84.140614 205.002939 
L 85.642484 203.780274 
L 86.730965 202.911284 
L 89.299149 200.685363 
L 89.321317 200.665811 
L 91.911668 198.47594 
L 92.923904 197.590452 
L 94.50202 196.129052 
L 96.255722 194.49554 
L 97.092371 193.642432 
L 99.340945 191.400629 
L 99.682722 191.015944 
L 102.207701 188.305718 
L 102.273074 188.224351 
L 104.863425 185.213771 
L 104.86614 185.210806 
L 107.310653 182.115895 
L 107.453777 181.898654 
L 109.536044 179.020984 
L 110.044128 178.177647 
L 111.538823 175.926073 
L 112.634479 173.967651 
L 113.332677 172.831161 
L 114.998794 169.73625 
L 115.224831 169.254906 
L 116.619021 166.641339 
L 117.815182 164.078093 
L 118.09284 163.546428 
L 119.500363 160.451516 
L 120.405534 158.169856 
L 120.773221 157.356605 
L 121.877678 154.261694 
L 122.751775 151.166782 
L 122.995885 149.42727 
L 123.218151 148.071871 
L 123.230186 144.97696 
L 122.995885 141.882049 
L 122.949843 138.787137 
L 122.995885 138.148523 
L 123.192384 135.692226 
L 123.632859 132.597315 
L 124.117993 129.502404 
L 124.534728 126.407492 
L 124.718938 123.312581 
L 124.258174 120.21767 
L 122.995885 118.387057 
L 120.405534 117.456776 
L 117.815182 117.821661 
L 115.224831 118.680502 
L 112.634479 119.79592 
L 111.858338 120.21767 
L 110.044128 121.17599 
L 107.453777 122.697224 
L 106.534606 123.312581 
L 104.863425 124.385313 
L 102.273074 126.220832 
L 102.040982 126.407492 
L 99.682722 128.194122 
L 98.143318 129.502404 
L 97.092371 130.322286 
L 94.517295 132.597315 
L 94.50202 132.609392 
L 91.911668 134.92675 
L 91.152978 135.692226 
L 89.321317 137.333357 
L 87.88591 138.787137 
L 86.730965 139.816359 
L 84.685133 141.882049 
L 84.140614 142.365707 
L 81.551514 144.97696 
L 81.550263 144.978079 
L 78.959911 147.549661 
L 78.488068 148.071871 
L 76.36956 150.21367 
L 75.520819 151.166782 
L 73.779208 152.985981 
L 72.671602 154.261694 
L 71.188857 155.883011 
L 69.952872 157.356605 
L 68.598506 158.923379 
L 67.368768 160.451516 
L 66.008154 162.129644 
L 64.919175 163.546428 
L 63.417803 165.530775 
L 62.604478 166.641339 
L 60.827451 169.16594 
L 60.429862 169.73625 
L 58.372044 172.831161 
L 58.2371 173.040229 
L 56.34991 175.926073 
L 55.646748 177.109166 
L 54.463216 179.020984 
L 53.056397 181.594316 
L 52.7507 182.115895 
L 51.066932 185.210806 
L 50.466046 186.481073 
L 49.507273 188.305718 
L 48.142659 191.400629 
L 47.875694 192.100707 
L 46.817131 194.49554 
L 45.741581 197.590452 
L 45.285343 199.28484 
L 44.826322 200.685363 
L 44.122355 203.780274 
L 43.755937 206.875185 
L 43.796129 209.970097 
L 44.440942 213.065008 
L 45.285343 214.813722 
L 46.184874 216.159919 
L 47.875694 217.686006 
L 50.466046 218.885177 
L 52.672261 219.25483 
z
M 48.875399 213.065008 
L 47.875694 211.385375 
L 47.275899 209.970097 
L 46.775381 206.875185 
L 46.872443 203.780274 
L 47.390609 200.685363 
L 47.875694 198.978708 
L 48.207107 197.590452 
L 49.210193 194.49554 
L 50.466046 191.528632 
L 50.513899 191.400629 
L 51.854175 188.305718 
L 53.056397 186.0167 
L 53.447148 185.210806 
L 55.130492 182.115895 
L 55.646748 181.254206 
L 56.928742 179.020984 
L 58.2371 176.97206 
L 58.896296 175.926073 
L 60.827451 173.087696 
L 61.004653 172.831161 
L 63.211124 169.73625 
L 63.417803 169.453367 
L 65.551767 166.641339 
L 66.008154 166.050473 
L 68.063157 163.546428 
L 68.598506 162.890191 
L 70.755336 160.451516 
L 71.188857 159.94707 
L 73.64404 157.356605 
L 73.779208 157.206593 
L 76.36956 154.588637 
L 76.737836 154.261694 
L 78.959911 152.102538 
L 80.072295 151.166782 
L 81.550263 149.780831 
L 83.662101 148.071871 
L 84.140614 147.633331 
L 86.730965 145.563515 
L 87.59243 144.97696 
L 89.321317 143.606667 
L 91.880635 141.882049 
L 91.911668 141.857577 
L 94.50202 140.168498 
L 97.02706 138.787137 
L 97.092371 138.744834 
L 99.682722 137.51809 
L 102.273074 136.671213 
L 104.863425 136.389207 
L 107.453777 137.363676 
L 108.527676 138.787137 
L 109.484065 141.882049 
L 109.78415 144.97696 
L 109.87715 148.071871 
L 109.936079 151.166782 
L 110.021668 154.261694 
L 110.044128 155.08568 
L 110.119163 157.356605 
L 110.078509 160.451516 
L 110.044128 160.747077 
L 109.792891 163.546428 
L 109.188457 166.641339 
L 108.23385 169.73625 
L 107.453777 171.540161 
L 106.993893 172.831161 
L 105.534214 175.926073 
L 104.863425 177.056411 
L 103.854967 179.020984 
L 102.273074 181.463494 
L 101.89977 182.115895 
L 99.71899 185.210806 
L 99.682722 185.255519 
L 97.382667 188.305718 
L 97.092371 188.637244 
L 94.782719 191.400629 
L 94.50202 191.698503 
L 91.911668 194.49554 
L 89.321317 197.140499 
L 88.870238 197.590452 
L 86.730965 199.616037 
L 85.533973 200.685363 
L 84.140614 201.911332 
L 81.806619 203.780274 
L 81.550263 203.990245 
L 78.959911 206.031003 
L 77.74257 206.875185 
L 76.36956 207.890888 
L 73.779208 209.552539 
L 73.04515 209.970097 
L 71.188857 211.147804 
L 68.598506 212.497577 
L 67.285723 213.065008 
L 66.008154 213.710453 
L 63.417803 214.7399 
L 60.827451 215.481991 
L 58.2371 215.945917 
L 55.646748 216.077491 
L 53.056397 215.723169 
L 50.466046 214.542144 
z
" style="fill:#7bb3f8;"/>
   </g>
   <g id="PathCollection_5">
    <path clip-path="url(#pff9d94581f)" d="M 50.466046 214.542144 
L 53.056397 215.723169 
L 55.646748 216.077491 
L 58.2371 215.945917 
L 60.827451 215.481991 
L 63.417803 214.7399 
L 66.008154 213.710453 
L 67.285723 213.065008 
L 68.598506 212.497577 
L 71.188857 211.147804 
L 73.04515 209.970097 
L 73.779208 209.552539 
L 76.36956 207.890888 
L 77.74257 206.875185 
L 78.959911 206.031003 
L 81.550263 203.990245 
L 81.806619 203.780274 
L 84.140614 201.911332 
L 85.533973 200.685363 
L 86.730965 199.616037 
L 88.870238 197.590452 
L 89.321317 197.140499 
L 91.911668 194.49554 
L 94.50202 191.698503 
L 94.782719 191.400629 
L 97.092371 188.637244 
L 97.382667 188.305718 
L 99.682722 185.255519 
L 99.71899 185.210806 
L 101.89977 182.115895 
L 102.273074 181.463494 
L 103.854967 179.020984 
L 104.863425 177.056411 
L 105.534214 175.926073 
L 106.993893 172.831161 
L 107.453777 171.540161 
L 108.23385 169.73625 
L 109.188457 166.641339 
L 109.792891 163.546428 
L 110.044128 160.747077 
L 110.078509 160.451516 
L 110.119163 157.356605 
L 110.044128 155.08568 
L 110.021668 154.261694 
L 109.936079 151.166782 
L 109.87715 148.071871 
L 109.78415 144.97696 
L 109.484065 141.882049 
L 108.527676 138.787137 
L 107.453777 137.363676 
L 104.863425 136.389207 
L 102.273074 136.671213 
L 99.682722 137.51809 
L 97.092371 138.744834 
L 97.02706 138.787137 
L 94.50202 140.168498 
L 91.911668 141.857577 
L 91.880635 141.882049 
L 89.321317 143.606667 
L 87.59243 144.97696 
L 86.730965 145.563515 
L 84.140614 147.633331 
L 83.662101 148.071871 
L 81.550263 149.780831 
L 80.072295 151.166782 
L 78.959911 152.102538 
L 76.737836 154.261694 
L 76.36956 154.588637 
L 73.779208 157.206593 
L 73.64404 157.356605 
L 71.188857 159.94707 
L 70.755336 160.451516 
L 68.598506 162.890191 
L 68.063157 163.546428 
L 66.008154 166.050473 
L 65.551767 166.641339 
L 63.417803 169.453367 
L 63.211124 169.73625 
L 61.004653 172.831161 
L 60.827451 173.087696 
L 58.896296 175.926073 
L 58.2371 176.97206 
L 56.928742 179.020984 
L 55.646748 181.254206 
L 55.130492 182.115895 
L 53.447148 185.210806 
L 53.056397 186.0167 
L 51.854175 188.305718 
L 50.513899 191.400629 
L 50.466046 191.528632 
L 49.210193 194.49554 
L 48.207107 197.590452 
L 47.875694 198.978708 
L 47.390609 200.685363 
L 46.872443 203.780274 
L 46.775381 206.875185 
L 47.275899 209.970097 
L 47.875694 211.385375 
L 48.875399 213.065008 
z
M 52.806462 209.970097 
L 51.010043 206.875185 
L 50.524314 203.780274 
L 50.702503 200.685363 
L 51.289946 197.590452 
L 52.204148 194.49554 
L 53.056397 192.35478 
L 53.400162 191.400629 
L 54.761437 188.305718 
L 55.646748 186.614676 
L 56.342917 185.210806 
L 58.113181 182.115895 
L 58.2371 181.914146 
L 59.986604 179.020984 
L 60.827451 177.751265 
L 62.054272 175.926073 
L 63.417803 174.014828 
L 64.300225 172.831161 
L 66.008154 170.608528 
L 66.728002 169.73625 
L 68.598506 167.476336 
L 69.359671 166.641339 
L 71.188857 164.58898 
L 72.23547 163.546428 
L 73.779208 161.935775 
L 75.412425 160.451516 
L 76.36956 159.519967 
L 78.959911 157.356605 
L 81.550263 155.306327 
L 83.151969 154.261694 
L 84.140614 153.530151 
L 86.730965 151.980312 
L 88.478276 151.166782 
L 89.321317 150.70605 
L 91.911668 149.753406 
L 94.50202 149.292551 
L 97.092371 149.614444 
L 99.285895 151.166782 
L 99.682722 151.639991 
L 100.89597 154.261694 
L 101.64769 157.356605 
L 102.04613 160.451516 
L 102.207685 163.546428 
L 102.12729 166.641339 
L 101.757992 169.73625 
L 101.0549 172.831161 
L 99.973076 175.926073 
L 99.682722 176.529843 
L 98.649788 179.020984 
L 97.092371 181.850343 
L 96.962659 182.115895 
L 95.081956 185.210806 
L 94.50202 186.00083 
L 92.918438 188.305718 
L 91.911668 189.552148 
L 90.468799 191.400629 
L 89.321317 192.696182 
L 87.728713 194.49554 
L 86.730965 195.52602 
L 84.662664 197.590452 
L 84.140614 198.085 
L 81.550263 200.41836 
L 81.237371 200.685363 
L 78.959911 202.603787 
L 77.380349 203.780274 
L 76.36956 204.55406 
L 73.779208 206.307124 
L 72.815268 206.875185 
L 71.188857 207.904956 
L 68.598506 209.257557 
L 66.905081 209.970097 
L 66.008154 210.394982 
L 63.417803 211.304982 
L 60.827451 211.871338 
L 58.2371 212.036602 
L 55.646748 211.621456 
L 53.056397 210.209861 
z
" style="fill:#57a8fc;"/>
   </g>
   <g id="PathCollection_6">
    <path clip-path="url(#pff9d94581f)" d="M 53.056397 210.209861 
L 55.646748 211.621456 
L 58.2371 212.036602 
L 60.827451 211.871338 
L 63.417803 211.304982 
L 66.008154 210.394982 
L 66.905081 209.970097 
L 68.598506 209.257557 
L 71.188857 207.904956 
L 72.815268 206.875185 
L 73.779208 206.307124 
L 76.36956 204.55406 
L 77.380349 203.780274 
L 78.959911 202.603787 
L 81.237371 200.685363 
L 81.550263 200.41836 
L 84.140614 198.085 
L 84.662664 197.590452 
L 86.730965 195.52602 
L 87.728713 194.49554 
L 89.321317 192.696182 
L 90.468799 191.400629 
L 91.911668 189.552148 
L 92.918438 188.305718 
L 94.50202 186.00083 
L 95.081956 185.210806 
L 96.962659 182.115895 
L 97.092371 181.850343 
L 98.649788 179.020984 
L 99.682722 176.529843 
L 99.973076 175.926073 
L 101.0549 172.831161 
L 101.757992 169.73625 
L 102.12729 166.641339 
L 102.207685 163.546428 
L 102.04613 160.451516 
L 101.64769 157.356605 
L 100.89597 154.261694 
L 99.682722 151.639991 
L 99.285895 151.166782 
L 97.092371 149.614444 
L 94.50202 149.292551 
L 91.911668 149.753406 
L 89.321317 150.70605 
L 88.478276 151.166782 
L 86.730965 151.980312 
L 84.140614 153.530151 
L 83.151969 154.261694 
L 81.550263 155.306327 
L 78.959911 157.356605 
L 76.36956 159.519967 
L 75.412425 160.451516 
L 73.779208 161.935775 
L 72.23547 163.546428 
L 71.188857 164.58898 
L 69.359671 166.641339 
L 68.598506 167.476336 
L 66.728002 169.73625 
L 66.008154 170.608528 
L 64.300225 172.831161 
L 63.417803 174.014828 
L 62.054272 175.926073 
L 60.827451 177.751265 
L 59.986604 179.020984 
L 58.2371 181.914146 
L 58.113181 182.115895 
L 56.342917 185.210806 
L 55.646748 186.614676 
L 54.761437 188.305718 
L 53.400162 191.400629 
L 53.056397 192.35478 
L 52.204148 194.49554 
L 51.289946 197.590452 
L 50.702503 200.685363 
L 50.524314 203.780274 
L 51.010043 206.875185 
L 52.806462 209.970097 
z
M 58.930584 206.875185 
L 58.2371 206.658611 
L 55.646748 204.044127 
L 55.505588 203.780274 
L 54.877412 200.685363 
L 55.059289 197.590452 
L 55.646748 195.019475 
L 55.75677 194.49554 
L 56.79699 191.400629 
L 58.146895 188.305718 
L 58.2371 188.13229 
L 59.715971 185.210806 
L 60.827451 183.314125 
L 61.535435 182.115895 
L 63.417803 179.24864 
L 63.573788 179.020984 
L 65.827225 175.926073 
L 66.008154 175.686961 
L 68.335942 172.831161 
L 68.598506 172.513538 
L 71.14279 169.73625 
L 71.188857 169.685239 
L 73.779208 167.134496 
L 74.369869 166.641339 
L 76.36956 164.873578 
L 78.185817 163.546428 
L 78.959911 162.932487 
L 81.550263 161.296186 
L 83.328026 160.451516 
L 84.140614 160.015417 
L 86.730965 159.172684 
L 89.321317 158.958532 
L 91.911668 159.787133 
L 92.668929 160.451516 
L 94.50202 163.292494 
L 94.603378 163.546428 
L 95.313476 166.641339 
L 95.499765 169.73625 
L 95.251974 172.831161 
L 94.584978 175.926073 
L 94.50202 176.15427 
L 93.579532 179.020984 
L 92.183141 182.115895 
L 91.911668 182.57894 
L 90.482613 185.210806 
L 89.321317 186.924846 
L 88.425625 188.305718 
L 86.730965 190.489854 
L 86.030558 191.400629 
L 84.140614 193.542919 
L 83.277045 194.49554 
L 81.550263 196.226699 
L 80.099184 197.590452 
L 78.959911 198.604973 
L 76.36956 200.685363 
L 73.779208 202.550861 
L 71.754558 203.780274 
L 71.188857 204.134922 
L 68.598506 205.461722 
L 66.008154 206.466454 
L 64.353646 206.875185 
L 63.417803 207.125606 
L 60.827451 207.282729 
z
" style="fill:#0099f8;"/>
   </g>
   <g id="PathCollection_7">
    <path clip-path="url(#pff9d94581f)" d="M 60.827451 207.282729 
L 63.417803 207.125606 
L 64.353646 206.875185 
L 66.008154 206.466454 
L 68.598506 205.461722 
L 71.188857 204.134922 
L 71.754558 203.780274 
L 73.779208 202.550861 
L 76.36956 200.685363 
L 78.959911 198.604973 
L 80.099184 197.590452 
L 81.550263 196.226699 
L 83.277045 194.49554 
L 84.140614 193.542919 
L 86.030558 191.400629 
L 86.730965 190.489854 
L 88.425625 188.305718 
L 89.321317 186.924846 
L 90.482613 185.210806 
L 91.911668 182.57894 
L 92.183141 182.115895 
L 93.579532 179.020984 
L 94.50202 176.15427 
L 94.584978 175.926073 
L 95.251974 172.831161 
L 95.499765 169.73625 
L 95.313476 166.641339 
L 94.603378 163.546428 
L 94.50202 163.292494 
L 92.668929 160.451516 
L 91.911668 159.787133 
L 89.321317 158.958532 
L 86.730965 159.172684 
L 84.140614 160.015417 
L 83.328026 160.451516 
L 81.550263 161.296186 
L 78.959911 162.932487 
L 78.185817 163.546428 
L 76.36956 164.873578 
L 74.369869 166.641339 
L 73.779208 167.134496 
L 71.188857 169.685239 
L 71.14279 169.73625 
L 68.598506 172.513538 
L 68.335942 172.831161 
L 66.008154 175.686961 
L 65.827225 175.926073 
L 63.573788 179.020984 
L 63.417803 179.24864 
L 61.535435 182.115895 
L 60.827451 183.314125 
L 59.715971 185.210806 
L 58.2371 188.13229 
L 58.146895 188.305718 
L 56.79699 191.400629 
L 55.75677 194.49554 
L 55.646748 195.019475 
L 55.059289 197.590452 
L 54.877412 200.685363 
L 55.505588 203.780274 
L 55.646748 204.044127 
L 58.2371 206.658611 
L 58.930584 206.875185 
z
M 59.785099 200.685363 
L 58.918464 197.590452 
L 59.177619 194.49554 
L 60.007366 191.400629 
L 60.827451 189.377211 
L 61.260541 188.305718 
L 62.843173 185.210806 
L 63.417803 184.25033 
L 64.747478 182.115895 
L 66.008154 180.289081 
L 66.953823 179.020984 
L 68.598506 176.945387 
L 69.503721 175.926073 
L 71.188857 174.070987 
L 72.496739 172.831161 
L 73.779208 171.600596 
L 76.11415 169.73625 
L 76.36956 169.523191 
L 78.959911 167.859595 
L 81.550263 166.641339 
L 84.140614 166.055619 
L 86.730965 166.400641 
L 87.123427 166.641339 
L 89.321317 169.122709 
L 89.593753 169.73625 
L 90.153065 172.831161 
L 90.01005 175.926073 
L 89.327726 179.020984 
L 89.321317 179.037135 
L 88.180282 182.115895 
L 86.730965 184.965983 
L 86.610732 185.210806 
L 84.635439 188.305718 
L 84.140614 188.946395 
L 82.224063 191.400629 
L 81.550263 192.147589 
L 79.326766 194.49554 
L 78.959911 194.846229 
L 76.36956 197.118803 
L 75.763587 197.590452 
L 73.779208 199.047495 
L 71.188857 200.657796 
L 71.130245 200.685363 
L 68.598506 201.858414 
L 66.008154 202.628022 
L 63.417803 202.796643 
L 60.827451 201.831171 
z
" style="fill:#1986d8;"/>
   </g>
   <g id="PathCollection_8">
    <path clip-path="url(#pff9d94581f)" d="M 60.827451 201.831171 
L 63.417803 202.796643 
L 66.008154 202.628022 
L 68.598506 201.858414 
L 71.130245 200.685363 
L 71.188857 200.657796 
L 73.779208 199.047495 
L 75.763587 197.590452 
L 76.36956 197.118803 
L 78.959911 194.846229 
L 79.326766 194.49554 
L 81.550263 192.147589 
L 82.224063 191.400629 
L 84.140614 188.946395 
L 84.635439 188.305718 
L 86.610732 185.210806 
L 86.730965 184.965983 
L 88.180282 182.115895 
L 89.321317 179.037135 
L 89.327726 179.020984 
L 90.01005 175.926073 
L 90.153065 172.831161 
L 89.593753 169.73625 
L 89.321317 169.122709 
L 87.123427 166.641339 
L 86.730965 166.400641 
L 84.140614 166.055619 
L 81.550263 166.641339 
L 78.959911 167.859595 
L 76.36956 169.523191 
L 76.11415 169.73625 
L 73.779208 171.600596 
L 72.496739 172.831161 
L 71.188857 174.070987 
L 69.503721 175.926073 
L 68.598506 176.945387 
L 66.953823 179.020984 
L 66.008154 180.289081 
L 64.747478 182.115895 
L 63.417803 184.25033 
L 62.843173 185.210806 
L 61.260541 188.305718 
L 60.827451 189.377211 
L 60.007366 191.400629 
L 59.177619 194.49554 
L 58.918464 197.590452 
L 59.785099 200.685363 
z
M 65.852452 197.590452 
L 63.521728 194.49554 
L 63.817912 191.400629 
L 64.883959 188.305718 
L 66.008154 186.007388 
L 66.432854 185.210806 
L 68.452708 182.115895 
L 68.598506 181.919576 
L 71.030332 179.020984 
L 71.188857 178.842908 
L 73.779208 176.43292 
L 74.486318 175.926073 
L 76.36956 174.599358 
L 78.959911 173.385495 
L 81.550263 173.089478 
L 84.140614 175.231006 
L 84.432817 175.926073 
L 84.583238 179.020984 
L 84.140614 180.921473 
L 83.859715 182.115895 
L 82.474393 185.210806 
L 81.550263 186.702739 
L 80.518466 188.305718 
L 78.959911 190.231302 
L 77.933912 191.400629 
L 76.36956 192.904402 
L 74.491087 194.49554 
L 73.779208 195.032564 
L 71.188857 196.537796 
L 68.598506 197.590452 
L 66.008154 197.657769 
z
" style="fill:#2f72b1;"/>
   </g>
   <g id="PathCollection_9">
    <path clip-path="url(#pff9d94581f)" d="M 66.008154 197.657769 
L 68.598506 197.590452 
L 71.188857 196.537796 
L 73.779208 195.032564 
L 74.491087 194.49554 
L 76.36956 192.904402 
L 77.933912 191.400629 
L 78.959911 190.231302 
L 80.518466 188.305718 
L 81.550263 186.702739 
L 82.474393 185.210806 
L 83.859715 182.115895 
L 84.140614 180.921473 
L 84.583238 179.020984 
L 84.432817 175.926073 
L 84.140614 175.231006 
L 81.550263 173.089478 
L 78.959911 173.385495 
L 76.36956 174.599358 
L 74.486318 175.926073 
L 73.779208 176.43292 
L 71.188857 178.842908 
L 71.030332 179.020984 
L 68.598506 181.919576 
L 68.452708 182.115895 
L 66.432854 185.210806 
L 66.008154 186.007388 
L 64.883959 188.305718 
L 63.817912 191.400629 
L 63.521728 194.49554 
L 65.852452 197.590452 
z
" style="fill:#3a5e88;"/>
   </g>
   <g id="patch_3">
    <path d="M 36 216 
L 36 72 
" style="fill:none;stroke:#262626;stroke-linecap:square;stroke-linejoin:miter;"/>
   </g>
   <g id="patch_4">
    <path d="M 36 216 
L 180 216 
" style="fill:none;stroke:#262626;stroke-linecap:square;stroke-linejoin:miter;"/>
   </g>
   <g id="text_13">
    <g id="patch_5">
     <path d="M 46.368 92.0115 
L 87.252 92.0115 
L 87.252 75.168 
L 46.368 75.168 
z
" style="fill:#ffffff;opacity:0.5;stroke:#000000;stroke-linejoin:miter;stroke-width:0.8;"/>
    </g>
    <text style="fill:#262626;font-family:Arial;font-size:9.6px;font-stretch:normal;font-style:normal;font-weight:normal;text-anchor:start;" transform="rotate(-0, 50.4, 86.0715)" x="50.4" y="86.0715">r = 0.74</text>
   </g>
   <g id="text_14">
    <text style="fill:#262626;font-family:Arial;font-size:11.52px;font-stretch:normal;font-style:normal;font-weight:normal;text-anchor:middle;" transform="rotate(-0, 108, 67)" x="108" y="67">Manfredonia et al. (DMS)</text>
   </g>
   <g id="text_15">
    <text style="fill:#262626;font-family:Arial;font-size:11.52px;font-stretch:normal;font-style:normal;font-weight:normal;" transform="translate(187.2896 120.3039)rotate(-270)">Lan et al.</text>
   </g>
  </g>
 </g>
 <defs>
  <clipPath id="pff9d94581f">
   <rect height="144" width="144" x="36" y="72"/>
  </clipPath>
 </defs>
</svg>
