<?xml version="1.0" encoding="utf-8" standalone="no"?>
<!DOCTYPE svg PUBLIC "-//W3C//DTD SVG 1.1//EN"
  "http://www.w3.org/Graphics/SVG/1.1/DTD/svg11.dtd">
<!-- Created with matplotlib (https://matplotlib.org/) -->
<svg height="446.4pt" version="1.1" viewBox="0 0 288 446.4" width="288pt" xmlns="http://www.w3.org/2000/svg" xmlns:xlink="http://www.w3.org/1999/xlink">
 <metadata>
  <rdf:RDF xmlns:cc="http://creativecommons.org/ns#" xmlns:dc="http://purl.org/dc/elements/1.1/" xmlns:rdf="http://www.w3.org/1999/02/22-rdf-syntax-ns#">
   <cc:Work>
    <dc:type rdf:resource="http://purl.org/dc/dcmitype/StillImage"/>
    <dc:date>2023-11-12T23:51:28.486056</dc:date>
    <dc:format>image/svg+xml</dc:format>
    <dc:creator>
     <cc:Agent>
      <dc:title>Matplotlib v3.3.4, https://matplotlib.org/</dc:title>
     </cc:Agent>
    </dc:creator>
   </cc:Work>
  </rdf:RDF>
 </metadata>
 <defs>
  <style type="text/css">*{stroke-linecap:butt;stroke-linejoin:round;}</style>
 </defs>
 <g id="figure_1">
  <g id="patch_1">
   <path d="M 0 446.4 
L 288 446.4 
L 288 0 
L 0 0 
z
" style="fill:#ffffff;"/>
  </g>
  <g id="axes_1">
   <g id="patch_2">
    <path d="M 72 216 
L 216 216 
L 216 72 
L 72 72 
z
" style="fill:#ffffff;"/>
   </g>
   <g id="matplotlib.axis_1">
    <g id="xtick_1">
     <g id="line2d_1">
      <defs>
       <path d="M 0 0 
L 0 4.8 
" id="m7cfde3e666" style="stroke:#262626;"/>
      </defs>
      <g>
       <use style="fill:#262626;stroke:#262626;" x="90" xlink:href="#m7cfde3e666" y="216"/>
      </g>
     </g>
    </g>
    <g id="xtick_2">
     <g id="line2d_2">
      <g>
       <use style="fill:#262626;stroke:#262626;" x="126" xlink:href="#m7cfde3e666" y="216"/>
      </g>
     </g>
    </g>
    <g id="xtick_3">
     <g id="line2d_3">
      <g>
       <use style="fill:#262626;stroke:#262626;" x="162" xlink:href="#m7cfde3e666" y="216"/>
      </g>
     </g>
    </g>
    <g id="xtick_4">
     <g id="line2d_4">
      <g>
       <use style="fill:#262626;stroke:#262626;" x="198" xlink:href="#m7cfde3e666" y="216"/>
      </g>
     </g>
    </g>
   </g>
   <g id="matplotlib.axis_2">
    <g id="text_1">
     <text style="fill:#262626;font-family:Arial;font-size:9.6px;font-stretch:normal;font-style:normal;font-weight:normal;text-anchor:middle;" transform="rotate(-90, 66.092, 144)" x="66.092" y="144">Huston et al.</text>
    </g>
   </g>
   <g id="patch_3">
    <path clip-path="url(#pc49fc390e4)" d="M 126 216 
L 126 72 
L 162 72 
L 162 216 
z
" style="fill:#d3d3d3;opacity:0.4;"/>
   </g>
   <g id="line2d_5">
    <path clip-path="url(#pc49fc390e4)" d="M 21.825919 215.996897 
L 29.077034 215.88454 
L 36.32815 215.694446 
L 42.543392 215.603437 
L 47.72276 215.488958 
L 51.866254 215.43581 
L 54.973875 215.188339 
L 59.11737 214.57591 
L 73.6196 212.14615 
L 77.763095 211.700017 
L 80.870716 211.259846 
L 82.942463 210.724302 
L 85.01421 209.963308 
L 88.121831 208.475868 
L 94.337073 205.085739 
L 96.40882 203.74975 
L 98.480568 202.083088 
L 100.552315 199.913655 
L 102.624062 197.087282 
L 104.695809 193.571897 
L 106.767557 189.535976 
L 110.911051 180.844239 
L 114.018672 173.898996 
L 117.126293 166.307921 
L 119.19804 160.825669 
L 121.269787 154.812361 
L 123.341535 148.087737 
L 129.556776 126.431477 
L 131.628524 120.44225 
L 132.664397 117.883027 
L 133.700271 115.62756 
L 134.736144 113.662178 
L 136.807892 110.450907 
L 138.879639 107.840608 
L 141.98726 104.329833 
L 144.059007 102.285341 
L 145.094881 101.497398 
L 146.130754 100.974741 
L 147.166628 100.806408 
L 148.202502 101.06823 
L 149.238375 101.804186 
L 150.274249 103.011433 
L 151.310123 104.635073 
L 153.38187 108.714717 
L 166.848227 137.458932 
L 169.955848 143.565682 
L 172.027595 148.411186 
L 174.099342 154.409168 
L 176.17109 161.674043 
L 179.27871 174.227091 
L 181.350458 182.644246 
L 183.422205 190.128862 
L 184.458079 193.339161 
L 185.493952 196.158295 
L 186.529826 198.598571 
L 187.565699 200.697341 
L 188.601573 202.507523 
L 190.67332 205.489565 
L 192.745068 207.918194 
L 194.816815 209.966399 
L 196.888562 211.652421 
L 198.960309 212.965874 
L 201.032057 213.93584 
L 203.103804 214.62146 
L 205.175551 215.084729 
L 208.283172 215.480295 
L 212.426667 215.695414 
L 224.85715 215.989366 
L 227.964771 215.998425 
L 227.964771 215.998425 
" style="fill:none;stroke:#f04c4c;stroke-linecap:round;stroke-width:1.2;"/>
   </g>
   <g id="line2d_6">
    <path clip-path="url(#pc49fc390e4)" d="M 22.146201 215.994703 
L 27.466155 215.895858 
L 38.106062 215.479917 
L 41.298035 215.356484 
L 47.681979 214.862741 
L 59.385877 214.474574 
L 61.513859 214.185344 
L 63.64184 213.734485 
L 66.833812 212.799349 
L 72.153766 211.248818 
L 81.729683 208.643541 
L 84.921655 207.954135 
L 87.049637 207.306304 
L 89.177618 206.362959 
L 91.3056 205.02383 
L 93.433581 203.263642 
L 95.561563 201.150337 
L 97.689544 198.754351 
L 99.817526 196.021849 
L 101.945507 192.759674 
L 104.073489 188.750884 
L 106.20147 183.856987 
L 108.329452 178.042777 
L 110.457433 171.441655 
L 117.905368 147.429705 
L 123.225322 130.888451 
L 125.353304 125.066961 
L 127.481285 120.0581 
L 132.801239 108.568833 
L 137.057202 98.603948 
L 138.121193 96.536823 
L 139.185183 94.860305 
L 140.249174 93.628148 
L 141.313165 92.838175 
L 142.377155 92.440644 
L 143.441146 92.361021 
L 144.505137 92.528669 
L 145.569128 92.901214 
L 146.633118 93.476785 
L 147.697109 94.291576 
L 148.7611 95.405672 
L 149.825091 96.883762 
L 150.889081 98.777974 
L 151.953072 101.117717 
L 153.017063 103.907469 
L 154.081054 107.129779 
L 156.209035 114.714906 
L 158.337017 123.40725 
L 165.784952 154.902138 
L 168.976924 167.304094 
L 171.104906 174.645049 
L 173.232887 181.150697 
L 175.360869 187.042942 
L 178.552841 195.113827 
L 180.680822 199.98629 
L 182.808804 204.341331 
L 184.936785 208.024499 
L 186.000776 209.559353 
L 187.064767 210.868308 
L 188.128758 211.947734 
L 189.192748 212.806931 
L 190.256739 213.46755 
L 191.32073 213.960592 
L 193.448711 214.588143 
L 196.640684 215.108029 
L 201.960637 215.735575 
L 206.2166 215.9574 
L 212.600545 215.978904 
L 226.432424 215.926567 
L 233.88036 215.998234 
L 233.88036 215.998234 
" style="fill:none;stroke:#ffa77c;stroke-linecap:round;stroke-width:1.2;"/>
   </g>
   <g id="line2d_7">
    <path clip-path="url(#pc49fc390e4)" d="M 23.709351 215.997038 
L 29.896275 215.890694 
L 35.052045 215.732209 
L 46.394739 215.790625 
L 56.706278 215.389737 
L 64.95551 215.536449 
L 67.017818 215.297837 
L 74.235896 214.188025 
L 77.329358 213.751777 
L 86.609744 211.869892 
L 88.672052 211.300071 
L 90.73436 210.56538 
L 93.827822 209.170674 
L 96.921284 207.525434 
L 98.983592 206.270611 
L 101.0459 204.824904 
L 103.108208 203.174603 
L 105.170516 201.320749 
L 107.232824 199.153135 
L 109.295132 196.456748 
L 111.35744 193.132422 
L 114.450901 187.338632 
L 120.637825 175.131211 
L 122.700133 170.454911 
L 124.762441 164.872368 
L 127.855903 155.198802 
L 130.949365 145.795451 
L 137.136289 128.569301 
L 139.198597 123.147102 
L 141.260905 118.455197 
L 143.323213 114.565551 
L 145.385521 111.363836 
L 147.447829 108.796523 
L 149.510137 106.762458 
L 154.665907 102.229548 
L 155.697061 101.542206 
L 156.728215 101.113386 
L 157.759369 101.008043 
L 158.790523 101.245315 
L 159.821677 101.796621 
L 160.852831 102.598876 
L 162.915139 104.67159 
L 164.977447 107.130334 
L 166.008601 108.550019 
L 167.039755 110.173151 
L 168.070909 112.058497 
L 169.102063 114.24326 
L 171.164371 119.502284 
L 173.226679 125.725738 
L 175.288987 132.75726 
L 177.351294 140.790964 
L 179.413602 149.90416 
L 183.538218 168.873526 
L 185.600526 177.364647 
L 187.662834 184.938469 
L 189.725142 191.634351 
L 191.78745 197.450685 
L 193.849758 202.391304 
L 195.912066 206.497867 
L 197.974374 209.777825 
L 199.005528 211.096432 
L 200.036682 212.200981 
L 201.067836 213.103079 
L 202.09899 213.823763 
L 203.130144 214.38978 
L 205.192452 215.165243 
L 207.25476 215.606412 
L 209.317068 215.82578 
L 212.41053 215.897464 
L 220.659762 215.881634 
L 227.87784 215.996711 
L 228.908994 215.998545 
L 228.908994 215.998545 
" style="fill:none;stroke:#9bb9ff;stroke-linecap:round;stroke-width:1.2;"/>
   </g>
   <g id="line2d_8">
    <path clip-path="url(#pc49fc390e4)" d="M 22.884509 215.981884 
L 26.063046 215.856184 
L 28.182072 215.597501 
L 31.360609 214.886591 
L 33.479635 214.446212 
L 35.59866 214.318589 
L 40.896223 214.525402 
L 43.015248 214.155464 
L 46.193786 213.477384 
L 55.729399 211.968622 
L 63.145987 210.611332 
L 65.265013 209.999704 
L 68.44355 208.794973 
L 70.562576 207.798317 
L 72.681601 206.567143 
L 74.800626 204.918539 
L 76.919651 202.687583 
L 79.038676 199.925857 
L 89.633802 184.83664 
L 91.752828 181.399405 
L 93.871853 177.340765 
L 95.990878 172.388066 
L 98.109903 166.398658 
L 100.228928 159.450774 
L 106.586004 136.885901 
L 108.705029 129.000108 
L 111.883567 116.183848 
L 115.062105 103.198924 
L 117.18113 95.300829 
L 119.300155 88.614283 
L 120.359668 85.830609 
L 121.41918 83.450316 
L 122.478693 81.502057 
L 123.538206 80.036501 
L 124.597718 79.127547 
L 125.657231 78.857077 
L 126.716743 79.289351 
L 127.776256 80.447922 
L 128.835769 82.307278 
L 129.895281 84.803494 
L 130.954794 87.857628 
L 132.014306 91.398934 
L 134.133332 99.749989 
L 136.252357 109.49274 
L 140.490407 130.015384 
L 142.609432 138.899766 
L 144.728458 146.61969 
L 151.085533 168.118524 
L 153.204558 174.422982 
L 155.323584 179.773933 
L 157.442609 184.285319 
L 159.561634 188.219123 
L 163.799684 195.363758 
L 166.978222 200.410543 
L 169.097247 203.46743 
L 171.216273 206.184122 
L 173.335298 208.549914 
L 175.454323 210.565141 
L 177.573348 212.202819 
L 179.692373 213.426185 
L 181.811399 214.238537 
L 183.930424 214.715591 
L 187.108962 215.095259 
L 194.52555 215.744679 
L 199.823113 215.864383 
L 213.596777 215.984281 
L 227.37044 215.953418 
L 233.727516 215.998607 
L 233.727516 215.998607 
" style="fill:none;stroke:#366ef0;stroke-linecap:round;stroke-width:1.2;"/>
   </g>
   <g id="patch_4">
    <path d="M 72 216 
L 72 72 
" style="fill:none;stroke:#262626;stroke-linecap:square;stroke-linejoin:miter;"/>
   </g>
   <g id="patch_5">
    <path d="M 216 216 
L 216 72 
" style="fill:none;stroke:#262626;stroke-linecap:square;stroke-linejoin:miter;"/>
   </g>
   <g id="patch_6">
    <path d="M 72 216 
L 216 216 
" style="fill:none;stroke:#262626;stroke-linecap:square;stroke-linejoin:miter;"/>
   </g>
   <g id="patch_7">
    <path d="M 72 72 
L 216 72 
" style="fill:none;stroke:#262626;stroke-linecap:square;stroke-linejoin:miter;"/>
   </g>
   <g id="legend_1">
    <g id="patch_8">
     <path d="M 163.0855 142.128 
L 209.84 142.128 
Q 211.6 142.128 211.6 140.368 
L 211.6 78.16 
Q 211.6 76.4 209.84 76.4 
L 163.0855 76.4 
Q 161.3255 76.4 161.3255 78.16 
L 161.3255 140.368 
Q 161.3255 142.128 163.0855 142.128 
z
" style="fill:#ffffff;opacity:0.8;stroke:#cccccc;stroke-linejoin:miter;stroke-width:0.8;"/>
    </g>
    <g id="text_2">
     <text style="fill:#262626;font-family:Arial;font-size:9.6px;font-stretch:normal;font-style:normal;font-weight:normal;text-anchor:start;" transform="rotate(-0, 164.8455, 86.9085)" x="164.8455" y="86.9085">Sequence</text>
    </g>
    <g id="line2d_9">
     <path d="M 170.720375 96.435375 
L 188.320375 96.435375 
" style="fill:none;stroke:#366ef0;stroke-linecap:round;stroke-width:1.2;"/>
    </g>
    <g id="line2d_10"/>
    <g id="text_3">
     <text style="fill:#262626;font-family:Arial;font-size:8.8px;font-stretch:normal;font-style:normal;font-weight:normal;text-anchor:start;" transform="rotate(-0, 195.360375, 99.515375)" x="195.360375" y="99.515375">A</text>
    </g>
    <g id="line2d_11">
     <path d="M 170.720375 108.88325 
L 188.320375 108.88325 
" style="fill:none;stroke:#9bb9ff;stroke-linecap:round;stroke-width:1.2;"/>
    </g>
    <g id="line2d_12"/>
    <g id="text_4">
     <text style="fill:#262626;font-family:Arial;font-size:8.8px;font-stretch:normal;font-style:normal;font-weight:normal;text-anchor:start;" transform="rotate(-0, 195.360375, 111.96325)" x="195.360375" y="111.96325">U</text>
    </g>
    <g id="line2d_13">
     <path d="M 170.720375 121.331125 
L 188.320375 121.331125 
" style="fill:none;stroke:#ffa77c;stroke-linecap:round;stroke-width:1.2;"/>
    </g>
    <g id="line2d_14"/>
    <g id="text_5">
     <text style="fill:#262626;font-family:Arial;font-size:8.8px;font-stretch:normal;font-style:normal;font-weight:normal;text-anchor:start;" transform="rotate(-0, 195.360375, 124.411125)" x="195.360375" y="124.411125">C</text>
    </g>
    <g id="line2d_15">
     <path d="M 170.720375 133.779 
L 188.320375 133.779 
" style="fill:none;stroke:#f04c4c;stroke-linecap:round;stroke-width:1.2;"/>
    </g>
    <g id="line2d_16"/>
    <g id="text_6">
     <text style="fill:#262626;font-family:Arial;font-size:8.8px;font-stretch:normal;font-style:normal;font-weight:normal;text-anchor:start;" transform="rotate(-0, 195.360375, 136.859)" x="195.360375" y="136.859">G</text>
    </g>
   </g>
  </g>
  <g id="axes_2">
   <g id="patch_9">
    <path d="M 72 374.4 
L 216 374.4 
L 216 230.4 
L 72 230.4 
z
" style="fill:#ffffff;"/>
   </g>
   <g id="matplotlib.axis_3">
    <g id="xtick_5">
     <g id="line2d_17">
      <g>
       <use style="fill:#262626;stroke:#262626;" x="90" xlink:href="#m7cfde3e666" y="374.4"/>
      </g>
     </g>
     <g id="text_7">
      <text style="fill:#262626;font-family:Arial;font-size:8.8px;font-stretch:normal;font-style:normal;font-weight:normal;text-anchor:middle;" transform="rotate(-0, 90, 388.998875)" x="90" y="388.998875">0.01</text>
     </g>
    </g>
    <g id="xtick_6">
     <g id="line2d_18">
      <g>
       <use style="fill:#262626;stroke:#262626;" x="126" xlink:href="#m7cfde3e666" y="374.4"/>
      </g>
     </g>
     <g id="text_8">
      <text style="fill:#262626;font-family:Arial;font-size:8.8px;font-stretch:normal;font-style:normal;font-weight:normal;text-anchor:middle;" transform="rotate(-0, 126, 388.998875)" x="126" y="388.998875">0.1</text>
     </g>
    </g>
    <g id="xtick_7">
     <g id="line2d_19">
      <g>
       <use style="fill:#262626;stroke:#262626;" x="162" xlink:href="#m7cfde3e666" y="374.4"/>
      </g>
     </g>
     <g id="text_9">
      <text style="fill:#262626;font-family:Arial;font-size:8.8px;font-stretch:normal;font-style:normal;font-weight:normal;text-anchor:middle;" transform="rotate(-0, 162, 388.998875)" x="162" y="388.998875">1</text>
     </g>
    </g>
    <g id="xtick_8">
     <g id="line2d_20">
      <g>
       <use style="fill:#262626;stroke:#262626;" x="198" xlink:href="#m7cfde3e666" y="374.4"/>
      </g>
     </g>
     <g id="text_10">
      <text style="fill:#262626;font-family:Arial;font-size:8.8px;font-stretch:normal;font-style:normal;font-weight:normal;text-anchor:middle;" transform="rotate(-0, 198, 388.998875)" x="198" y="388.998875">10</text>
     </g>
    </g>
    <g id="text_11">
     <text style="fill:#262626;font-family:Arial;font-size:9.6px;font-stretch:normal;font-style:normal;font-weight:normal;text-anchor:middle;" transform="rotate(-0, 144, 401.736375)" x="144" y="401.736375">Normalized profile (log scale)</text>
    </g>
   </g>
   <g id="matplotlib.axis_4">
    <g id="text_12">
     <text style="fill:#262626;font-family:Arial;font-size:9.6px;font-stretch:normal;font-style:normal;font-weight:normal;text-anchor:middle;" transform="rotate(-90, 66.092, 302.4)" x="66.092" y="302.4">Manfredonia et al.</text>
    </g>
   </g>
   <g id="patch_10">
    <path clip-path="url(#pba6099e873)" d="M 126 374.4 
L 126 230.4 
L 162 230.4 
L 162 374.4 
z
" style="fill:#d3d3d3;opacity:0.4;"/>
   </g>
   <g id="line2d_21">
    <path clip-path="url(#pba6099e873)" d="M 43.634174 374.385332 
L 46.856877 374.244166 
L 49.273904 373.881823 
L 53.302282 373.102265 
L 54.913634 373.107902 
L 57.330661 373.470443 
L 58.942012 373.678288 
L 60.553363 373.689206 
L 66.193093 373.297664 
L 70.221471 373.453368 
L 71.832822 373.247838 
L 74.249849 372.644947 
L 80.695255 370.667396 
L 83.112282 369.569756 
L 86.334984 368.021549 
L 87.946336 367.490856 
L 90.363363 366.842947 
L 91.974714 366.077357 
L 93.586065 364.800345 
L 101.642822 356.71337 
L 103.254173 354.282142 
L 104.865524 351.233335 
L 107.282551 345.94648 
L 109.699578 340.157262 
L 111.31093 335.785658 
L 112.922281 330.586666 
L 114.533632 324.332614 
L 117.756335 309.96067 
L 120.173362 299.743398 
L 123.396065 287.434178 
L 129.84147 262.956696 
L 133.064173 250.95629 
L 134.675524 245.750983 
L 136.286875 241.545865 
L 137.092551 239.910296 
L 137.898226 238.63158 
L 138.703902 237.745257 
L 139.509578 237.284195 
L 140.315253 237.269691 
L 141.120929 237.701316 
L 141.926605 238.550965 
L 142.73228 239.76549 
L 143.537956 241.278797 
L 145.149307 244.980599 
L 146.760659 249.48758 
L 148.37201 255.021225 
L 149.983361 261.701163 
L 154.817415 283.248021 
L 158.040118 296.766298 
L 162.068496 314.1613 
L 163.679848 320.065823 
L 166.096875 327.736018 
L 168.513902 334.565744 
L 170.930928 340.733585 
L 174.959307 350.843351 
L 178.987685 361.344665 
L 180.599036 364.734081 
L 182.210388 367.352751 
L 183.821739 369.317601 
L 185.43309 370.841668 
L 187.044442 372.052232 
L 188.655793 372.958656 
L 190.267144 373.552533 
L 191.878496 373.889372 
L 194.295523 374.133568 
L 199.129577 374.353919 
L 203.963631 374.398402 
L 203.963631 374.398402 
" style="fill:none;stroke:#f04c4c;stroke-linecap:round;stroke-width:1.2;"/>
   </g>
   <g id="line2d_22">
    <path clip-path="url(#pba6099e873)" d="M 43.642938 374.381003 
L 46.857359 374.198846 
L 48.46457 373.927096 
L 53.286203 372.722936 
L 54.893413 372.732728 
L 56.500624 373.038006 
L 58.91144 373.579519 
L 60.518651 373.707889 
L 62.125862 373.613662 
L 66.143889 373.029212 
L 69.358311 372.405382 
L 72.572732 371.768938 
L 77.394365 370.955293 
L 79.001576 370.485668 
L 80.608787 369.785977 
L 82.215997 368.792505 
L 83.823208 367.531651 
L 91.055657 361.415845 
L 94.270079 358.756935 
L 95.877289 357.167109 
L 97.4845 355.132855 
L 99.091711 352.507382 
L 101.502527 347.728084 
L 106.32416 337.575563 
L 107.931371 333.493585 
L 109.538581 328.721009 
L 111.949398 320.565059 
L 115.163819 308.723362 
L 117.574636 299.155642 
L 119.181846 292.140181 
L 120.789057 284.354123 
L 125.61069 259.404157 
L 127.2179 252.856021 
L 128.825111 247.635469 
L 130.432322 243.49022 
L 132.039533 240.337002 
L 132.843138 239.164663 
L 133.646744 238.276875 
L 134.450349 237.670802 
L 135.253955 237.334729 
L 136.05756 237.257077 
L 136.861165 237.435637 
L 137.664771 237.881459 
L 138.468376 238.614674 
L 139.271982 239.65395 
L 140.075587 241.004867 
L 140.879192 242.653306 
L 142.486403 246.708538 
L 144.093614 251.554491 
L 145.700825 257.125121 
L 147.308036 263.49111 
L 149.718852 274.197032 
L 160.969328 325.41876 
L 162.576539 331.677709 
L 164.183749 337.261974 
L 167.398171 347.22011 
L 170.612593 356.815438 
L 172.219804 360.99272 
L 173.827014 364.315217 
L 175.434225 366.734874 
L 177.041436 368.469422 
L 178.648647 369.82837 
L 181.059463 371.559648 
L 182.666674 372.509121 
L 184.273885 373.213942 
L 185.881096 373.65585 
L 187.488306 373.88527 
L 190.702728 374.033105 
L 203.560415 374.398283 
L 203.560415 374.398283 
" style="fill:none;stroke:#ffa77c;stroke-linecap:round;stroke-width:1.2;"/>
   </g>
   <g id="line2d_23">
    <path clip-path="url(#pba6099e873)" d="M 44.357804 374.390255 
L 47.605672 374.278761 
L 50.041573 373.989071 
L 53.289441 373.542558 
L 54.913375 373.55001 
L 59.785177 373.969839 
L 62.221078 373.720274 
L 64.656979 373.414928 
L 70.340748 372.999203 
L 76.836484 371.79041 
L 80.896319 371.423618 
L 83.33222 371.019278 
L 84.956154 370.591896 
L 86.580088 369.910183 
L 88.204022 368.965329 
L 93.075824 365.818261 
L 95.511725 364.637215 
L 97.947626 363.421251 
L 99.57156 362.29894 
L 101.195494 360.813217 
L 102.819428 358.952198 
L 104.443362 356.729303 
L 106.067296 354.157884 
L 108.503197 349.75281 
L 111.751065 343.31267 
L 114.186966 337.903049 
L 115.8109 333.758895 
L 117.434834 329.068905 
L 119.058768 323.719848 
L 120.682702 317.639339 
L 123.93057 304.101222 
L 127.178438 290.856479 
L 131.238273 274.965568 
L 132.862207 269.412491 
L 134.486141 264.60915 
L 140.16991 248.976091 
L 140.981877 247.392053 
L 141.793844 246.226804 
L 142.605811 245.49213 
L 143.417778 245.155858 
L 144.229745 245.156862 
L 145.041712 245.423075 
L 145.853679 245.887677 
L 147.477613 247.236148 
L 149.101547 249.083579 
L 149.913514 250.241771 
L 151.537449 253.158616 
L 153.161383 256.896788 
L 154.785317 261.255087 
L 156.409251 266.05083 
L 158.033185 271.430416 
L 159.657119 277.710189 
L 162.09302 288.654214 
L 164.528921 299.758716 
L 166.964822 309.856547 
L 175.896459 344.976978 
L 177.520393 350.682447 
L 179.144327 355.64851 
L 180.768261 359.728031 
L 182.392195 362.916255 
L 184.016129 365.361528 
L 185.640063 367.29988 
L 187.263997 368.936894 
L 188.887931 370.356295 
L 190.511865 371.531737 
L 192.135799 372.424825 
L 193.759733 373.061795 
L 196.195634 373.700466 
L 198.631535 374.10371 
L 201.067436 374.311862 
L 205.127271 374.395737 
L 205.939238 374.398031 
L 205.939238 374.398031 
" style="fill:none;stroke:#9bb9ff;stroke-linecap:round;stroke-width:1.2;"/>
   </g>
   <g id="line2d_24">
    <path clip-path="url(#pba6099e873)" d="M 44.204378 374.390978 
L 47.452328 374.291246 
L 49.888291 374.032444 
L 53.136241 373.614466 
L 54.760216 373.602635 
L 60.444128 373.951139 
L 63.692078 373.553633 
L 66.940028 373.288479 
L 71.811953 372.875137 
L 80.743816 372.133202 
L 83.179778 371.736769 
L 84.803753 371.295008 
L 86.427728 370.633245 
L 92.923628 367.507374 
L 96.171578 366.202432 
L 98.60754 364.937827 
L 100.231515 363.88637 
L 101.85549 362.618586 
L 103.479465 361.11353 
L 105.10344 359.362803 
L 106.727415 357.286435 
L 108.35139 354.686628 
L 109.975365 351.400943 
L 112.411328 345.572931 
L 114.84729 339.914922 
L 118.09524 332.687708 
L 119.719215 328.406309 
L 121.34319 323.458205 
L 122.967165 317.922899 
L 125.403128 308.712319 
L 131.08704 285.73392 
L 132.711015 280.785462 
L 134.33499 277.0733 
L 137.58294 270.764102 
L 139.206915 266.788931 
L 143.266853 255.701595 
L 144.890828 252.117161 
L 146.514803 249.261772 
L 147.32679 248.105318 
L 148.138778 247.151803 
L 148.950765 246.441032 
L 149.762753 246.028866 
L 150.57474 245.978615 
L 151.386728 246.347961 
L 152.198715 247.173746 
L 153.010703 248.45851 
L 153.82269 250.163459 
L 155.446665 254.501167 
L 161.130577 271.167695 
L 163.56654 278.087923 
L 165.190515 283.427428 
L 166.81449 289.971008 
L 168.438465 297.825117 
L 174.934365 331.610241 
L 176.55834 338.506043 
L 178.182315 344.607592 
L 179.80629 349.979948 
L 181.430265 354.644426 
L 183.05424 358.595245 
L 184.678215 361.893681 
L 186.30219 364.700007 
L 187.926165 367.166725 
L 189.55014 369.316194 
L 191.174115 371.061421 
L 192.79809 372.338924 
L 194.422065 373.190122 
L 196.04604 373.725305 
L 197.670015 374.050526 
L 200.105977 374.295105 
L 204.165915 374.393857 
L 205.78989 374.398607 
L 205.78989 374.398607 
" style="fill:none;stroke:#366ef0;stroke-linecap:round;stroke-width:1.2;"/>
   </g>
   <g id="patch_11">
    <path d="M 72 374.4 
L 72 230.4 
" style="fill:none;stroke:#262626;stroke-linecap:square;stroke-linejoin:miter;"/>
   </g>
   <g id="patch_12">
    <path d="M 216 374.4 
L 216 230.4 
" style="fill:none;stroke:#262626;stroke-linecap:square;stroke-linejoin:miter;"/>
   </g>
   <g id="patch_13">
    <path d="M 72 374.4 
L 216 374.4 
" style="fill:none;stroke:#262626;stroke-linecap:square;stroke-linejoin:miter;"/>
   </g>
   <g id="patch_14">
    <path d="M 72 230.4 
L 216 230.4 
" style="fill:none;stroke:#262626;stroke-linecap:square;stroke-linejoin:miter;"/>
   </g>
   <g id="legend_2">
    <g id="patch_15">
     <path d="M 163.0855 300.528 
L 209.84 300.528 
Q 211.6 300.528 211.6 298.768 
L 211.6 236.56 
Q 211.6 234.8 209.84 234.8 
L 163.0855 234.8 
Q 161.3255 234.8 161.3255 236.56 
L 161.3255 298.768 
Q 161.3255 300.528 163.0855 300.528 
z
" style="fill:#ffffff;opacity:0.8;stroke:#cccccc;stroke-linejoin:miter;stroke-width:0.8;"/>
    </g>
    <g id="text_13">
     <text style="fill:#262626;font-family:Arial;font-size:9.6px;font-stretch:normal;font-style:normal;font-weight:normal;text-anchor:start;" transform="rotate(-0, 164.8455, 245.3085)" x="164.8455" y="245.3085">Sequence</text>
    </g>
    <g id="line2d_25">
     <path d="M 170.720375 254.835375 
L 188.320375 254.835375 
" style="fill:none;stroke:#366ef0;stroke-linecap:round;stroke-width:1.2;"/>
    </g>
    <g id="line2d_26"/>
    <g id="text_14">
     <text style="fill:#262626;font-family:Arial;font-size:8.8px;font-stretch:normal;font-style:normal;font-weight:normal;text-anchor:start;" transform="rotate(-0, 195.360375, 257.915375)" x="195.360375" y="257.915375">A</text>
    </g>
    <g id="line2d_27">
     <path d="M 170.720375 267.28325 
L 188.320375 267.28325 
" style="fill:none;stroke:#9bb9ff;stroke-linecap:round;stroke-width:1.2;"/>
    </g>
    <g id="line2d_28"/>
    <g id="text_15">
     <text style="fill:#262626;font-family:Arial;font-size:8.8px;font-stretch:normal;font-style:normal;font-weight:normal;text-anchor:start;" transform="rotate(-0, 195.360375, 270.36325)" x="195.360375" y="270.36325">U</text>
    </g>
    <g id="line2d_29">
     <path d="M 170.720375 279.731125 
L 188.320375 279.731125 
" style="fill:none;stroke:#ffa77c;stroke-linecap:round;stroke-width:1.2;"/>
    </g>
    <g id="line2d_30"/>
    <g id="text_16">
     <text style="fill:#262626;font-family:Arial;font-size:8.8px;font-stretch:normal;font-style:normal;font-weight:normal;text-anchor:start;" transform="rotate(-0, 195.360375, 282.811125)" x="195.360375" y="282.811125">C</text>
    </g>
    <g id="line2d_31">
     <path d="M 170.720375 292.179 
L 188.320375 292.179 
" style="fill:none;stroke:#f04c4c;stroke-linecap:round;stroke-width:1.2;"/>
    </g>
    <g id="line2d_32"/>
    <g id="text_17">
     <text style="fill:#262626;font-family:Arial;font-size:8.8px;font-stretch:normal;font-style:normal;font-weight:normal;text-anchor:start;" transform="rotate(-0, 195.360375, 295.259)" x="195.360375" y="295.259">G</text>
    </g>
   </g>
  </g>
 </g>
 <defs>
  <clipPath id="pc49fc390e4">
   <rect height="144" width="144" x="72" y="72"/>
  </clipPath>
  <clipPath id="pba6099e873">
   <rect height="144" width="144" x="72" y="230.4"/>
  </clipPath>
 </defs>
</svg>
