<?xml version="1.0" encoding="utf-8" standalone="no"?>
<!DOCTYPE svg PUBLIC "-//W3C//DTD SVG 1.1//EN"
  "http://www.w3.org/Graphics/SVG/1.1/DTD/svg11.dtd">
<!-- Created with matplotlib (https://matplotlib.org/) -->
<svg height="446.4pt" version="1.1" viewBox="0 0 288 446.4" width="288pt" xmlns="http://www.w3.org/2000/svg" xmlns:xlink="http://www.w3.org/1999/xlink">
 <metadata>
  <rdf:RDF xmlns:cc="http://creativecommons.org/ns#" xmlns:dc="http://purl.org/dc/elements/1.1/" xmlns:rdf="http://www.w3.org/1999/02/22-rdf-syntax-ns#">
   <cc:Work>
    <dc:type rdf:resource="http://purl.org/dc/dcmitype/StillImage"/>
    <dc:date>2023-11-12T23:51:28.553802</dc:date>
    <dc:format>image/svg+xml</dc:format>
    <dc:creator>
     <cc:Agent>
      <dc:title>Matplotlib v3.3.4, https://matplotlib.org/</dc:title>
     </cc:Agent>
    </dc:creator>
   </cc:Work>
  </rdf:RDF>
 </metadata>
 <defs>
  <style type="text/css">*{stroke-linecap:butt;stroke-linejoin:round;}</style>
 </defs>
 <g id="figure_1">
  <g id="patch_1">
   <path d="M 0 446.4 
L 288 446.4 
L 288 0 
L 0 0 
z
" style="fill:#ffffff;"/>
  </g>
  <g id="axes_1">
   <g id="patch_2">
    <path d="M 72 216 
L 216 216 
L 216 72 
L 72 72 
z
" style="fill:#ffffff;"/>
   </g>
   <g id="matplotlib.axis_1">
    <g id="xtick_1">
     <g id="line2d_1">
      <defs>
       <path d="M 0 0 
L 0 4.8 
" id="m029919cc4d" style="stroke:#262626;"/>
      </defs>
      <g>
       <use style="fill:#262626;stroke:#262626;" x="90" xlink:href="#m029919cc4d" y="216"/>
      </g>
     </g>
    </g>
    <g id="xtick_2">
     <g id="line2d_2">
      <g>
       <use style="fill:#262626;stroke:#262626;" x="126" xlink:href="#m029919cc4d" y="216"/>
      </g>
     </g>
    </g>
    <g id="xtick_3">
     <g id="line2d_3">
      <g>
       <use style="fill:#262626;stroke:#262626;" x="162" xlink:href="#m029919cc4d" y="216"/>
      </g>
     </g>
    </g>
    <g id="xtick_4">
     <g id="line2d_4">
      <g>
       <use style="fill:#262626;stroke:#262626;" x="198" xlink:href="#m029919cc4d" y="216"/>
      </g>
     </g>
    </g>
   </g>
   <g id="matplotlib.axis_2">
    <g id="text_1">
     <text style="fill:#262626;font-family:Arial;font-size:9.6px;font-stretch:normal;font-style:normal;font-weight:normal;text-anchor:middle;" transform="rotate(-90, 66.092, 144)" x="66.092" y="144">Huston et al.</text>
    </g>
   </g>
   <g id="patch_3">
    <path clip-path="url(#p9be7dff1d1)" d="M 126 216 
L 126 72 
L 162 72 
L 162 216 
z
" style="fill:#d3d3d3;opacity:0.4;"/>
   </g>
   <g id="line2d_5">
    <path clip-path="url(#p9be7dff1d1)" d="M 19.086087 215.996897 
L 26.337202 215.88454 
L 33.588317 215.694446 
L 39.803559 215.603437 
L 44.982927 215.488958 
L 49.126422 215.43581 
L 52.234043 215.188339 
L 56.377537 214.57591 
L 70.879768 212.14615 
L 75.023263 211.700017 
L 78.130883 211.259846 
L 80.202631 210.724302 
L 82.274378 209.963308 
L 85.381999 208.475868 
L 91.597241 205.085739 
L 93.668988 203.74975 
L 95.740735 202.083088 
L 97.812482 199.913655 
L 99.88423 197.087282 
L 101.955977 193.571897 
L 104.027724 189.535976 
L 108.171219 180.844239 
L 111.27884 173.898996 
L 114.38646 166.307921 
L 116.458208 160.825669 
L 118.529955 154.812361 
L 120.601702 148.087737 
L 126.816944 126.431477 
L 128.888691 120.44225 
L 129.924565 117.883027 
L 130.960438 115.62756 
L 131.996312 113.662178 
L 134.068059 110.450907 
L 136.139807 107.840608 
L 139.247427 104.329833 
L 141.319175 102.285341 
L 142.355048 101.497398 
L 143.390922 100.974741 
L 144.426796 100.806408 
L 145.462669 101.06823 
L 146.498543 101.804186 
L 147.534417 103.011433 
L 148.57029 104.635073 
L 150.642037 108.714717 
L 164.108395 137.458932 
L 167.216015 143.565682 
L 169.287763 148.411186 
L 171.35951 154.409168 
L 173.431257 161.674043 
L 176.538878 174.227091 
L 178.610625 182.644246 
L 180.682373 190.128862 
L 181.718246 193.339161 
L 182.75412 196.158295 
L 183.789993 198.598571 
L 184.825867 200.697341 
L 185.861741 202.507523 
L 187.933488 205.489565 
L 190.005235 207.918194 
L 192.076982 209.966399 
L 194.14873 211.652421 
L 196.220477 212.965874 
L 198.292224 213.93584 
L 200.363972 214.62146 
L 202.435719 215.084729 
L 205.54334 215.480295 
L 209.686834 215.695414 
L 222.117318 215.989366 
L 225.224939 215.998425 
L 225.224939 215.998425 
" style="fill:none;stroke:#f04c4c;stroke-linecap:round;stroke-width:1.2;"/>
   </g>
   <g id="line2d_6">
    <path clip-path="url(#p9be7dff1d1)" d="M 25.96386 215.994703 
L 31.283813 215.895858 
L 41.923721 215.479917 
L 45.115693 215.356484 
L 51.499638 214.862741 
L 63.203536 214.474574 
L 65.331517 214.185344 
L 67.459499 213.734485 
L 70.651471 212.799349 
L 75.971425 211.248818 
L 85.547342 208.643541 
L 88.739314 207.954135 
L 90.867295 207.306304 
L 92.995277 206.362959 
L 95.123258 205.02383 
L 97.25124 203.263642 
L 99.379221 201.150337 
L 101.507203 198.754351 
L 103.635184 196.021849 
L 105.763166 192.759674 
L 107.891147 188.750884 
L 110.019129 183.856987 
L 112.14711 178.042777 
L 114.275092 171.441655 
L 121.723027 147.429705 
L 127.042981 130.888451 
L 129.170962 125.066961 
L 131.298944 120.0581 
L 136.618897 108.568833 
L 140.87486 98.603948 
L 141.938851 96.536823 
L 143.002842 94.860305 
L 144.066833 93.628148 
L 145.130823 92.838175 
L 146.194814 92.440644 
L 147.258805 92.361021 
L 148.322796 92.528669 
L 149.386786 92.901214 
L 150.450777 93.476785 
L 151.514768 94.291576 
L 152.578759 95.405672 
L 153.642749 96.883762 
L 154.70674 98.777974 
L 155.770731 101.117717 
L 156.834722 103.907469 
L 157.898712 107.129779 
L 160.026694 114.714906 
L 162.154675 123.40725 
L 169.602611 154.902138 
L 172.794583 167.304094 
L 174.922564 174.645049 
L 177.050546 181.150697 
L 179.178527 187.042942 
L 182.370499 195.113827 
L 184.498481 199.98629 
L 186.626462 204.341331 
L 188.754444 208.024499 
L 189.818435 209.559353 
L 190.882425 210.868308 
L 191.946416 211.947734 
L 193.010407 212.806931 
L 194.074398 213.46755 
L 195.138388 213.960592 
L 197.26637 214.588143 
L 200.458342 215.108029 
L 205.778296 215.735575 
L 210.034259 215.9574 
L 216.418203 215.978904 
L 230.250083 215.926567 
L 237.698018 215.998234 
L 237.698018 215.998234 
" style="fill:none;stroke:#ffa77c;stroke-linecap:round;stroke-width:1.2;"/>
   </g>
   <g id="line2d_7">
    <path clip-path="url(#p9be7dff1d1)" d="M 11.735835 215.997038 
L 17.922759 215.890694 
L 23.078529 215.732209 
L 34.421223 215.790625 
L 44.732763 215.389737 
L 52.981994 215.536449 
L 55.044302 215.297837 
L 62.26238 214.188025 
L 65.355842 213.751777 
L 74.636228 211.869892 
L 76.698536 211.300071 
L 78.760844 210.56538 
L 81.854306 209.170674 
L 84.947768 207.525434 
L 87.010076 206.270611 
L 89.072384 204.824904 
L 91.134692 203.174603 
L 93.197 201.320749 
L 95.259308 199.153135 
L 97.321616 196.456748 
L 99.383924 193.132422 
L 102.477386 187.338632 
L 108.66431 175.131211 
L 110.726618 170.454911 
L 112.788926 164.872368 
L 115.882387 155.198802 
L 118.975849 145.795451 
L 125.162773 128.569301 
L 127.225081 123.147102 
L 129.287389 118.455197 
L 131.349697 114.565551 
L 133.412005 111.363836 
L 135.474313 108.796523 
L 137.536621 106.762458 
L 142.692391 102.229548 
L 143.723545 101.542206 
L 144.754699 101.113386 
L 145.785853 101.008043 
L 146.817007 101.245315 
L 147.848161 101.796621 
L 148.879315 102.598876 
L 150.941623 104.67159 
L 153.003931 107.130334 
L 154.035085 108.550019 
L 155.066239 110.173151 
L 156.097393 112.058497 
L 157.128547 114.24326 
L 159.190855 119.502284 
L 161.253163 125.725738 
L 163.315471 132.75726 
L 165.377779 140.790964 
L 167.440087 149.90416 
L 171.564703 168.873526 
L 173.627011 177.364647 
L 175.689319 184.938469 
L 177.751626 191.634351 
L 179.813934 197.450685 
L 181.876242 202.391304 
L 183.93855 206.497867 
L 186.000858 209.777825 
L 187.032012 211.096432 
L 188.063166 212.200981 
L 189.09432 213.103079 
L 190.125474 213.823763 
L 191.156628 214.38978 
L 193.218936 215.165243 
L 195.281244 215.606412 
L 197.343552 215.82578 
L 200.437014 215.897464 
L 208.686246 215.881634 
L 215.904324 215.996711 
L 216.935478 215.998545 
L 216.935478 215.998545 
" style="fill:none;stroke:#9bb9ff;stroke-linecap:round;stroke-width:1.2;"/>
   </g>
   <g id="line2d_8">
    <path clip-path="url(#p9be7dff1d1)" d="M 45.992855 215.981884 
L 49.171392 215.856184 
L 51.290418 215.597501 
L 54.468955 214.886591 
L 56.587981 214.446212 
L 58.707006 214.318589 
L 64.004569 214.525402 
L 66.123594 214.155464 
L 69.302132 213.477384 
L 78.837745 211.968622 
L 86.254333 210.611332 
L 88.373359 209.999704 
L 91.551896 208.794973 
L 93.670922 207.798317 
L 95.789947 206.567143 
L 97.908972 204.918539 
L 100.027997 202.687583 
L 102.147022 199.925857 
L 112.742148 184.83664 
L 114.861174 181.399405 
L 116.980199 177.340765 
L 119.099224 172.388066 
L 121.218249 166.398658 
L 123.337274 159.450774 
L 129.69435 136.885901 
L 131.813375 129.000108 
L 134.991913 116.183848 
L 138.170451 103.198924 
L 140.289476 95.300829 
L 142.408501 88.614283 
L 143.468014 85.830609 
L 144.527526 83.450316 
L 145.587039 81.502057 
L 146.646551 80.036501 
L 147.706064 79.127547 
L 148.765577 78.857077 
L 149.825089 79.289351 
L 150.884602 80.447922 
L 151.944114 82.307278 
L 153.003627 84.803494 
L 154.06314 87.857628 
L 155.122652 91.398934 
L 157.241677 99.749989 
L 159.360703 109.49274 
L 163.598753 130.015384 
L 165.717778 138.899766 
L 167.836803 146.61969 
L 174.193879 168.118524 
L 176.312904 174.422982 
L 178.431929 179.773933 
L 180.550955 184.285319 
L 182.66998 188.219123 
L 186.90803 195.363758 
L 190.086568 200.410543 
L 192.205593 203.46743 
L 194.324618 206.184122 
L 196.443644 208.549914 
L 198.562669 210.565141 
L 200.681694 212.202819 
L 202.800719 213.426185 
L 204.919744 214.238537 
L 207.03877 214.715591 
L 210.217307 215.095259 
L 217.633896 215.744679 
L 222.931459 215.864383 
L 236.705122 215.984281 
L 250.478786 215.953418 
L 256.835862 215.998607 
L 256.835862 215.998607 
" style="fill:none;stroke:#366ef0;stroke-linecap:round;stroke-width:1.2;"/>
   </g>
   <g id="patch_4">
    <path d="M 72 216 
L 72 72 
" style="fill:none;stroke:#262626;stroke-linecap:square;stroke-linejoin:miter;"/>
   </g>
   <g id="patch_5">
    <path d="M 216 216 
L 216 72 
" style="fill:none;stroke:#262626;stroke-linecap:square;stroke-linejoin:miter;"/>
   </g>
   <g id="patch_6">
    <path d="M 72 216 
L 216 216 
" style="fill:none;stroke:#262626;stroke-linecap:square;stroke-linejoin:miter;"/>
   </g>
   <g id="patch_7">
    <path d="M 72 72 
L 216 72 
" style="fill:none;stroke:#262626;stroke-linecap:square;stroke-linejoin:miter;"/>
   </g>
   <g id="legend_1">
    <g id="patch_8">
     <path d="M 78.16 142.128 
L 124.9145 142.128 
Q 126.6745 142.128 126.6745 140.368 
L 126.6745 78.16 
Q 126.6745 76.4 124.9145 76.4 
L 78.16 76.4 
Q 76.4 76.4 76.4 78.16 
L 76.4 140.368 
Q 76.4 142.128 78.16 142.128 
z
" style="fill:#ffffff;opacity:0.8;stroke:#cccccc;stroke-linejoin:miter;stroke-width:0.8;"/>
    </g>
    <g id="text_2">
     <text style="fill:#262626;font-family:Arial;font-size:9.6px;font-stretch:normal;font-style:normal;font-weight:normal;text-anchor:start;" transform="rotate(-0, 79.92, 86.9085)" x="79.92" y="86.9085">Sequence</text>
    </g>
    <g id="line2d_9">
     <path d="M 85.794875 96.435375 
L 103.394875 96.435375 
" style="fill:none;stroke:#366ef0;stroke-linecap:round;stroke-width:1.2;"/>
    </g>
    <g id="line2d_10"/>
    <g id="text_3">
     <text style="fill:#262626;font-family:Arial;font-size:8.8px;font-stretch:normal;font-style:normal;font-weight:normal;text-anchor:start;" transform="rotate(-0, 110.434875, 99.515375)" x="110.434875" y="99.515375">A</text>
    </g>
    <g id="line2d_11">
     <path d="M 85.794875 108.88325 
L 103.394875 108.88325 
" style="fill:none;stroke:#9bb9ff;stroke-linecap:round;stroke-width:1.2;"/>
    </g>
    <g id="line2d_12"/>
    <g id="text_4">
     <text style="fill:#262626;font-family:Arial;font-size:8.8px;font-stretch:normal;font-style:normal;font-weight:normal;text-anchor:start;" transform="rotate(-0, 110.434875, 111.96325)" x="110.434875" y="111.96325">U</text>
    </g>
    <g id="line2d_13">
     <path d="M 85.794875 121.331125 
L 103.394875 121.331125 
" style="fill:none;stroke:#ffa77c;stroke-linecap:round;stroke-width:1.2;"/>
    </g>
    <g id="line2d_14"/>
    <g id="text_5">
     <text style="fill:#262626;font-family:Arial;font-size:8.8px;font-stretch:normal;font-style:normal;font-weight:normal;text-anchor:start;" transform="rotate(-0, 110.434875, 124.411125)" x="110.434875" y="124.411125">C</text>
    </g>
    <g id="line2d_15">
     <path d="M 85.794875 133.779 
L 103.394875 133.779 
" style="fill:none;stroke:#f04c4c;stroke-linecap:round;stroke-width:1.2;"/>
    </g>
    <g id="line2d_16"/>
    <g id="text_6">
     <text style="fill:#262626;font-family:Arial;font-size:8.8px;font-stretch:normal;font-style:normal;font-weight:normal;text-anchor:start;" transform="rotate(-0, 110.434875, 136.859)" x="110.434875" y="136.859">G</text>
    </g>
   </g>
  </g>
  <g id="axes_2">
   <g id="patch_9">
    <path d="M 72 374.4 
L 216 374.4 
L 216 230.4 
L 72 230.4 
z
" style="fill:#ffffff;"/>
   </g>
   <g id="matplotlib.axis_3">
    <g id="xtick_5">
     <g id="line2d_17">
      <g>
       <use style="fill:#262626;stroke:#262626;" x="90" xlink:href="#m029919cc4d" y="374.4"/>
      </g>
     </g>
     <g id="text_7">
      <text style="fill:#262626;font-family:Arial;font-size:8.8px;font-stretch:normal;font-style:normal;font-weight:normal;text-anchor:middle;" transform="rotate(-0, 90, 388.998875)" x="90" y="388.998875">0.01</text>
     </g>
    </g>
    <g id="xtick_6">
     <g id="line2d_18">
      <g>
       <use style="fill:#262626;stroke:#262626;" x="126" xlink:href="#m029919cc4d" y="374.4"/>
      </g>
     </g>
     <g id="text_8">
      <text style="fill:#262626;font-family:Arial;font-size:8.8px;font-stretch:normal;font-style:normal;font-weight:normal;text-anchor:middle;" transform="rotate(-0, 126, 388.998875)" x="126" y="388.998875">0.1</text>
     </g>
    </g>
    <g id="xtick_7">
     <g id="line2d_19">
      <g>
       <use style="fill:#262626;stroke:#262626;" x="162" xlink:href="#m029919cc4d" y="374.4"/>
      </g>
     </g>
     <g id="text_9">
      <text style="fill:#262626;font-family:Arial;font-size:8.8px;font-stretch:normal;font-style:normal;font-weight:normal;text-anchor:middle;" transform="rotate(-0, 162, 388.998875)" x="162" y="388.998875">1</text>
     </g>
    </g>
    <g id="xtick_8">
     <g id="line2d_20">
      <g>
       <use style="fill:#262626;stroke:#262626;" x="198" xlink:href="#m029919cc4d" y="374.4"/>
      </g>
     </g>
     <g id="text_10">
      <text style="fill:#262626;font-family:Arial;font-size:8.8px;font-stretch:normal;font-style:normal;font-weight:normal;text-anchor:middle;" transform="rotate(-0, 198, 388.998875)" x="198" y="388.998875">10</text>
     </g>
    </g>
    <g id="text_11">
     <text style="fill:#262626;font-family:Arial;font-size:9.6px;font-stretch:normal;font-style:normal;font-weight:normal;text-anchor:middle;" transform="rotate(-0, 144, 401.736375)" x="144" y="401.736375">Normalized profile (log scale)</text>
    </g>
   </g>
   <g id="matplotlib.axis_4">
    <g id="text_12">
     <text style="fill:#262626;font-family:Arial;font-size:9.6px;font-stretch:normal;font-style:normal;font-weight:normal;text-anchor:middle;" transform="rotate(-90, 66.092, 302.4)" x="66.092" y="302.4">Manfredonia et al.</text>
    </g>
   </g>
   <g id="patch_10">
    <path clip-path="url(#p53a0465761)" d="M 126 374.4 
L 126 230.4 
L 162 230.4 
L 162 374.4 
z
" style="fill:#d3d3d3;opacity:0.4;"/>
   </g>
   <g id="line2d_21">
    <path clip-path="url(#p53a0465761)" d="M 47.367688 374.385332 
L 50.59039 374.244166 
L 53.007417 373.881823 
L 57.035796 373.102265 
L 58.647147 373.107902 
L 61.064174 373.470443 
L 62.675525 373.678288 
L 64.286877 373.689206 
L 69.926606 373.297664 
L 73.954984 373.453368 
L 75.566336 373.247838 
L 77.983363 372.644947 
L 84.428768 370.667396 
L 86.845795 369.569756 
L 90.068498 368.021549 
L 91.679849 367.490856 
L 94.096876 366.842947 
L 95.708227 366.077357 
L 97.319579 364.800345 
L 105.376335 356.71337 
L 106.987686 354.282142 
L 108.599038 351.233335 
L 111.016065 345.94648 
L 113.433092 340.157262 
L 115.044443 335.785658 
L 116.655794 330.586666 
L 118.267146 324.332614 
L 121.489848 309.96067 
L 123.906875 299.743398 
L 127.129578 287.434178 
L 133.574983 262.956696 
L 136.797686 250.95629 
L 138.409037 245.750983 
L 140.020389 241.545865 
L 140.826064 239.910296 
L 141.63174 238.63158 
L 142.437415 237.745257 
L 143.243091 237.284195 
L 144.048767 237.269691 
L 144.854442 237.701316 
L 145.660118 238.550965 
L 146.465794 239.76549 
L 147.271469 241.278797 
L 148.882821 244.980599 
L 150.494172 249.48758 
L 152.105523 255.021225 
L 153.716875 261.701163 
L 158.550929 283.248021 
L 161.773631 296.766298 
L 165.80201 314.1613 
L 167.413361 320.065823 
L 169.830388 327.736018 
L 172.247415 334.565744 
L 174.664442 340.733585 
L 178.69282 350.843351 
L 182.721198 361.344665 
L 184.33255 364.734081 
L 185.943901 367.352751 
L 187.555252 369.317601 
L 189.166604 370.841668 
L 190.777955 372.052232 
L 192.389306 372.958656 
L 194.000658 373.552533 
L 195.612009 373.889372 
L 198.029036 374.133568 
L 202.86309 374.353919 
L 207.697144 374.398402 
L 207.697144 374.398402 
" style="fill:none;stroke:#f04c4c;stroke-linecap:round;stroke-width:1.2;"/>
   </g>
   <g id="line2d_22">
    <path clip-path="url(#p53a0465761)" d="M 51.437339 374.381003 
L 54.65176 374.198846 
L 56.258971 373.927096 
L 61.080604 372.722936 
L 62.687814 372.732728 
L 64.295025 373.038006 
L 66.705842 373.579519 
L 68.313052 373.707889 
L 69.920263 373.613662 
L 73.93829 373.029212 
L 77.152712 372.405382 
L 80.367134 371.768938 
L 85.188766 370.955293 
L 86.795977 370.485668 
L 88.403188 369.785977 
L 90.010399 368.792505 
L 91.617609 367.531651 
L 98.850058 361.415845 
L 102.06448 358.756935 
L 103.671691 357.167109 
L 105.278901 355.132855 
L 106.886112 352.507382 
L 109.296928 347.728084 
L 114.118561 337.575563 
L 115.725772 333.493585 
L 117.332983 328.721009 
L 119.743799 320.565059 
L 122.95822 308.723362 
L 125.369037 299.155642 
L 126.976247 292.140181 
L 128.583458 284.354123 
L 133.405091 259.404157 
L 135.012302 252.856021 
L 136.619512 247.635469 
L 138.226723 243.49022 
L 139.833934 240.337002 
L 140.637539 239.164663 
L 141.441145 238.276875 
L 142.24475 237.670802 
L 143.048356 237.334729 
L 143.851961 237.257077 
L 144.655567 237.435637 
L 145.459172 237.881459 
L 146.262777 238.614674 
L 147.066383 239.65395 
L 147.869988 241.004867 
L 148.673594 242.653306 
L 150.280804 246.708538 
L 151.888015 251.554491 
L 153.495226 257.125121 
L 155.102437 263.49111 
L 157.513253 274.197032 
L 168.763729 325.41876 
L 170.37094 331.677709 
L 171.978151 337.261974 
L 175.192572 347.22011 
L 178.406994 356.815438 
L 180.014205 360.99272 
L 181.621415 364.315217 
L 183.228626 366.734874 
L 184.835837 368.469422 
L 186.443048 369.82837 
L 188.853864 371.559648 
L 190.461075 372.509121 
L 192.068286 373.213942 
L 193.675497 373.65585 
L 195.282707 373.88527 
L 198.497129 374.033105 
L 211.354816 374.398283 
L 211.354816 374.398283 
" style="fill:none;stroke:#ffa77c;stroke-linecap:round;stroke-width:1.2;"/>
   </g>
   <g id="line2d_23">
    <path clip-path="url(#p53a0465761)" d="M 42.774324 374.390255 
L 46.022192 374.278761 
L 48.458093 373.989071 
L 51.705961 373.542558 
L 53.329895 373.55001 
L 58.201697 373.969839 
L 60.637598 373.720274 
L 63.073499 373.414928 
L 68.757268 372.999203 
L 75.253004 371.79041 
L 79.312839 371.423618 
L 81.74874 371.019278 
L 83.372674 370.591896 
L 84.996608 369.910183 
L 86.620542 368.965329 
L 91.492344 365.818261 
L 93.928245 364.637215 
L 96.364146 363.421251 
L 97.98808 362.29894 
L 99.612014 360.813217 
L 101.235948 358.952198 
L 102.859882 356.729303 
L 104.483816 354.157884 
L 106.919717 349.75281 
L 110.167586 343.31267 
L 112.603487 337.903049 
L 114.227421 333.758895 
L 115.851355 329.068905 
L 117.475289 323.719848 
L 119.099223 317.639339 
L 122.347091 304.101222 
L 125.594959 290.856479 
L 129.654794 274.965568 
L 131.278728 269.412491 
L 132.902662 264.60915 
L 138.586431 248.976091 
L 139.398398 247.392053 
L 140.210365 246.226804 
L 141.022332 245.49213 
L 141.834299 245.155858 
L 142.646266 245.156862 
L 143.458233 245.423075 
L 144.2702 245.887677 
L 145.894134 247.236148 
L 147.518068 249.083579 
L 148.330035 250.241771 
L 149.953969 253.158616 
L 151.577903 256.896788 
L 153.201837 261.255087 
L 154.825771 266.05083 
L 156.449705 271.430416 
L 158.073639 277.710189 
L 160.50954 288.654214 
L 162.945441 299.758716 
L 165.381342 309.856547 
L 174.312979 344.976978 
L 175.936913 350.682447 
L 177.560847 355.64851 
L 179.184781 359.728031 
L 180.808715 362.916255 
L 182.432649 365.361528 
L 184.056583 367.29988 
L 185.680517 368.936894 
L 187.304451 370.356295 
L 188.928385 371.531737 
L 190.552319 372.424825 
L 192.176253 373.061795 
L 194.612154 373.700466 
L 197.048055 374.10371 
L 199.483956 374.311862 
L 203.543791 374.395737 
L 204.355758 374.398031 
L 204.355758 374.398031 
" style="fill:none;stroke:#9bb9ff;stroke-linecap:round;stroke-width:1.2;"/>
   </g>
   <g id="line2d_24">
    <path clip-path="url(#p53a0465761)" d="M 38.968981 374.390978 
L 42.216931 374.291246 
L 44.652893 374.032444 
L 47.900843 373.614466 
L 49.524818 373.602635 
L 55.208731 373.951139 
L 58.456681 373.553633 
L 61.704631 373.288479 
L 66.576556 372.875137 
L 75.508418 372.133202 
L 77.944381 371.736769 
L 79.568356 371.295008 
L 81.192331 370.633245 
L 87.688231 367.507374 
L 90.936181 366.202432 
L 93.372143 364.937827 
L 94.996118 363.88637 
L 96.620093 362.618586 
L 98.244068 361.11353 
L 99.868043 359.362803 
L 101.492018 357.286435 
L 103.115993 354.686628 
L 104.739968 351.400943 
L 107.175931 345.572931 
L 109.611893 339.914922 
L 112.859843 332.687708 
L 114.483818 328.406309 
L 116.107793 323.458205 
L 117.731768 317.922899 
L 120.16773 308.712319 
L 125.851643 285.73392 
L 127.475618 280.785462 
L 129.099593 277.0733 
L 132.347543 270.764102 
L 133.971518 266.788931 
L 138.031455 255.701595 
L 139.65543 252.117161 
L 141.279405 249.261772 
L 142.091393 248.105318 
L 142.90338 247.151803 
L 143.715368 246.441032 
L 144.527355 246.028866 
L 145.339343 245.978615 
L 146.15133 246.347961 
L 146.963318 247.173746 
L 147.775305 248.45851 
L 148.587293 250.163459 
L 150.211268 254.501167 
L 155.89518 271.167695 
L 158.331143 278.087923 
L 159.955118 283.427428 
L 161.579093 289.971008 
L 163.203068 297.825117 
L 169.698968 331.610241 
L 171.322942 338.506043 
L 172.946917 344.607592 
L 174.570892 349.979948 
L 176.194867 354.644426 
L 177.818842 358.595245 
L 179.442817 361.893681 
L 181.066792 364.700007 
L 182.690767 367.166725 
L 184.314742 369.316194 
L 185.938717 371.061421 
L 187.562692 372.338924 
L 189.186667 373.190122 
L 190.810642 373.725305 
L 192.434617 374.050526 
L 194.87058 374.295105 
L 198.930517 374.393857 
L 200.554492 374.398607 
L 200.554492 374.398607 
" style="fill:none;stroke:#366ef0;stroke-linecap:round;stroke-width:1.2;"/>
   </g>
   <g id="patch_11">
    <path d="M 72 374.4 
L 72 230.4 
" style="fill:none;stroke:#262626;stroke-linecap:square;stroke-linejoin:miter;"/>
   </g>
   <g id="patch_12">
    <path d="M 216 374.4 
L 216 230.4 
" style="fill:none;stroke:#262626;stroke-linecap:square;stroke-linejoin:miter;"/>
   </g>
   <g id="patch_13">
    <path d="M 72 374.4 
L 216 374.4 
" style="fill:none;stroke:#262626;stroke-linecap:square;stroke-linejoin:miter;"/>
   </g>
   <g id="patch_14">
    <path d="M 72 230.4 
L 216 230.4 
" style="fill:none;stroke:#262626;stroke-linecap:square;stroke-linejoin:miter;"/>
   </g>
   <g id="legend_2">
    <g id="patch_15">
     <path d="M 163.0855 300.528 
L 209.84 300.528 
Q 211.6 300.528 211.6 298.768 
L 211.6 236.56 
Q 211.6 234.8 209.84 234.8 
L 163.0855 234.8 
Q 161.3255 234.8 161.3255 236.56 
L 161.3255 298.768 
Q 161.3255 300.528 163.0855 300.528 
z
" style="fill:#ffffff;opacity:0.8;stroke:#cccccc;stroke-linejoin:miter;stroke-width:0.8;"/>
    </g>
    <g id="text_13">
     <text style="fill:#262626;font-family:Arial;font-size:9.6px;font-stretch:normal;font-style:normal;font-weight:normal;text-anchor:start;" transform="rotate(-0, 164.8455, 245.3085)" x="164.8455" y="245.3085">Sequence</text>
    </g>
    <g id="line2d_25">
     <path d="M 170.720375 254.835375 
L 188.320375 254.835375 
" style="fill:none;stroke:#366ef0;stroke-linecap:round;stroke-width:1.2;"/>
    </g>
    <g id="line2d_26"/>
    <g id="text_14">
     <text style="fill:#262626;font-family:Arial;font-size:8.8px;font-stretch:normal;font-style:normal;font-weight:normal;text-anchor:start;" transform="rotate(-0, 195.360375, 257.915375)" x="195.360375" y="257.915375">A</text>
    </g>
    <g id="line2d_27">
     <path d="M 170.720375 267.28325 
L 188.320375 267.28325 
" style="fill:none;stroke:#9bb9ff;stroke-linecap:round;stroke-width:1.2;"/>
    </g>
    <g id="line2d_28"/>
    <g id="text_15">
     <text style="fill:#262626;font-family:Arial;font-size:8.8px;font-stretch:normal;font-style:normal;font-weight:normal;text-anchor:start;" transform="rotate(-0, 195.360375, 270.36325)" x="195.360375" y="270.36325">U</text>
    </g>
    <g id="line2d_29">
     <path d="M 170.720375 279.731125 
L 188.320375 279.731125 
" style="fill:none;stroke:#ffa77c;stroke-linecap:round;stroke-width:1.2;"/>
    </g>
    <g id="line2d_30"/>
    <g id="text_16">
     <text style="fill:#262626;font-family:Arial;font-size:8.8px;font-stretch:normal;font-style:normal;font-weight:normal;text-anchor:start;" transform="rotate(-0, 195.360375, 282.811125)" x="195.360375" y="282.811125">C</text>
    </g>
    <g id="line2d_31">
     <path d="M 170.720375 292.179 
L 188.320375 292.179 
" style="fill:none;stroke:#f04c4c;stroke-linecap:round;stroke-width:1.2;"/>
    </g>
    <g id="line2d_32"/>
    <g id="text_17">
     <text style="fill:#262626;font-family:Arial;font-size:8.8px;font-stretch:normal;font-style:normal;font-weight:normal;text-anchor:start;" transform="rotate(-0, 195.360375, 295.259)" x="195.360375" y="295.259">G</text>
    </g>
   </g>
  </g>
 </g>
 <defs>
  <clipPath id="p9be7dff1d1">
   <rect height="144" width="144" x="72" y="72"/>
  </clipPath>
  <clipPath id="p53a0465761">
   <rect height="144" width="144" x="72" y="230.4"/>
  </clipPath>
 </defs>
</svg>
