<?xml version="1.0" encoding="utf-8" standalone="no"?>
<!DOCTYPE svg PUBLIC "-//W3C//DTD SVG 1.1//EN"
  "http://www.w3.org/Graphics/SVG/1.1/DTD/svg11.dtd">
<!-- Created with matplotlib (https://matplotlib.org/) -->
<svg height="288pt" version="1.1" viewBox="0 0 432 288" width="432pt" xmlns="http://www.w3.org/2000/svg" xmlns:xlink="http://www.w3.org/1999/xlink">
 <metadata>
  <rdf:RDF xmlns:cc="http://creativecommons.org/ns#" xmlns:dc="http://purl.org/dc/elements/1.1/" xmlns:rdf="http://www.w3.org/1999/02/22-rdf-syntax-ns#">
   <cc:Work>
    <dc:type rdf:resource="http://purl.org/dc/dcmitype/StillImage"/>
    <dc:date>2023-11-06T09:10:15.142014</dc:date>
    <dc:format>image/svg+xml</dc:format>
    <dc:creator>
     <cc:Agent>
      <dc:title>Matplotlib v3.3.4, https://matplotlib.org/</dc:title>
     </cc:Agent>
    </dc:creator>
   </cc:Work>
  </rdf:RDF>
 </metadata>
 <defs>
  <style type="text/css">*{stroke-linecap:butt;stroke-linejoin:round;}</style>
 </defs>
 <g id="figure_1">
  <g id="patch_1">
   <path d="M 0 288 
L 432 288 
L 432 0 
L 0 0 
z
" style="fill:#ffffff;"/>
  </g>
  <g id="axes_1">
   <g id="matplotlib.axis_1"/>
   <g id="matplotlib.axis_2"/>
   <g id="patch_2">
    <path d="M 221.4 56.304 
C 204.809129 56.304 188.559584 61.05112 174.577926 69.982538 
C 160.596267 78.913956 149.457788 91.662176 142.483075 106.715761 
L 221.4 143.28 
L 221.4 56.304 
z
" style="fill:#ff964f;stroke:#ffffff;stroke-linejoin:miter;stroke-width:0.8;"/>
   </g>
   <g id="patch_3">
    <path d="M 142.483075 106.715761 
C 137.051164 118.439503 134.29938 131.227683 134.428332 144.148023 
C 134.557283 157.068362 137.563759 169.799072 143.228584 181.412063 
L 221.4 143.28 
L 142.483075 106.715761 
z
" style="fill:#b2f396;stroke:#ffffff;stroke-linejoin:miter;stroke-width:0.8;"/>
   </g>
   <g id="patch_4">
    <path d="M 143.228584 181.412063 
C 148.569963 192.361987 156.152955 202.068425 165.484914 209.900775 
C 174.816873 217.733126 185.691233 223.518019 197.401518 226.879626 
C 209.111803 230.241232 221.398803 231.105143 233.464264 229.415231 
C 245.529726 227.72532 257.106579 223.518993 267.442706 217.069524 
L 221.4 143.28 
L 143.228584 181.412063 
z
" style="fill:#4df3ce;stroke:#ffffff;stroke-linejoin:miter;stroke-width:0.8;"/>
   </g>
   <g id="patch_5">
    <path d="M 267.442706 217.069524 
C 283.467176 207.07068 295.806603 192.118945 302.584017 174.488653 
C 309.36143 156.858361 310.214834 137.491184 305.014415 119.333096 
C 299.813996 101.175008 288.837519 85.195871 273.754636 73.826299 
C 258.671753 62.456727 240.288073 56.303993 221.399967 56.304 
L 221.4 143.28 
L 267.442706 217.069524 
z
" style="fill:#1a96f3;stroke:#ffffff;stroke-linejoin:miter;stroke-width:0.8;"/>
   </g>
   <g id="text_1">
    <text style="fill:#262626;font-family:Arial;font-size:8.8px;font-stretch:normal;font-style:normal;font-weight:normal;text-anchor:end;" transform="rotate(-0, 169.895718, 64.927729)" x="169.895718" y="64.927729">No other studies</text>
   </g>
   <g id="text_2">
    <text style="fill:#262626;font-family:Arial;font-size:9.6px;font-stretch:normal;font-style:normal;font-weight:normal;text-anchor:middle;" transform="rotate(-0, 193.306755, 101.783273)" x="193.306755" y="101.783273">18.1%</text>
   </g>
   <g id="text_3">
    <text style="fill:#262626;font-family:Arial;font-size:8.8px;font-stretch:normal;font-style:normal;font-weight:normal;text-anchor:end;" transform="rotate(-0, 125.731165, 146.471262)" x="125.731165" y="146.471262">1 other study</text>
   </g>
   <g id="text_4">
    <text style="fill:#262626;font-family:Arial;font-size:9.6px;font-stretch:normal;font-style:normal;font-weight:normal;text-anchor:middle;" transform="rotate(-0, 169.216999, 146.282564)" x="169.216999" y="146.282564">14.1%</text>
   </g>
   <g id="text_5">
    <text style="fill:#262626;font-family:Arial;font-size:8.8px;font-stretch:normal;font-style:normal;font-weight:normal;text-anchor:end;" transform="rotate(-0, 195.00167, 237.514526)" x="195.00167" y="237.514526">2 other studies</text>
   </g>
   <g id="text_6">
    <text style="fill:#262626;font-family:Arial;font-size:9.6px;font-stretch:normal;font-style:normal;font-weight:normal;text-anchor:middle;" transform="rotate(-0, 207.000911, 195.921525)" x="207.000911" y="195.921525">26.7%</text>
   </g>
   <g id="text_7">
    <text style="fill:#262626;font-family:Arial;font-size:8.8px;font-stretch:normal;font-style:normal;font-weight:normal;text-anchor:start;" transform="rotate(-0, 313.375856, 119.213343)" x="313.375856" y="119.213343">3 other studies</text>
   </g>
   <g id="text_8">
    <text style="fill:#262626;font-family:Arial;font-size:9.6px;font-stretch:normal;font-style:normal;font-weight:normal;text-anchor:middle;" transform="rotate(-0, 271.568649, 131.393607)" x="271.568649" y="131.393607">41.1%</text>
   </g>
   <g id="text_9">
    <text style="fill:#262626;font-family:Arial;font-size:9.6px;font-stretch:normal;font-style:normal;font-weight:normal;text-anchor:middle;" transform="rotate(-0, 221.4, 28.56)" x="221.4" y="28.56">Percent that appear in other studies</text>
   </g>
  </g>
 </g>
</svg>
