<?xml version="1.0" encoding="utf-8" standalone="no"?>
<!DOCTYPE svg PUBLIC "-//W3C//DTD SVG 1.1//EN"
  "http://www.w3.org/Graphics/SVG/1.1/DTD/svg11.dtd">
<!-- Created with matplotlib (https://matplotlib.org/) -->
<svg height="252pt" version="1.1" viewBox="0 0 216 252" width="216pt" xmlns="http://www.w3.org/2000/svg" xmlns:xlink="http://www.w3.org/1999/xlink">
 <metadata>
  <rdf:RDF xmlns:cc="http://creativecommons.org/ns#" xmlns:dc="http://purl.org/dc/elements/1.1/" xmlns:rdf="http://www.w3.org/1999/02/22-rdf-syntax-ns#">
   <cc:Work>
    <dc:type rdf:resource="http://purl.org/dc/dcmitype/StillImage"/>
    <dc:date>2023-11-13T12:07:21.138362</dc:date>
    <dc:format>image/svg+xml</dc:format>
    <dc:creator>
     <cc:Agent>
      <dc:title>Matplotlib v3.3.4, https://matplotlib.org/</dc:title>
     </cc:Agent>
    </dc:creator>
   </cc:Work>
  </rdf:RDF>
 </metadata>
 <defs>
  <style type="text/css">*{stroke-linecap:butt;stroke-linejoin:round;}</style>
 </defs>
 <g id="figure_1">
  <g id="patch_1">
   <path d="M 0 252 
L 216 252 
L 216 0 
L 0 0 
z
" style="fill:#ffffff;"/>
  </g>
  <g id="axes_1">
   <g id="patch_2">
    <path d="M 36 216 
L 180 216 
L 180 72 
L 36 72 
z
" style="fill:#ffffff;"/>
   </g>
   <g id="matplotlib.axis_1">
    <g id="xtick_1">
     <g id="line2d_1">
      <defs>
       <path d="M 0 0 
L 0 4.8 
" id="m6a6c18fd6f" style="stroke:#262626;"/>
      </defs>
      <g>
       <use style="fill:#262626;stroke:#262626;" x="42.545455" xlink:href="#m6a6c18fd6f" y="216"/>
      </g>
     </g>
     <g id="text_1">
      <text style="fill:#262626;font-family:Arial;font-size:8.8px;font-stretch:normal;font-style:normal;font-weight:normal;text-anchor:middle;" transform="rotate(-0, 42.545455, 230.598875)" x="42.545455" y="230.598875">0.0</text>
     </g>
    </g>
    <g id="xtick_2">
     <g id="line2d_2">
      <g>
       <use style="fill:#262626;stroke:#262626;" x="68.727273" xlink:href="#m6a6c18fd6f" y="216"/>
      </g>
     </g>
     <g id="text_2">
      <text style="fill:#262626;font-family:Arial;font-size:8.8px;font-stretch:normal;font-style:normal;font-weight:normal;text-anchor:middle;" transform="rotate(-0, 68.727273, 230.598875)" x="68.727273" y="230.598875">0.4</text>
     </g>
    </g>
    <g id="xtick_3">
     <g id="line2d_3">
      <g>
       <use style="fill:#262626;stroke:#262626;" x="94.909091" xlink:href="#m6a6c18fd6f" y="216"/>
      </g>
     </g>
     <g id="text_3">
      <text style="fill:#262626;font-family:Arial;font-size:8.8px;font-stretch:normal;font-style:normal;font-weight:normal;text-anchor:middle;" transform="rotate(-0, 94.909091, 230.598875)" x="94.909091" y="230.598875">0.8</text>
     </g>
    </g>
    <g id="xtick_4">
     <g id="line2d_4">
      <g>
       <use style="fill:#262626;stroke:#262626;" x="121.090909" xlink:href="#m6a6c18fd6f" y="216"/>
      </g>
     </g>
     <g id="text_4">
      <text style="fill:#262626;font-family:Arial;font-size:8.8px;font-stretch:normal;font-style:normal;font-weight:normal;text-anchor:middle;" transform="rotate(-0, 121.090909, 230.598875)" x="121.090909" y="230.598875">1.2</text>
     </g>
    </g>
    <g id="xtick_5">
     <g id="line2d_5">
      <g>
       <use style="fill:#262626;stroke:#262626;" x="147.272727" xlink:href="#m6a6c18fd6f" y="216"/>
      </g>
     </g>
     <g id="text_5">
      <text style="fill:#262626;font-family:Arial;font-size:8.8px;font-stretch:normal;font-style:normal;font-weight:normal;text-anchor:middle;" transform="rotate(-0, 147.272727, 230.598875)" x="147.272727" y="230.598875">1.6</text>
     </g>
    </g>
    <g id="xtick_6">
     <g id="line2d_6">
      <g>
       <use style="fill:#262626;stroke:#262626;" x="173.454545" xlink:href="#m6a6c18fd6f" y="216"/>
      </g>
     </g>
     <g id="text_6">
      <text style="fill:#262626;font-family:Arial;font-size:8.8px;font-stretch:normal;font-style:normal;font-weight:normal;text-anchor:middle;" transform="rotate(-0, 173.454545, 230.598875)" x="173.454545" y="230.598875">2.0</text>
     </g>
    </g>
   </g>
   <g id="matplotlib.axis_2">
    <g id="ytick_1">
     <g id="line2d_7">
      <defs>
       <path d="M 0 0 
L -4.8 0 
" id="m3d8e94f68d" style="stroke:#262626;"/>
      </defs>
      <g>
       <use style="fill:#262626;stroke:#262626;" x="36" xlink:href="#m3d8e94f68d" y="209.454545"/>
      </g>
     </g>
     <g id="text_7">
      <text style="fill:#262626;font-family:Arial;font-size:8.8px;font-stretch:normal;font-style:normal;font-weight:normal;text-anchor:end;" transform="rotate(-0, 27.7, 212.603983)" x="27.7" y="212.603983">0.0</text>
     </g>
    </g>
    <g id="ytick_2">
     <g id="line2d_8">
      <g>
       <use style="fill:#262626;stroke:#262626;" x="36" xlink:href="#m3d8e94f68d" y="183.272727"/>
      </g>
     </g>
     <g id="text_8">
      <text style="fill:#262626;font-family:Arial;font-size:8.8px;font-stretch:normal;font-style:normal;font-weight:normal;text-anchor:end;" transform="rotate(-0, 27.7, 186.422165)" x="27.7" y="186.422165">0.4</text>
     </g>
    </g>
    <g id="ytick_3">
     <g id="line2d_9">
      <g>
       <use style="fill:#262626;stroke:#262626;" x="36" xlink:href="#m3d8e94f68d" y="157.090909"/>
      </g>
     </g>
     <g id="text_9">
      <text style="fill:#262626;font-family:Arial;font-size:8.8px;font-stretch:normal;font-style:normal;font-weight:normal;text-anchor:end;" transform="rotate(-0, 27.7, 160.240347)" x="27.7" y="160.240347">0.8</text>
     </g>
    </g>
    <g id="ytick_4">
     <g id="line2d_10">
      <g>
       <use style="fill:#262626;stroke:#262626;" x="36" xlink:href="#m3d8e94f68d" y="130.909091"/>
      </g>
     </g>
     <g id="text_10">
      <text style="fill:#262626;font-family:Arial;font-size:8.8px;font-stretch:normal;font-style:normal;font-weight:normal;text-anchor:end;" transform="rotate(-0, 27.7, 134.058528)" x="27.7" y="134.058528">1.2</text>
     </g>
    </g>
    <g id="ytick_5">
     <g id="line2d_11">
      <g>
       <use style="fill:#262626;stroke:#262626;" x="36" xlink:href="#m3d8e94f68d" y="104.727273"/>
      </g>
     </g>
     <g id="text_11">
      <text style="fill:#262626;font-family:Arial;font-size:8.8px;font-stretch:normal;font-style:normal;font-weight:normal;text-anchor:end;" transform="rotate(-0, 27.7, 107.87671)" x="27.7" y="107.87671">1.6</text>
     </g>
    </g>
    <g id="ytick_6">
     <g id="line2d_12">
      <g>
       <use style="fill:#262626;stroke:#262626;" x="36" xlink:href="#m3d8e94f68d" y="78.545455"/>
      </g>
     </g>
     <g id="text_12">
      <text style="fill:#262626;font-family:Arial;font-size:8.8px;font-stretch:normal;font-style:normal;font-weight:normal;text-anchor:end;" transform="rotate(-0, 27.7, 81.694892)" x="27.7" y="81.694892">2.0</text>
     </g>
    </g>
   </g>
   <g id="PathCollection_1">
    <path clip-path="url(#p967abe68d7)" d="M 12.952382 258.880096 
L 18.305298 259.425084 
L 23.658213 259.376908 
L 29.011129 258.801889 
L 31.156592 258.369051 
L 34.364044 257.900496 
L 39.71696 256.690503 
L 44.235739 255.173442 
L 45.069875 254.948149 
L 50.422791 253.131367 
L 53.078195 251.977832 
L 55.775706 250.944521 
L 60.346778 248.782222 
L 61.128622 248.44074 
L 66.481537 245.811238 
L 66.923335 245.586613 
L 71.834453 243.164432 
L 73.338665 242.391003 
L 77.187368 240.433756 
L 79.627684 239.195394 
L 82.540284 237.71965 
L 86.058312 235.999784 
L 87.893199 235.103166 
L 92.8773 232.804175 
L 93.246115 232.634787 
L 98.59903 230.55476 
L 101.212509 229.608565 
L 103.951946 228.658236 
L 109.304861 226.970612 
L 111.332832 226.412955 
L 114.657777 225.554863 
L 120.010692 224.318747 
L 125.114913 223.217346 
L 125.363608 223.167228 
L 130.716523 222.21417 
L 136.069439 221.206399 
L 141.422354 220.056952 
L 141.569632 220.021736 
L 146.77527 218.853443 
L 152.128185 217.407368 
L 154.045779 216.826127 
L 157.481101 215.814034 
L 162.834016 214.052186 
L 164.071232 213.630517 
L 168.186932 212.227686 
L 173.200024 210.434907 
L 173.539847 210.310843 
L 178.892763 208.432608 
L 182.276958 207.239298 
L 184.245678 206.528203 
L 189.598594 204.628784 
L 191.238966 204.043688 
L 194.951509 202.692389 
L 199.812628 200.848079 
L 200.304425 200.655893 
L 205.65734 198.493302 
L 207.600115 197.652469 
L 211.010256 196.120815 
L 214.4614 194.45686 
L 216.363171 193.488954 
L 220.47959 191.26125 
L 221.716087 190.540369 
L 225.768424 188.06564 
L 227.069002 187.190132 
L 230.41914 184.870031 
L 232.421918 183.304243 
L 234.485615 181.674421 
L 237.774833 178.676435 
L 237.992937 178.478812 
L 240.99987 175.283202 
L 243.127749 172.512364 
L 243.465396 172.087593 
L 245.419436 168.891983 
L 246.808918 165.696373 
L 247.591316 162.500764 
L 247.701621 159.305154 
L 247.072671 156.109545 
L 245.67572 152.913935 
L 243.581672 149.718326 
L 243.127749 149.121325 
L 241.085045 146.522716 
L 238.449104 143.327106 
L 237.774833 142.421849 
L 235.808836 140.131497 
L 233.305326 136.935887 
L 232.421918 135.633736 
L 230.394649 133.740278 
L 227.069002 131.081075 
L 225.540783 130.544668 
L 221.716087 129.500593 
L 216.363171 128.581663 
L 211.566989 127.349059 
L 211.010256 127.226524 
L 205.65734 125.111328 
L 203.890158 124.153449 
L 200.304425 122.456844 
L 197.578702 120.957839 
L 194.951509 119.662403 
L 191.273096 117.76223 
L 189.598594 116.936335 
L 184.923448 114.56662 
L 184.245678 114.21445 
L 179.045115 111.371011 
L 178.892763 111.282456 
L 173.753373 108.175401 
L 173.539847 108.042015 
L 168.430492 104.979792 
L 168.186932 104.83914 
L 162.834016 102.216399 
L 161.645272 101.784182 
L 157.481101 100.400054 
L 152.128185 99.293915 
L 146.77527 98.62537 
L 146.44295 98.588572 
L 141.422354 98.011434 
L 136.069439 97.081989 
L 130.716523 95.392963 
L 125.647133 92.197353 
L 125.363608 91.972171 
L 122.724624 89.001744 
L 120.433553 85.806134 
L 120.010692 85.035863 
L 118.934185 82.610525 
L 117.871495 79.414915 
L 117.157271 76.219305 
L 116.794638 73.023696 
L 116.768111 69.828086 
L 117.033481 66.632477 
L 117.516995 63.436867 
L 118.1232 60.241258 
L 118.745711 57.045648 
L 119.274437 53.850038 
L 119.595526 50.654429 
L 119.582904 47.458819 
L 119.080449 44.26321 
L 117.871599 41.0676 
L 115.628646 37.871991 
L 114.657777 36.97067 
L 111.620243 34.676381 
L 109.304861 33.45852 
L 105.042835 31.480771 
L 103.951946 31.067345 
L 98.59903 28.540687 
L 98.227906 28.285162 
L 93.388648 25.089552 
L 93.246115 24.995441 
L 89.983276 21.893943 
L 87.893199 19.888075 
L 86.895873 18.698333 
L 84.178667 15.502724 
L 82.540284 13.633445 
L 81.416127 12.307114 
L 78.53605 9.111504 
L 77.187368 7.705849 
L 75.266417 5.915895 
L 71.834453 2.905818 
L 71.572202 2.720285 
L 67.158217 -0.475324 
L 66.481537 -0.985954 
L 61.572771 -3.670934 
L 61.128622 -3.935276 
L 55.775706 -5.588259 
L 50.422791 -5.377367 
L 46.410456 -3.670934 
L 45.069875 -3.111816 
L 41.826772 -0.475324 
L 39.71696 1.343917 
L 38.588452 2.720285 
L 36.152548 5.915895 
L 34.364044 8.551197 
L 34.042086 9.111504 
L 32.310796 12.307114 
L 30.776697 15.502724 
L 29.41561 18.698333 
L 29.011129 19.709544 
L 28.152946 21.893943 
L 26.986601 25.089552 
L 25.923972 28.285162 
L 24.953078 31.480771 
L 24.064133 34.676381 
L 23.658213 36.224272 
L 23.17946 37.871991 
L 22.309216 41.0676 
L 21.520643 44.26321 
L 20.810419 47.458819 
L 20.174314 50.654429 
L 19.606743 53.850038 
L 19.100318 57.045648 
L 18.645495 60.241258 
L 18.305298 62.850984 
L 18.213088 63.436867 
L 17.736033 66.632477 
L 17.276052 69.828086 
L 16.815088 73.023696 
L 16.338664 76.219305 
L 15.837762 79.414915 
L 15.309661 82.610525 
L 14.757507 85.806134 
L 14.188848 89.001744 
L 13.613693 92.197353 
L 13.042601 95.392963 
L 12.952382 95.888544 
L 12.33219 98.588572 
L 11.617176 101.784182 
L 10.933698 104.979792 
L 10.286224 108.175401 
L 9.676959 111.371011 
L 9.106033 114.56662 
L 8.571738 117.76223 
L 8.070852 120.957839 
L 7.599467 124.150214 
L 7.598807 124.153449 
L 6.945767 127.349059 
L 6.312723 130.544668 
L 5.690801 133.740278 
L 5.073013 136.935887 
L 4.455394 140.131497 
L 3.837428 143.327106 
L 3.22157 146.522716 
L 2.612079 149.718326 
L 2.246551 151.596575 
L 1.862941 152.913935 
L 0.896218 156.109545 
L -0.044788 159.305154 
L -0.951859 162.500764 
L -1.818665 165.696373 
L -2.639813 168.891983 
L -3.106364 170.721332 
L -3.648581 172.087593 
L -4.921291 175.283202 
L -6.081955 178.478812 
L -7.124882 181.674421 
L -8.048516 184.870031 
L -8.45928 186.379525 
L -9.20392 188.06564 
L -10.502904 191.26125 
L -11.599356 194.45686 
L -12.514836 197.652469 
L -13.271915 200.848079 
L -13.812195 203.593421 
L -13.966409 204.043688 
L -14.92318 207.239298 
L -15.664496 210.434907 
L -16.215792 213.630517 
L -16.594156 216.826127 
L -16.807574 220.021736 
L -16.853803 223.217346 
L -16.718499 226.412955 
L -16.372057 229.608565 
L -15.764417 232.804175 
L -14.816616 235.999784 
L -13.812195 238.369716 
L -13.558863 239.195394 
L -12.236536 242.391003 
L -10.238185 245.586613 
L -8.45928 247.661174 
L -7.537399 248.782222 
L -3.999738 251.977832 
L -3.106364 252.643415 
L 1.116237 255.173442 
L 2.246551 255.769418 
L 7.599467 257.753446 
L 10.705155 258.369051 
z
M 10.740766 248.782222 
L 7.599467 247.521463 
L 4.428897 245.586613 
L 2.246551 243.924387 
L 0.548834 242.391003 
L -2.102535 239.195394 
L -3.106364 237.477898 
L -4.051941 235.999784 
L -5.576792 232.804175 
L -6.577731 229.608565 
L -7.202235 226.412955 
L -7.545616 223.217346 
L -7.668556 220.021736 
L -7.607862 216.826127 
L -7.383063 213.630517 
L -7.000438 210.434907 
L -6.455435 207.239298 
L -5.734159 204.043688 
L -4.814412 200.848079 
L -3.666711 197.652469 
L -3.106364 196.289932 
L -2.614996 194.45686 
L -1.637306 191.26125 
L -0.476528 188.06564 
L 0.890037 184.870031 
L 2.246551 182.090992 
L 2.388637 181.674421 
L 3.491212 178.478812 
L 4.737157 175.283202 
L 6.127749 172.087593 
L 7.599467 169.001689 
L 7.638225 168.891983 
L 8.715081 165.696373 
L 9.874547 162.500764 
L 11.110269 159.305154 
L 12.414646 156.109545 
L 12.952382 154.766923 
L 13.531935 152.913935 
L 14.526515 149.718326 
L 15.551428 146.522716 
L 16.597013 143.327106 
L 17.652931 140.131497 
L 18.305298 138.101399 
L 18.6182 136.935887 
L 19.438801 133.740278 
L 20.266072 130.544668 
L 21.104926 127.349059 
L 21.964572 124.153449 
L 22.857611 120.957839 
L 23.658213 118.215732 
L 23.778888 117.76223 
L 24.644779 114.56662 
L 25.577267 111.371011 
L 26.582229 108.175401 
L 27.661557 104.979792 
L 28.811976 101.784182 
L 29.011129 101.232405 
L 29.977809 98.588572 
L 31.188463 95.392963 
L 32.436054 92.197353 
L 33.696675 89.001744 
L 34.364044 87.246964 
L 34.989125 85.806134 
L 36.301966 82.610525 
L 37.552623 79.414915 
L 38.711627 76.219305 
L 39.71696 73.149904 
L 39.772303 73.023696 
L 40.990812 69.828086 
L 42.088579 66.632477 
L 43.093625 63.436867 
L 44.053488 60.241258 
L 45.027312 57.045648 
L 45.069875 56.91629 
L 46.80184 53.850038 
L 48.769126 50.654429 
L 50.422791 48.249159 
L 52.633995 47.458819 
L 55.775706 46.418079 
L 57.35414 47.458819 
L 61.128622 50.654429 
L 62.613409 53.850038 
L 64.006857 57.045648 
L 65.484642 60.241258 
L 66.481537 62.083978 
L 67.06318 63.436867 
L 68.733065 66.632477 
L 70.771189 69.828086 
L 71.834453 71.224669 
L 73.039234 73.023696 
L 75.404277 76.219305 
L 77.187368 78.492226 
L 77.837352 79.414915 
L 80.156635 82.610525 
L 82.390121 85.806134 
L 82.540284 86.017097 
L 84.542432 89.001744 
L 86.596064 92.197353 
L 87.893199 94.266617 
L 88.614576 95.392963 
L 90.666868 98.588572 
L 92.646292 101.784182 
L 93.246115 102.751399 
L 94.751899 104.979792 
L 96.875661 108.175401 
L 98.59903 110.844252 
L 98.987763 111.371011 
L 101.36543 114.56662 
L 103.645532 117.76223 
L 103.951946 118.191596 
L 106.324914 120.957839 
L 108.957838 124.153449 
L 109.304861 124.571949 
L 112.174319 127.349059 
L 114.657777 129.792483 
L 115.633646 130.544668 
L 119.861736 133.740278 
L 120.010692 133.847692 
L 125.363608 136.881324 
L 125.483915 136.935887 
L 130.716523 139.176552 
L 133.31776 140.131497 
L 136.069439 141.096551 
L 141.422354 142.839522 
L 142.930605 143.327106 
L 146.77527 144.57581 
L 152.073766 146.522716 
L 152.128185 146.544342 
L 157.481101 149.058751 
L 158.605851 149.718326 
L 162.834016 152.805062 
L 162.956262 152.913935 
L 165.782579 156.109545 
L 167.693853 159.305154 
L 168.186932 160.570812 
L 168.908133 162.500764 
L 169.57214 165.696373 
L 169.735747 168.891983 
L 169.407912 172.087593 
L 168.561703 175.283202 
L 168.186932 176.142306 
L 167.230586 178.478812 
L 165.346828 181.674421 
L 162.834016 184.805205 
L 162.782847 184.870031 
L 159.604994 188.06564 
L 157.481101 189.777878 
L 155.590262 191.26125 
L 152.128185 193.51753 
L 150.621601 194.45686 
L 146.77527 196.507803 
L 144.546211 197.652469 
L 141.422354 199.057667 
L 137.400776 200.848079 
L 136.069439 201.377999 
L 130.716523 203.618196 
L 129.804704 204.043688 
L 125.363608 205.901916 
L 122.448086 207.239298 
L 120.010692 208.258679 
L 115.268073 210.434907 
L 114.657777 210.694191 
L 109.304861 213.265843 
L 108.640017 213.630517 
L 103.951946 215.989351 
L 102.480329 216.826127 
L 98.59903 218.85838 
L 96.644251 220.021736 
L 93.246115 221.883511 
L 91.099633 223.217346 
L 87.893199 225.048785 
L 85.757335 226.412955 
L 82.540284 228.30384 
L 80.500272 229.608565 
L 77.187368 231.573702 
L 75.204779 232.804175 
L 71.834453 234.777119 
L 69.737539 235.999784 
L 66.481537 237.838454 
L 63.92628 239.195394 
L 61.128622 240.685933 
L 57.497765 242.391003 
L 55.775706 243.237731 
L 50.422791 245.441031 
L 49.994988 245.586613 
L 45.069875 247.500891 
L 40.295438 248.782222 
L 39.71696 248.969918 
L 34.364044 250.252604 
L 29.011129 250.960914 
L 23.658213 251.1568 
L 18.305298 250.782167 
L 12.952382 249.626859 
z
" style="fill:#abc7f1;"/>
   </g>
   <g id="PathCollection_2">
    <path clip-path="url(#p967abe68d7)" d="M 12.952382 249.626859 
L 18.305298 250.782167 
L 23.658213 251.1568 
L 29.011129 250.960914 
L 34.364044 250.252604 
L 39.71696 248.969918 
L 40.295438 248.782222 
L 45.069875 247.500891 
L 49.994988 245.586613 
L 50.422791 245.441031 
L 55.775706 243.237731 
L 57.497765 242.391003 
L 61.128622 240.685933 
L 63.92628 239.195394 
L 66.481537 237.838454 
L 69.737539 235.999784 
L 71.834453 234.777119 
L 75.204779 232.804175 
L 77.187368 231.573702 
L 80.500272 229.608565 
L 82.540284 228.30384 
L 85.757335 226.412955 
L 87.893199 225.048785 
L 91.099633 223.217346 
L 93.246115 221.883511 
L 96.644251 220.021736 
L 98.59903 218.85838 
L 102.480329 216.826127 
L 103.951946 215.989351 
L 108.640017 213.630517 
L 109.304861 213.265843 
L 114.657777 210.694191 
L 115.268073 210.434907 
L 120.010692 208.258679 
L 122.448086 207.239298 
L 125.363608 205.901916 
L 129.804704 204.043688 
L 130.716523 203.618196 
L 136.069439 201.377999 
L 137.400776 200.848079 
L 141.422354 199.057667 
L 144.546211 197.652469 
L 146.77527 196.507803 
L 150.621601 194.45686 
L 152.128185 193.51753 
L 155.590262 191.26125 
L 157.481101 189.777878 
L 159.604994 188.06564 
L 162.782847 184.870031 
L 162.834016 184.805205 
L 165.346828 181.674421 
L 167.230586 178.478812 
L 168.186932 176.142306 
L 168.561703 175.283202 
L 169.407912 172.087593 
L 169.735747 168.891983 
L 169.57214 165.696373 
L 168.908133 162.500764 
L 168.186932 160.570812 
L 167.693853 159.305154 
L 165.782579 156.109545 
L 162.956262 152.913935 
L 162.834016 152.805062 
L 158.605851 149.718326 
L 157.481101 149.058751 
L 152.128185 146.544342 
L 152.073766 146.522716 
L 146.77527 144.57581 
L 142.930605 143.327106 
L 141.422354 142.839522 
L 136.069439 141.096551 
L 133.31776 140.131497 
L 130.716523 139.176552 
L 125.483915 136.935887 
L 125.363608 136.881324 
L 120.010692 133.847692 
L 119.861736 133.740278 
L 115.633646 130.544668 
L 114.657777 129.792483 
L 112.174319 127.349059 
L 109.304861 124.571949 
L 108.957838 124.153449 
L 106.324914 120.957839 
L 103.951946 118.191596 
L 103.645532 117.76223 
L 101.36543 114.56662 
L 98.987763 111.371011 
L 98.59903 110.844252 
L 96.875661 108.175401 
L 94.751899 104.979792 
L 93.246115 102.751399 
L 92.646292 101.784182 
L 90.666868 98.588572 
L 88.614576 95.392963 
L 87.893199 94.266617 
L 86.596064 92.197353 
L 84.542432 89.001744 
L 82.540284 86.017097 
L 82.390121 85.806134 
L 80.156635 82.610525 
L 77.837352 79.414915 
L 77.187368 78.492226 
L 75.404277 76.219305 
L 73.039234 73.023696 
L 71.834453 71.224669 
L 70.771189 69.828086 
L 68.733065 66.632477 
L 67.06318 63.436867 
L 66.481537 62.083978 
L 65.484642 60.241258 
L 64.006857 57.045648 
L 62.613409 53.850038 
L 61.128622 50.654429 
L 57.35414 47.458819 
L 55.775706 46.418079 
L 52.633995 47.458819 
L 50.422791 48.249159 
L 48.769126 50.654429 
L 46.80184 53.850038 
L 45.069875 56.91629 
L 45.027312 57.045648 
L 44.053488 60.241258 
L 43.093625 63.436867 
L 42.088579 66.632477 
L 40.990812 69.828086 
L 39.772303 73.023696 
L 39.71696 73.149904 
L 38.711627 76.219305 
L 37.552623 79.414915 
L 36.301966 82.610525 
L 34.989125 85.806134 
L 34.364044 87.246964 
L 33.696675 89.001744 
L 32.436054 92.197353 
L 31.188463 95.392963 
L 29.977809 98.588572 
L 29.011129 101.232405 
L 28.811976 101.784182 
L 27.661557 104.979792 
L 26.582229 108.175401 
L 25.577267 111.371011 
L 24.644779 114.56662 
L 23.778888 117.76223 
L 23.658213 118.215732 
L 22.857611 120.957839 
L 21.964572 124.153449 
L 21.104926 127.349059 
L 20.266072 130.544668 
L 19.438801 133.740278 
L 18.6182 136.935887 
L 18.305298 138.101399 
L 17.652931 140.131497 
L 16.597013 143.327106 
L 15.551428 146.522716 
L 14.526515 149.718326 
L 13.531935 152.913935 
L 12.952382 154.766923 
L 12.414646 156.109545 
L 11.110269 159.305154 
L 9.874547 162.500764 
L 8.715081 165.696373 
L 7.638225 168.891983 
L 7.599467 169.001689 
L 6.127749 172.087593 
L 4.737157 175.283202 
L 3.491212 178.478812 
L 2.388637 181.674421 
L 2.246551 182.090992 
L 0.890037 184.870031 
L -0.476528 188.06564 
L -1.637306 191.26125 
L -2.614996 194.45686 
L -3.106364 196.289932 
L -3.666711 197.652469 
L -4.814412 200.848079 
L -5.734159 204.043688 
L -6.455435 207.239298 
L -7.000438 210.434907 
L -7.383063 213.630517 
L -7.607862 216.826127 
L -7.668556 220.021736 
L -7.545616 223.217346 
L -7.202235 226.412955 
L -6.577731 229.608565 
L -5.576792 232.804175 
L -4.051941 235.999784 
L -3.106364 237.477898 
L -2.102535 239.195394 
L 0.548834 242.391003 
L 2.246551 243.924387 
L 4.428897 245.586613 
L 7.599467 247.521463 
L 10.740766 248.782222 
z
M 14.384226 242.391003 
L 12.952382 241.831454 
L 8.736115 239.195394 
L 7.599467 238.275637 
L 5.282887 235.999784 
L 3.028417 232.804175 
L 2.246551 231.202928 
L 1.40509 229.608565 
L 0.213552 226.412955 
L -0.516943 223.217346 
L -0.89997 220.021736 
L -1.007021 216.826127 
L -0.880418 213.630517 
L -0.541214 210.434907 
L 0.005998 207.239298 
L 0.770159 204.043688 
L 1.771881 200.848079 
L 2.246551 199.581669 
L 2.747091 197.652469 
L 3.722406 194.45686 
L 4.896991 191.26125 
L 6.301261 188.06564 
L 7.599467 185.502558 
L 7.839082 184.870031 
L 9.107419 181.674421 
L 10.567859 178.478812 
L 12.233261 175.283202 
L 12.952382 173.950679 
L 13.757117 172.087593 
L 15.20765 168.891983 
L 16.801563 165.696373 
L 18.305298 162.876285 
L 18.476716 162.500764 
L 19.881257 159.305154 
L 21.381963 156.109545 
L 22.971634 152.913935 
L 23.658213 151.518104 
L 24.469766 149.718326 
L 25.912236 146.522716 
L 27.412768 143.327106 
L 28.96226 140.131497 
L 29.011129 140.024496 
L 30.414774 136.935887 
L 31.902216 133.740278 
L 33.42506 130.544668 
L 34.364044 128.559836 
L 34.99556 127.349059 
L 36.63853 124.153449 
L 38.350293 120.957839 
L 39.71696 118.487399 
L 40.221862 117.76223 
L 42.46934 114.56662 
L 44.884084 111.371011 
L 45.069875 111.1291 
L 48.548899 108.175401 
L 50.422791 106.652745 
L 55.254693 104.979792 
L 55.775706 104.797861 
L 57.955852 104.979792 
L 61.128622 105.232696 
L 66.481537 107.747394 
L 67.015352 108.175401 
L 71.011654 111.371011 
L 71.834453 112.0205 
L 74.309583 114.56662 
L 77.187368 117.574309 
L 77.345573 117.76223 
L 80.098702 120.957839 
L 82.540284 123.903206 
L 82.739092 124.153449 
L 85.33182 127.349059 
L 87.804669 130.544668 
L 87.893199 130.654695 
L 90.442051 133.740278 
L 92.996385 136.935887 
L 93.246115 137.233433 
L 95.886468 140.131497 
L 98.59903 143.190145 
L 98.737005 143.327106 
L 102.079472 146.522716 
L 103.951946 148.383092 
L 105.520545 149.718326 
L 109.078938 152.913935 
L 109.304861 153.127739 
L 113.018818 156.109545 
L 114.657777 157.630413 
L 116.769026 159.305154 
L 120.010692 162.500764 
L 122.965324 165.696373 
L 124.874891 168.891983 
L 125.363608 170.316711 
L 126.068305 172.087593 
L 126.488687 175.283202 
L 126.120023 178.478812 
L 125.363608 180.627488 
L 125.075535 181.674421 
L 123.583737 184.870031 
L 121.405039 188.06564 
L 120.010692 189.596017 
L 118.773643 191.26125 
L 115.68099 194.45686 
L 114.657777 195.315431 
L 112.344339 197.652469 
L 109.304861 200.101744 
L 108.540206 200.848079 
L 104.578665 204.043688 
L 103.951946 204.480158 
L 100.64629 207.239298 
L 98.59903 208.676565 
L 96.518822 210.434907 
L 93.246115 212.768248 
L 92.235846 213.630517 
L 87.893199 216.766183 
L 87.822494 216.826127 
L 83.64302 220.021736 
L 82.540284 220.762072 
L 79.276604 223.217346 
L 77.187368 224.607717 
L 74.660199 226.412955 
L 71.834453 228.237043 
L 69.747475 229.608565 
L 66.481537 231.608257 
L 64.441752 232.804175 
L 61.128622 234.685394 
L 58.538754 235.999784 
L 55.775706 237.420942 
L 51.607763 239.195394 
L 50.422791 239.733219 
L 45.069875 241.714088 
L 42.497522 242.391003 
L 39.71696 243.251592 
L 34.364044 244.32368 
L 29.011129 244.810371 
L 23.658213 244.695575 
L 18.305298 243.80809 
z
" style="fill:#a2c2f3;"/>
   </g>
   <g id="PathCollection_3">
    <path clip-path="url(#p967abe68d7)" d="M 18.305298 243.80809 
L 23.658213 244.695575 
L 29.011129 244.810371 
L 34.364044 244.32368 
L 39.71696 243.251592 
L 42.497522 242.391003 
L 45.069875 241.714088 
L 50.422791 239.733219 
L 51.607763 239.195394 
L 55.775706 237.420942 
L 58.538754 235.999784 
L 61.128622 234.685394 
L 64.441752 232.804175 
L 66.481537 231.608257 
L 69.747475 229.608565 
L 71.834453 228.237043 
L 74.660199 226.412955 
L 77.187368 224.607717 
L 79.276604 223.217346 
L 82.540284 220.762072 
L 83.64302 220.021736 
L 87.822494 216.826127 
L 87.893199 216.766183 
L 92.235846 213.630517 
L 93.246115 212.768248 
L 96.518822 210.434907 
L 98.59903 208.676565 
L 100.64629 207.239298 
L 103.951946 204.480158 
L 104.578665 204.043688 
L 108.540206 200.848079 
L 109.304861 200.101744 
L 112.344339 197.652469 
L 114.657777 195.315431 
L 115.68099 194.45686 
L 118.773643 191.26125 
L 120.010692 189.596017 
L 121.405039 188.06564 
L 123.583737 184.870031 
L 125.075535 181.674421 
L 125.363608 180.627488 
L 126.120023 178.478812 
L 126.488687 175.283202 
L 126.068305 172.087593 
L 125.363608 170.316711 
L 124.874891 168.891983 
L 122.965324 165.696373 
L 120.010692 162.500764 
L 116.769026 159.305154 
L 114.657777 157.630413 
L 113.018818 156.109545 
L 109.304861 153.127739 
L 109.078938 152.913935 
L 105.520545 149.718326 
L 103.951946 148.383092 
L 102.079472 146.522716 
L 98.737005 143.327106 
L 98.59903 143.190145 
L 95.886468 140.131497 
L 93.246115 137.233433 
L 92.996385 136.935887 
L 90.442051 133.740278 
L 87.893199 130.654695 
L 87.804669 130.544668 
L 85.33182 127.349059 
L 82.739092 124.153449 
L 82.540284 123.903206 
L 80.098702 120.957839 
L 77.345573 117.76223 
L 77.187368 117.574309 
L 74.309583 114.56662 
L 71.834453 112.0205 
L 71.011654 111.371011 
L 67.015352 108.175401 
L 66.481537 107.747394 
L 61.128622 105.232696 
L 57.955852 104.979792 
L 55.775706 104.797861 
L 55.254693 104.979792 
L 50.422791 106.652745 
L 48.548899 108.175401 
L 45.069875 111.1291 
L 44.884084 111.371011 
L 42.46934 114.56662 
L 40.221862 117.76223 
L 39.71696 118.487399 
L 38.350293 120.957839 
L 36.63853 124.153449 
L 34.99556 127.349059 
L 34.364044 128.559836 
L 33.42506 130.544668 
L 31.902216 133.740278 
L 30.414774 136.935887 
L 29.011129 140.024496 
L 28.96226 140.131497 
L 27.412768 143.327106 
L 25.912236 146.522716 
L 24.469766 149.718326 
L 23.658213 151.518104 
L 22.971634 152.913935 
L 21.381963 156.109545 
L 19.881257 159.305154 
L 18.476716 162.500764 
L 18.305298 162.876285 
L 16.801563 165.696373 
L 15.20765 168.891983 
L 13.757117 172.087593 
L 12.952382 173.950679 
L 12.233261 175.283202 
L 10.567859 178.478812 
L 9.107419 181.674421 
L 7.839082 184.870031 
L 7.599467 185.502558 
L 6.301261 188.06564 
L 4.896991 191.26125 
L 3.722406 194.45686 
L 2.747091 197.652469 
L 2.246551 199.581669 
L 1.771881 200.848079 
L 0.770159 204.043688 
L 0.005998 207.239298 
L -0.541214 210.434907 
L -0.880418 213.630517 
L -1.007021 216.826127 
L -0.89997 220.021736 
L -0.516943 223.217346 
L 0.213552 226.412955 
L 1.40509 229.608565 
L 2.246551 231.202928 
L 3.028417 232.804175 
L 5.282887 235.999784 
L 7.599467 238.275637 
L 8.736115 239.195394 
L 12.952382 241.831454 
L 14.384226 242.391003 
z
M 18.06853 235.999784 
L 13.171664 232.804175 
L 12.952382 232.612336 
L 10.211802 229.608565 
L 8.342868 226.412955 
L 7.599467 224.445464 
L 7.106217 223.217346 
L 6.276814 220.021736 
L 5.8691 216.826127 
L 5.799681 213.630517 
L 6.020485 210.434907 
L 6.509305 207.239298 
L 7.264034 204.043688 
L 7.599467 202.964318 
L 8.084702 200.848079 
L 8.994442 197.652469 
L 10.114974 194.45686 
L 11.477283 191.26125 
L 12.952382 188.356259 
L 13.0707 188.06564 
L 14.454516 184.870031 
L 16.068462 181.674421 
L 17.940793 178.478812 
L 18.305298 177.872655 
L 19.652782 175.283202 
L 21.488873 172.087593 
L 23.54778 168.891983 
L 23.658213 168.716416 
L 25.430117 165.696373 
L 27.474251 162.500764 
L 29.011129 160.206163 
L 29.62288 159.305154 
L 31.765326 156.109545 
L 34.060806 152.913935 
L 34.364044 152.476655 
L 36.490461 149.718326 
L 39.067656 146.522716 
L 39.71696 145.698759 
L 42.058334 143.327106 
L 45.069875 140.343327 
L 45.388767 140.131497 
L 50.020798 136.935887 
L 50.422791 136.649779 
L 55.775706 134.78012 
L 61.128622 134.763671 
L 66.481537 136.403362 
L 67.401616 136.935887 
L 71.834453 139.35704 
L 72.852143 140.131497 
L 77.187368 143.327106 
L 81.022138 146.522716 
L 82.540284 147.787199 
L 84.678734 149.718326 
L 87.893199 152.753411 
L 88.062506 152.913935 
L 91.375554 156.109545 
L 93.246115 158.161258 
L 94.357714 159.305154 
L 97.095793 162.500764 
L 98.59903 164.680473 
L 99.40158 165.696373 
L 101.430379 168.891983 
L 102.836262 172.087593 
L 103.686982 175.283202 
L 103.951946 177.653529 
L 104.06966 178.478812 
L 103.951946 181.113573 
L 103.933776 181.674421 
L 103.384416 184.870031 
L 102.378594 188.06564 
L 100.868461 191.26125 
L 98.762264 194.45686 
L 98.59903 194.656131 
L 96.698131 197.652469 
L 94.035156 200.848079 
L 93.246115 201.639164 
L 91.337335 204.043688 
L 88.100501 207.239298 
L 87.893199 207.420359 
L 85.037987 210.434907 
L 82.540284 212.571244 
L 81.477142 213.630517 
L 77.687288 216.826127 
L 77.187368 217.206608 
L 73.818914 220.021736 
L 71.834453 221.459908 
L 69.497066 223.217346 
L 66.481537 225.252092 
L 64.711285 226.412955 
L 61.128622 228.611286 
L 59.328368 229.608565 
L 55.775706 231.540284 
L 52.977631 232.804175 
L 50.422791 233.997914 
L 45.069875 235.89992 
L 44.674672 235.999784 
L 39.71696 237.432732 
L 34.364044 238.293914 
L 29.011129 238.491923 
L 23.658213 237.893322 
L 18.305298 236.125244 
z
" style="fill:#91bbf5;"/>
   </g>
   <g id="PathCollection_4">
    <path clip-path="url(#p967abe68d7)" d="M 18.305298 236.125244 
L 23.658213 237.893322 
L 29.011129 238.491923 
L 34.364044 238.293914 
L 39.71696 237.432732 
L 44.674672 235.999784 
L 45.069875 235.89992 
L 50.422791 233.997914 
L 52.977631 232.804175 
L 55.775706 231.540284 
L 59.328368 229.608565 
L 61.128622 228.611286 
L 64.711285 226.412955 
L 66.481537 225.252092 
L 69.497066 223.217346 
L 71.834453 221.459908 
L 73.818914 220.021736 
L 77.187368 217.206608 
L 77.687288 216.826127 
L 81.477142 213.630517 
L 82.540284 212.571244 
L 85.037987 210.434907 
L 87.893199 207.420359 
L 88.100501 207.239298 
L 91.337335 204.043688 
L 93.246115 201.639164 
L 94.035156 200.848079 
L 96.698131 197.652469 
L 98.59903 194.656131 
L 98.762264 194.45686 
L 100.868461 191.26125 
L 102.378594 188.06564 
L 103.384416 184.870031 
L 103.933776 181.674421 
L 103.951946 181.113573 
L 104.06966 178.478812 
L 103.951946 177.653529 
L 103.686982 175.283202 
L 102.836262 172.087593 
L 101.430379 168.891983 
L 99.40158 165.696373 
L 98.59903 164.680473 
L 97.095793 162.500764 
L 94.357714 159.305154 
L 93.246115 158.161258 
L 91.375554 156.109545 
L 88.062506 152.913935 
L 87.893199 152.753411 
L 84.678734 149.718326 
L 82.540284 147.787199 
L 81.022138 146.522716 
L 77.187368 143.327106 
L 72.852143 140.131497 
L 71.834453 139.35704 
L 67.401616 136.935887 
L 66.481537 136.403362 
L 61.128622 134.763671 
L 55.775706 134.78012 
L 50.422791 136.649779 
L 50.020798 136.935887 
L 45.388767 140.131497 
L 45.069875 140.343327 
L 42.058334 143.327106 
L 39.71696 145.698759 
L 39.067656 146.522716 
L 36.490461 149.718326 
L 34.364044 152.476655 
L 34.060806 152.913935 
L 31.765326 156.109545 
L 29.62288 159.305154 
L 29.011129 160.206163 
L 27.474251 162.500764 
L 25.430117 165.696373 
L 23.658213 168.716416 
L 23.54778 168.891983 
L 21.488873 172.087593 
L 19.652782 175.283202 
L 18.305298 177.872655 
L 17.940793 178.478812 
L 16.068462 181.674421 
L 14.454516 184.870031 
L 13.0707 188.06564 
L 12.952382 188.356259 
L 11.477283 191.26125 
L 10.114974 194.45686 
L 8.994442 197.652469 
L 8.084702 200.848079 
L 7.599467 202.964318 
L 7.264034 204.043688 
L 6.509305 207.239298 
L 6.020485 210.434907 
L 5.799681 213.630517 
L 5.8691 216.826127 
L 6.276814 220.021736 
L 7.106217 223.217346 
L 7.599467 224.445464 
L 8.342868 226.412955 
L 10.211802 229.608565 
L 12.952382 232.612336 
L 13.171664 232.804175 
L 18.06853 235.999784 
z
M 20.544696 229.608565 
L 18.305298 228.046244 
L 16.656945 226.412955 
L 14.420558 223.217346 
L 13.085532 220.021736 
L 12.952382 219.486528 
L 12.264181 216.826127 
L 11.900122 213.630517 
L 11.919587 210.434907 
L 12.27122 207.239298 
L 12.933252 204.043688 
L 12.952382 203.978124 
L 13.676981 200.848079 
L 14.636367 197.652469 
L 15.834905 194.45686 
L 17.303249 191.26125 
L 18.305298 189.378982 
L 18.90968 188.06564 
L 20.543668 184.870031 
L 22.454384 181.674421 
L 23.658213 179.846088 
L 24.503104 178.478812 
L 26.611492 175.283202 
L 29.011129 172.087593 
L 31.431647 168.891983 
L 34.132439 165.696373 
L 34.364044 165.417138 
L 37.083365 162.500764 
L 39.71696 159.84094 
L 40.389179 159.305154 
L 44.32484 156.109545 
L 45.069875 155.493316 
L 49.741086 152.913935 
L 50.422791 152.518732 
L 55.775706 150.938626 
L 61.128622 150.818523 
L 66.481537 152.006007 
L 68.510081 152.913935 
L 71.834453 154.317111 
L 74.712632 156.109545 
L 77.187368 157.683175 
L 79.238517 159.305154 
L 82.540284 162.22817 
L 82.820546 162.500764 
L 85.776999 165.696373 
L 87.893199 168.7015 
L 88.031353 168.891983 
L 89.915774 172.087593 
L 91.183101 175.283202 
L 91.911147 178.478812 
L 92.162881 181.674421 
L 91.980077 184.870031 
L 91.379079 188.06564 
L 90.346864 191.26125 
L 88.835664 194.45686 
L 87.893199 195.958127 
L 87.054736 197.652469 
L 85.03984 200.848079 
L 82.540284 203.902545 
L 82.444209 204.043688 
L 79.908554 207.239298 
L 77.187368 209.953727 
L 76.760266 210.434907 
L 73.517535 213.630517 
L 71.834453 215.041592 
L 69.814509 216.826127 
L 66.481537 219.371308 
L 65.614668 220.021736 
L 61.128622 223.064232 
L 60.879817 223.217346 
L 55.775706 226.20231 
L 55.340557 226.412955 
L 50.422791 228.801214 
L 48.179048 229.608565 
L 45.069875 230.797114 
L 39.71696 232.136083 
L 34.364044 232.75784 
L 29.011129 232.575637 
L 23.658213 231.259074 
z
" style="fill:#74b1f9;"/>
   </g>
   <g id="PathCollection_5">
    <path clip-path="url(#p967abe68d7)" d="M 23.658213 231.259074 
L 29.011129 232.575637 
L 34.364044 232.75784 
L 39.71696 232.136083 
L 45.069875 230.797114 
L 48.179048 229.608565 
L 50.422791 228.801214 
L 55.340557 226.412955 
L 55.775706 226.20231 
L 60.879817 223.217346 
L 61.128622 223.064232 
L 65.614668 220.021736 
L 66.481537 219.371308 
L 69.814509 216.826127 
L 71.834453 215.041592 
L 73.517535 213.630517 
L 76.760266 210.434907 
L 77.187368 209.953727 
L 79.908554 207.239298 
L 82.444209 204.043688 
L 82.540284 203.902545 
L 85.03984 200.848079 
L 87.054736 197.652469 
L 87.893199 195.958127 
L 88.835664 194.45686 
L 90.346864 191.26125 
L 91.379079 188.06564 
L 91.980077 184.870031 
L 92.162881 181.674421 
L 91.911147 178.478812 
L 91.183101 175.283202 
L 89.915774 172.087593 
L 88.031353 168.891983 
L 87.893199 168.7015 
L 85.776999 165.696373 
L 82.820546 162.500764 
L 82.540284 162.22817 
L 79.238517 159.305154 
L 77.187368 157.683175 
L 74.712632 156.109545 
L 71.834453 154.317111 
L 68.510081 152.913935 
L 66.481537 152.006007 
L 61.128622 150.818523 
L 55.775706 150.938626 
L 50.422791 152.518732 
L 49.741086 152.913935 
L 45.069875 155.493316 
L 44.32484 156.109545 
L 40.389179 159.305154 
L 39.71696 159.84094 
L 37.083365 162.500764 
L 34.364044 165.417138 
L 34.132439 165.696373 
L 31.431647 168.891983 
L 29.011129 172.087593 
L 26.611492 175.283202 
L 24.503104 178.478812 
L 23.658213 179.846088 
L 22.454384 181.674421 
L 20.543668 184.870031 
L 18.90968 188.06564 
L 18.305298 189.378982 
L 17.303249 191.26125 
L 15.834905 194.45686 
L 14.636367 197.652469 
L 13.676981 200.848079 
L 12.952382 203.978124 
L 12.933252 204.043688 
L 12.27122 207.239298 
L 11.919587 210.434907 
L 11.900122 213.630517 
L 12.264181 216.826127 
L 12.952382 219.486528 
L 13.085532 220.021736 
L 14.420558 223.217346 
L 16.656945 226.412955 
L 18.305298 228.046244 
L 20.544696 229.608565 
z
M 29.989642 226.412955 
L 29.011129 226.23589 
L 23.658213 223.459156 
L 23.378154 223.217346 
L 20.628182 220.021736 
L 19.042309 216.826127 
L 18.305298 213.955208 
L 18.226231 213.630517 
L 17.925546 210.434907 
L 18.061546 207.239298 
L 18.305298 205.732191 
L 18.539544 204.043688 
L 19.267879 200.848079 
L 20.263297 197.652469 
L 21.535253 194.45686 
L 23.110327 191.26125 
L 23.658213 190.28946 
L 24.834399 188.06564 
L 26.769633 184.870031 
L 29.011129 181.704372 
L 29.032894 181.674421 
L 31.44541 178.478812 
L 34.200549 175.283202 
L 34.364044 175.096464 
L 37.343108 172.087593 
L 39.71696 169.854801 
L 41.023054 168.891983 
L 45.069875 165.945265 
L 45.586262 165.696373 
L 50.422791 163.258524 
L 53.543449 162.500764 
L 55.775706 161.902075 
L 61.128622 161.8325 
L 63.984844 162.500764 
L 66.481537 163.065941 
L 71.834453 165.696373 
L 75.879767 168.891983 
L 77.187368 170.204989 
L 78.766218 172.087593 
L 80.754971 175.283202 
L 82.02554 178.478812 
L 82.540284 180.874584 
L 82.722544 181.674421 
L 82.926028 184.870031 
L 82.609404 188.06564 
L 82.540284 188.332677 
L 81.927046 191.26125 
L 80.856951 194.45686 
L 79.353504 197.652469 
L 77.340931 200.848079 
L 77.187368 201.049052 
L 75.189793 204.043688 
L 72.501646 207.239298 
L 71.834453 207.920497 
L 69.524481 210.434907 
L 66.481537 213.185481 
L 65.983554 213.630517 
L 61.985032 216.826127 
L 61.128622 217.444649 
L 57.19689 220.021736 
L 55.775706 220.892258 
L 51.164809 223.217346 
L 50.422791 223.586808 
L 45.069875 225.583026 
L 41.279416 226.412955 
L 39.71696 226.787329 
L 34.364044 227.110433 
z
" style="fill:#3fa3fe;"/>
   </g>
   <g id="PathCollection_6">
    <path clip-path="url(#p967abe68d7)" d="M 34.364044 227.110433 
L 39.71696 226.787329 
L 41.279416 226.412955 
L 45.069875 225.583026 
L 50.422791 223.586808 
L 51.164809 223.217346 
L 55.775706 220.892258 
L 57.19689 220.021736 
L 61.128622 217.444649 
L 61.985032 216.826127 
L 65.983554 213.630517 
L 66.481537 213.185481 
L 69.524481 210.434907 
L 71.834453 207.920497 
L 72.501646 207.239298 
L 75.189793 204.043688 
L 77.187368 201.049052 
L 77.340931 200.848079 
L 79.353504 197.652469 
L 80.856951 194.45686 
L 81.927046 191.26125 
L 82.540284 188.332677 
L 82.609404 188.06564 
L 82.926028 184.870031 
L 82.722544 181.674421 
L 82.540284 180.874584 
L 82.02554 178.478812 
L 80.754971 175.283202 
L 78.766218 172.087593 
L 77.187368 170.204989 
L 75.879767 168.891983 
L 71.834453 165.696373 
L 66.481537 163.065941 
L 63.984844 162.500764 
L 61.128622 161.8325 
L 55.775706 161.902075 
L 53.543449 162.500764 
L 50.422791 163.258524 
L 45.586262 165.696373 
L 45.069875 165.945265 
L 41.023054 168.891983 
L 39.71696 169.854801 
L 37.343108 172.087593 
L 34.364044 175.096464 
L 34.200549 175.283202 
L 31.44541 178.478812 
L 29.032894 181.674421 
L 29.011129 181.704372 
L 26.769633 184.870031 
L 24.834399 188.06564 
L 23.658213 190.28946 
L 23.110327 191.26125 
L 21.535253 194.45686 
L 20.263297 197.652469 
L 19.267879 200.848079 
L 18.539544 204.043688 
L 18.305298 205.732191 
L 18.061546 207.239298 
L 17.925546 210.434907 
L 18.226231 213.630517 
L 18.305298 213.955208 
L 19.042309 216.826127 
L 20.628182 220.021736 
L 23.378154 223.217346 
L 23.658213 223.459156 
L 29.011129 226.23589 
L 29.989642 226.412955 
z
M 28.957443 220.021736 
L 25.698884 216.826127 
L 23.951236 213.630517 
L 23.658213 212.534193 
L 23.182332 210.434907 
L 23.023987 207.239298 
L 23.338571 204.043688 
L 23.658213 202.639002 
L 24.04116 200.848079 
L 25.054371 197.652469 
L 26.377468 194.45686 
L 28.02585 191.26125 
L 29.011129 189.637981 
L 29.993653 188.06564 
L 32.249399 184.870031 
L 34.364044 182.248826 
L 34.89264 181.674421 
L 38.009554 178.478812 
L 39.71696 176.853172 
L 41.84128 175.283202 
L 45.069875 172.963742 
L 46.94908 172.087593 
L 50.422791 170.417878 
L 55.775706 169.246464 
L 61.128622 169.4397 
L 66.481537 171.212624 
L 67.86301 172.087593 
L 71.834453 175.283202 
L 74.087371 178.478812 
L 75.455631 181.674421 
L 76.107926 184.870031 
L 76.171269 188.06564 
L 75.728961 191.26125 
L 74.821358 194.45686 
L 73.446047 197.652469 
L 71.834453 200.390116 
L 71.583671 200.848079 
L 69.400733 204.043688 
L 66.663776 207.239298 
L 66.481537 207.423472 
L 63.470342 210.434907 
L 61.128622 212.433838 
L 59.575055 213.630517 
L 55.775706 216.267161 
L 54.776154 216.826127 
L 50.422791 219.148494 
L 48.054123 220.021736 
L 45.069875 221.135706 
L 39.71696 222.153058 
L 34.364044 221.992547 
L 29.011129 220.059834 
z
" style="fill:#0294f0;"/>
   </g>
   <g id="PathCollection_7">
    <path clip-path="url(#p967abe68d7)" d="M 29.011129 220.059834 
L 34.364044 221.992547 
L 39.71696 222.153058 
L 45.069875 221.135706 
L 48.054123 220.021736 
L 50.422791 219.148494 
L 54.776154 216.826127 
L 55.775706 216.267161 
L 59.575055 213.630517 
L 61.128622 212.433838 
L 63.470342 210.434907 
L 66.481537 207.423472 
L 66.663776 207.239298 
L 69.400733 204.043688 
L 71.583671 200.848079 
L 71.834453 200.390116 
L 73.446047 197.652469 
L 74.821358 194.45686 
L 75.728961 191.26125 
L 76.171269 188.06564 
L 76.107926 184.870031 
L 75.455631 181.674421 
L 74.087371 178.478812 
L 71.834453 175.283202 
L 67.86301 172.087593 
L 66.481537 171.212624 
L 61.128622 169.4397 
L 55.775706 169.246464 
L 50.422791 170.417878 
L 46.94908 172.087593 
L 45.069875 172.963742 
L 41.84128 175.283202 
L 39.71696 176.853172 
L 38.009554 178.478812 
L 34.89264 181.674421 
L 34.364044 182.248826 
L 32.249399 184.870031 
L 29.993653 188.06564 
L 29.011129 189.637981 
L 28.02585 191.26125 
L 26.377468 194.45686 
L 25.054371 197.652469 
L 24.04116 200.848079 
L 23.658213 202.639002 
L 23.338571 204.043688 
L 23.023987 207.239298 
L 23.182332 210.434907 
L 23.658213 212.534193 
L 23.951236 213.630517 
L 25.698884 216.826127 
L 28.957443 220.021736 
z
M 32.210611 213.630517 
L 29.91491 210.434907 
L 29.011129 207.239298 
L 28.98451 204.043688 
L 29.011129 203.886397 
L 29.550928 200.848079 
L 30.580032 197.652469 
L 32.006807 194.45686 
L 33.820272 191.26125 
L 34.364044 190.452485 
L 36.217096 188.06564 
L 39.038567 184.870031 
L 39.71696 184.168313 
L 42.884753 181.674421 
L 45.069875 180.044866 
L 48.45929 178.478812 
L 50.422791 177.565413 
L 55.775706 176.680286 
L 61.128622 177.606581 
L 62.692953 178.478812 
L 66.481537 181.487703 
L 66.626314 181.674421 
L 68.271466 184.870031 
L 68.984935 188.06564 
L 68.95854 191.26125 
L 68.311518 194.45686 
L 67.098771 197.652469 
L 66.481537 198.763651 
L 65.300914 200.848079 
L 62.977104 204.043688 
L 61.128622 206.104401 
L 59.981246 207.239298 
L 56.233085 210.434907 
L 55.775706 210.78137 
L 51.023477 213.630517 
L 50.422791 213.967306 
L 45.069875 215.915533 
L 39.71696 216.579145 
L 34.364044 215.291227 
z
" style="fill:#1f81cf;"/>
   </g>
   <g id="PathCollection_8">
    <path clip-path="url(#p967abe68d7)" d="M 34.364044 215.291227 
L 39.71696 216.579145 
L 45.069875 215.915533 
L 50.422791 213.967306 
L 51.023477 213.630517 
L 55.775706 210.78137 
L 56.233085 210.434907 
L 59.981246 207.239298 
L 61.128622 206.104401 
L 62.977104 204.043688 
L 65.300914 200.848079 
L 66.481537 198.763651 
L 67.098771 197.652469 
L 68.311518 194.45686 
L 68.95854 191.26125 
L 68.984935 188.06564 
L 68.271466 184.870031 
L 66.626314 181.674421 
L 66.481537 181.487703 
L 62.692953 178.478812 
L 61.128622 177.606581 
L 55.775706 176.680286 
L 50.422791 177.565413 
L 48.45929 178.478812 
L 45.069875 180.044866 
L 42.884753 181.674421 
L 39.71696 184.168313 
L 39.038567 184.870031 
L 36.217096 188.06564 
L 34.364044 190.452485 
L 33.820272 191.26125 
L 32.006807 194.45686 
L 30.580032 197.652469 
L 29.550928 200.848079 
L 29.011129 203.886397 
L 28.98451 204.043688 
L 29.011129 207.239298 
L 29.91491 210.434907 
L 32.210611 213.630517 
z
M 39.71696 210.434907 
L 36.131809 207.239298 
L 35.000808 204.043688 
L 35.18232 200.848079 
L 36.170728 197.652469 
L 37.73888 194.45686 
L 39.71696 191.39077 
L 39.834639 191.26125 
L 43.259798 188.06564 
L 45.069875 186.537319 
L 48.597698 184.870031 
L 50.422791 184.035322 
L 55.775706 183.78369 
L 58.111592 184.870031 
L 61.128622 187.369877 
L 61.525819 188.06564 
L 62.289073 191.26125 
L 62.09051 194.45686 
L 61.128622 197.635107 
L 61.122329 197.652469 
L 59.140144 200.848079 
L 56.576864 204.043688 
L 55.775706 204.8428 
L 52.554314 207.239298 
L 50.422791 208.644923 
L 45.596749 210.434907 
L 45.069875 210.619871 
z
" style="fill:#326eaa;"/>
   </g>
   <g id="PathCollection_9">
    <path clip-path="url(#p967abe68d7)" d="M 45.069875 210.619871 
L 45.596749 210.434907 
L 50.422791 208.644923 
L 52.554314 207.239298 
L 55.775706 204.8428 
L 56.576864 204.043688 
L 59.140144 200.848079 
L 61.122329 197.652469 
L 61.128622 197.635107 
L 62.09051 194.45686 
L 62.289073 191.26125 
L 61.525819 188.06564 
L 61.128622 187.369877 
L 58.111592 184.870031 
L 55.775706 183.78369 
L 50.422791 184.035322 
L 48.597698 184.870031 
L 45.069875 186.537319 
L 43.259798 188.06564 
L 39.834639 191.26125 
L 39.71696 191.39077 
L 37.73888 194.45686 
L 36.170728 197.652469 
L 35.18232 200.848079 
L 35.000808 204.043688 
L 36.131809 207.239298 
L 39.71696 210.434907 
z
" style="fill:#3b5d85;"/>
   </g>
   <g id="patch_3">
    <path d="M 36 216 
L 36 72 
" style="fill:none;stroke:#262626;stroke-linecap:square;stroke-linejoin:miter;"/>
   </g>
   <g id="patch_4">
    <path d="M 36 216 
L 180 216 
" style="fill:none;stroke:#262626;stroke-linecap:square;stroke-linejoin:miter;"/>
   </g>
   <g id="text_13">
    <g id="patch_5">
     <path d="M 46.368 92.0115 
L 87.252 92.0115 
L 87.252 75.168 
L 46.368 75.168 
z
" style="fill:#ffffff;opacity:0.5;stroke:#000000;stroke-linejoin:miter;stroke-width:0.8;"/>
    </g>
    <text style="fill:#262626;font-family:Arial;font-size:9.6px;font-stretch:normal;font-style:normal;font-weight:normal;text-anchor:start;" transform="rotate(-0, 50.4, 86.0715)" x="50.4" y="86.0715">r = 0.45</text>
   </g>
   <g id="text_14">
    <text style="fill:#262626;font-family:Arial;font-size:11.52px;font-stretch:normal;font-style:normal;font-weight:normal;text-anchor:middle;" transform="rotate(-0, 108, 67)" x="108" y="67">Manfredonia et al.</text>
   </g>
   <g id="text_15">
    <text style="fill:#262626;font-family:Arial;font-size:11.52px;font-stretch:normal;font-style:normal;font-weight:normal;" transform="translate(187.2896 111.6639)rotate(-270)">Huston et al.</text>
   </g>
  </g>
 </g>
 <defs>
  <clipPath id="p967abe68d7">
   <rect height="144" width="144" x="36" y="72"/>
  </clipPath>
 </defs>
</svg>
