<?xml version="1.0" encoding="utf-8" standalone="no"?>
<!DOCTYPE svg PUBLIC "-//W3C//DTD SVG 1.1//EN"
  "http://www.w3.org/Graphics/SVG/1.1/DTD/svg11.dtd">
<!-- Created with matplotlib (https://matplotlib.org/) -->
<svg height="698.4pt" version="1.1" viewBox="0 0 648 698.4" width="648pt" xmlns="http://www.w3.org/2000/svg" xmlns:xlink="http://www.w3.org/1999/xlink">
 <metadata>
  <rdf:RDF xmlns:cc="http://creativecommons.org/ns#" xmlns:dc="http://purl.org/dc/elements/1.1/" xmlns:rdf="http://www.w3.org/1999/02/22-rdf-syntax-ns#">
   <cc:Work>
    <dc:type rdf:resource="http://purl.org/dc/dcmitype/StillImage"/>
    <dc:date>2023-04-10T12:10:51.524326</dc:date>
    <dc:format>image/svg+xml</dc:format>
    <dc:creator>
     <cc:Agent>
      <dc:title>Matplotlib v3.3.4, https://matplotlib.org/</dc:title>
     </cc:Agent>
    </dc:creator>
   </cc:Work>
  </rdf:RDF>
 </metadata>
 <defs>
  <style type="text/css">*{stroke-linecap:butt;stroke-linejoin:round;}</style>
 </defs>
 <g id="figure_1">
  <g id="patch_1">
   <path d="M 0 698.4 
L 648 698.4 
L 648 0 
L 0 0 
z
" style="fill:#ffffff;"/>
  </g>
  <g id="axes_1">
   <g id="patch_2">
    <path d="M 39.927305 658.262069 
L 608.072695 658.262069 
L 608.072695 75.913043 
L 39.927305 75.913043 
z
" style="fill:#ffffff;"/>
   </g>
   <g id="PatchCollection_1">
    <path clip-path="url(#p15106acbc8)" d="M 608.072695 367.087556 
C 608.072695 291.775688 578.123262 219.47136 524.869729 166.217827 
C 471.616196 112.964294 399.311868 83.014861 324 83.014861 
C 248.688132 83.014861 176.383804 112.964294 123.130271 166.217827 
C 69.876738 219.47136 39.927305 291.775688 39.927305 367.087556 
L 47.029122 367.087556 
C 47.029122 293.658485 76.22982 223.161765 128.152014 171.23957 
C 180.074208 119.317376 250.570928 90.116678 324 90.116678 
C 397.429072 90.116678 467.925792 119.317376 519.847986 171.23957 
C 571.77018 223.161765 600.970878 293.658485 600.970878 367.087556 
L 608.072695 367.087556 
z
" style="fill:#808080;fill-opacity:0.7;"/>
    <path clip-path="url(#p15106acbc8)" d="M 600.970878 367.087556 
C 600.970878 293.658485 571.77018 223.161765 519.847986 171.23957 
C 467.925792 119.317376 397.429072 90.116678 324 90.116678 
C 250.570928 90.116678 180.074208 119.317376 128.152014 171.23957 
C 76.22982 223.161765 47.029122 293.658485 47.029122 367.087556 
L 54.130939 367.087556 
C 54.130939 295.541281 82.582901 226.85217 133.173757 176.261313 
C 183.764613 125.670457 252.453725 97.218496 324 97.218496 
C 395.546275 97.218496 464.235387 125.670457 514.826243 176.261313 
C 565.417099 226.85217 593.869061 295.541281 593.869061 367.087556 
L 600.970878 367.087556 
z
" style="fill:#808080;fill-opacity:0.7;"/>
    <path clip-path="url(#p15106acbc8)" d="M 593.869061 367.087556 
C 593.869061 295.541281 565.417099 226.85217 514.826243 176.261313 
C 464.235387 125.670457 395.546275 97.218496 324 97.218496 
C 252.453725 97.218496 183.764613 125.670457 133.173757 176.261313 
C 82.582901 226.85217 54.130939 295.541281 54.130939 367.087556 
L 61.232757 367.087556 
C 61.232757 297.424078 88.935983 230.542574 138.1955 181.283057 
C 187.455018 132.023539 254.336522 104.320313 324 104.320313 
C 393.663478 104.320313 460.544982 132.023539 509.8045 181.283057 
C 559.064017 230.542574 586.767243 297.424078 586.767243 367.087556 
L 593.869061 367.087556 
z
" style="fill:#808080;fill-opacity:0.7;"/>
    <path clip-path="url(#p15106acbc8)" d="M 586.767243 367.087556 
C 586.767243 297.424078 559.064017 230.542574 509.8045 181.283057 
C 460.544982 132.023539 393.663478 104.320313 324 104.320313 
C 254.336522 104.320313 187.455018 132.023539 138.1955 181.283057 
C 88.935983 230.542574 61.232757 297.424078 61.232757 367.087556 
L 68.334574 367.087556 
C 68.334574 299.306875 95.289064 234.232979 143.217244 186.3048 
C 191.145423 138.37662 256.219319 111.42213 324 111.42213 
C 391.780681 111.42213 456.854577 138.37662 504.782756 186.3048 
C 552.710936 234.232979 579.665426 299.306875 579.665426 367.087556 
L 586.767243 367.087556 
z
" style="fill:#808080;fill-opacity:0.7;"/>
    <path clip-path="url(#p15106acbc8)" d="M 579.665426 367.087556 
C 579.665426 299.306875 552.710936 234.232979 504.782756 186.3048 
C 456.854577 138.37662 391.780681 111.42213 324 111.42213 
C 256.219319 111.42213 191.145423 138.37662 143.217244 186.3048 
C 95.289064 234.232979 68.334574 299.306875 68.334574 367.087556 
L 75.436392 367.087556 
C 75.436392 301.189671 101.642146 237.923384 148.238987 191.326543 
C 194.835828 144.729702 258.102115 118.523948 324 118.523948 
C 389.897885 118.523948 453.164172 144.729702 499.761013 191.326543 
C 546.357854 237.923384 572.563608 301.189671 572.563608 367.087556 
L 579.665426 367.087556 
z
" style="fill:#808080;fill-opacity:0.7;"/>
    <path clip-path="url(#p15106acbc8)" d="M 338.203635 367.087556 
C 338.203635 332.255817 324.352022 298.815065 299.722263 274.185306 
C 275.092504 249.555548 241.651752 235.703935 206.820013 235.703935 
C 171.988274 235.703935 138.547522 249.555548 113.917763 274.185306 
C 89.288004 298.815065 75.436392 332.255817 75.436392 367.087556 
L 82.538209 367.087556 
C 82.538209 334.138614 95.641086 302.50547 118.939507 279.20705 
C 142.237927 255.908629 173.871071 242.805752 206.820013 242.805752 
C 239.768956 242.805752 271.402099 255.908629 294.70052 279.20705 
C 317.99894 302.50547 331.101817 334.138614 331.101817 367.087556 
L 338.203635 367.087556 
z
" style="fill:#808080;fill-opacity:0.7;"/>
    <path clip-path="url(#p15106acbc8)" d="M 331.101817 367.087556 
C 331.101817 334.138614 317.99894 302.50547 294.70052 279.20705 
C 271.402099 255.908629 239.768956 242.805752 206.820013 242.805752 
C 173.871071 242.805752 142.237927 255.908629 118.939507 279.20705 
C 95.641086 302.50547 82.538209 334.138614 82.538209 367.087556 
L 89.640026 367.087556 
C 89.640026 336.021411 101.994168 306.195875 123.96125 284.228793 
C 145.928332 262.261711 175.753867 249.907569 206.820013 249.907569 
C 237.886159 249.907569 267.711694 262.261711 289.678776 284.228793 
C 311.645859 306.195875 324 336.021411 324 367.087556 
L 331.101817 367.087556 
z
" style="fill:#808080;fill-opacity:0.7;"/>
    <path clip-path="url(#p15106acbc8)" d="M 324 367.087556 
C 324 336.021411 311.645859 306.195875 289.678776 284.228793 
C 267.711694 262.261711 237.886159 249.907569 206.820013 249.907569 
C 175.753867 249.907569 145.928332 262.261711 123.96125 284.228793 
C 101.994168 306.195875 89.640026 336.021411 89.640026 367.087556 
L 96.741844 367.087556 
C 96.741844 337.904207 108.347249 309.88628 128.982993 289.250536 
C 149.618737 268.614792 177.636664 257.009387 206.820013 257.009387 
C 236.003362 257.009387 264.021289 268.614792 284.657033 289.250536 
C 305.292777 309.88628 316.898183 337.904207 316.898183 367.087556 
L 324 367.087556 
z
" style="fill:#808080;fill-opacity:0.7;"/>
    <path clip-path="url(#p15106acbc8)" d="M 316.898183 367.087556 
C 316.898183 337.904207 305.292777 309.88628 284.657033 289.250536 
C 264.021289 268.614792 236.003362 257.009387 206.820013 257.009387 
C 177.636664 257.009387 149.618737 268.614792 128.982993 289.250536 
C 108.347249 309.88628 96.741844 337.904207 96.741844 367.087556 
L 103.843661 367.087556 
C 103.843661 339.787004 114.700331 313.576685 134.004736 294.272279 
C 153.309142 274.967874 179.519461 264.111204 206.820013 264.111204 
C 234.120565 264.111204 260.330884 274.967874 279.63529 294.272279 
C 298.939696 313.576685 309.796365 339.787004 309.796365 367.087556 
L 316.898183 367.087556 
z
" style="fill:#808080;fill-opacity:0.7;"/>
    <path clip-path="url(#p15106acbc8)" d="M 245.880009 367.087556 
C 245.880009 350.142386 239.141386 333.873912 227.159341 321.891867 
C 215.177297 309.909822 198.908823 303.1712 181.963652 303.1712 
C 165.018482 303.1712 148.750008 309.909822 136.767963 321.891867 
C 124.785918 333.873912 118.047296 350.142386 118.047296 367.087556 
L 125.149113 367.087556 
C 125.149113 352.025183 131.139 337.564317 141.789706 326.91361 
C 152.440413 316.262904 166.901279 310.273017 181.963652 310.273017 
C 197.026026 310.273017 211.486892 316.262904 222.137598 326.91361 
C 232.788305 337.564317 238.778191 352.025183 238.778191 367.087556 
L 245.880009 367.087556 
z
" style="fill:#808080;fill-opacity:0.7;"/>
    <path clip-path="url(#p15106acbc8)" d="M 238.778191 367.087556 
C 238.778191 352.025183 232.788305 337.564317 222.137598 326.91361 
C 211.486892 316.262904 197.026026 310.273017 181.963652 310.273017 
C 166.901279 310.273017 152.440413 316.262904 141.789706 326.91361 
C 131.139 337.564317 125.149113 352.025183 125.149113 367.087556 
L 132.250931 367.087556 
C 132.250931 353.907979 137.492081 341.254722 146.81145 331.935354 
C 156.130818 322.615985 168.784075 317.374835 181.963652 317.374835 
C 195.143229 317.374835 207.796487 322.615985 217.115855 331.935354 
C 226.435223 341.254722 231.676374 353.907979 231.676374 367.087556 
L 238.778191 367.087556 
z
" style="fill:#808080;fill-opacity:0.7;"/>
    <path clip-path="url(#p15106acbc8)" d="M 231.676374 367.087556 
C 231.676374 353.907979 226.435223 341.254722 217.115855 331.935354 
C 207.796487 322.615985 195.143229 317.374835 181.963652 317.374835 
C 168.784075 317.374835 156.130818 322.615985 146.81145 331.935354 
C 137.492081 341.254722 132.250931 353.907979 132.250931 367.087556 
L 139.352748 367.087556 
C 139.352748 355.790776 143.845163 344.945127 151.833193 336.957097 
C 159.821223 328.969067 170.666872 324.476652 181.963652 324.476652 
C 193.260433 324.476652 204.106082 328.969067 212.094112 336.957097 
C 220.082142 344.945127 224.574557 355.790776 224.574557 367.087556 
L 231.676374 367.087556 
z
" style="fill:#808080;fill-opacity:0.7;"/>
    <path clip-path="url(#p15106acbc8)" d="M 224.574557 367.087556 
C 224.574557 356.732174 220.45651 346.790329 213.134149 339.467968 
C 205.811788 332.145608 195.869943 328.027561 185.514561 328.027561 
C 175.159179 328.027561 165.217334 332.145608 157.894973 339.467968 
C 150.572612 346.790329 146.454565 356.732174 146.454565 367.087556 
L 153.556383 367.087556 
C 153.556383 358.614971 156.925694 350.480734 162.916716 344.489712 
C 168.907739 338.498689 177.041976 335.129378 185.514561 335.129378 
C 193.987146 335.129378 202.121383 338.498689 208.112406 344.489712 
C 214.103428 350.480734 217.472739 358.614971 217.472739 367.087556 
L 224.574557 367.087556 
z
" style="fill:#808080;fill-opacity:0.7;"/>
    <path clip-path="url(#p15106acbc8)" d="M 217.472739 367.087556 
C 217.472739 358.614971 214.103428 350.480734 208.112406 344.489712 
C 202.121383 338.498689 193.987146 335.129378 185.514561 335.129378 
C 177.041976 335.129378 168.907739 338.498689 162.916716 344.489712 
C 156.925694 350.480734 153.556383 358.614971 153.556383 367.087556 
L 160.6582 367.087556 
C 160.6582 360.497768 163.278776 354.171139 167.93846 349.511455 
C 172.598144 344.851771 178.924773 342.231195 185.514561 342.231195 
C 192.104349 342.231195 198.430978 344.851771 203.090662 349.511455 
C 207.750346 354.171139 210.370922 360.497768 210.370922 367.087556 
L 217.472739 367.087556 
z
" style="fill:#808080;fill-opacity:0.7;"/>
    <path clip-path="url(#p15106acbc8)" d="M 210.370922 367.087556 
C 210.370922 360.497768 207.750346 354.171139 203.090662 349.511455 
C 198.430978 344.851771 192.104349 342.231195 185.514561 342.231195 
C 178.924773 342.231195 172.598144 344.851771 167.93846 349.511455 
C 163.278776 354.171139 160.6582 360.497768 160.6582 367.087556 
L 167.760018 367.087556 
C 167.760018 362.380564 169.631857 357.861544 172.960203 354.533198 
C 176.288549 351.204852 180.807569 349.333013 185.514561 349.333013 
C 190.221553 349.333013 194.740573 351.204852 198.068919 354.533198 
C 201.397265 357.861544 203.269104 362.380564 203.269104 367.087556 
L 210.370922 367.087556 
z
" style="fill:#808080;fill-opacity:0.7;"/>
    <path clip-path="url(#p15106acbc8)" d="M 558.359974 367.087556 
C 558.359974 342.611199 548.626408 319.112292 531.31901 301.804894 
C 514.011612 284.497496 490.512705 274.76393 466.036348 274.76393 
C 441.55999 274.76393 418.061084 284.497496 400.753686 301.804894 
C 383.446288 319.112292 373.712722 342.611199 373.712722 367.087556 
L 380.814539 367.087556 
C 380.814539 344.493996 389.799369 322.802697 405.775429 306.826637 
C 421.751489 290.850578 443.442787 281.865748 466.036348 281.865748 
C 488.629908 281.865748 510.321207 290.850578 526.297266 306.826637 
C 542.273326 322.802697 551.258156 344.493996 551.258156 367.087556 
L 558.359974 367.087556 
z
" style="fill:#808080;fill-opacity:0.7;"/>
    <path clip-path="url(#p15106acbc8)" d="M 551.258156 367.087556 
C 551.258156 344.493996 542.273326 322.802697 526.297266 306.826637 
C 510.321207 290.850578 488.629908 281.865748 466.036348 281.865748 
C 443.442787 281.865748 421.751489 290.850578 405.775429 306.826637 
C 389.799369 322.802697 380.814539 344.493996 380.814539 367.087556 
L 387.916356 367.087556 
C 387.916356 346.376792 396.152451 326.493102 410.797172 311.848381 
C 425.441894 297.203659 445.325584 288.967565 466.036348 288.967565 
C 486.747111 288.967565 506.630802 297.203659 521.275523 311.848381 
C 535.920245 326.493102 544.156339 346.376792 544.156339 367.087556 
L 551.258156 367.087556 
z
" style="fill:#808080;fill-opacity:0.7;"/>
    <path clip-path="url(#p15106acbc8)" d="M 544.156339 367.087556 
C 544.156339 346.376792 535.920245 326.493102 521.275523 311.848381 
C 506.630802 297.203659 486.747111 288.967565 466.036348 288.967565 
C 445.325584 288.967565 425.441894 297.203659 410.797172 311.848381 
C 396.152451 326.493102 387.916356 346.376792 387.916356 367.087556 
L 395.018174 367.087556 
C 395.018174 348.259589 402.505532 330.183507 415.818915 316.870124 
C 429.132299 303.556741 447.208381 296.069382 466.036348 296.069382 
C 484.864315 296.069382 502.940397 303.556741 516.25378 316.870124 
C 529.567163 330.183507 537.054522 348.259589 537.054522 367.087556 
L 544.156339 367.087556 
z
" style="fill:#808080;fill-opacity:0.7;"/>
    <path clip-path="url(#p15106acbc8)" d="M 515.749069 367.087556 
C 515.749069 353.907979 510.507919 341.254722 501.18855 331.935354 
C 491.869182 322.615985 479.215925 317.374835 466.036348 317.374835 
C 452.856771 317.374835 440.203513 322.615985 430.884145 331.935354 
C 421.564777 341.254722 416.323626 353.907979 416.323626 367.087556 
L 423.425443 367.087556 
C 423.425443 355.790776 427.917858 344.945127 435.905888 336.957097 
C 443.893918 328.969067 454.739567 324.476652 466.036348 324.476652 
C 477.333128 324.476652 488.178777 328.969067 496.166807 336.957097 
C 504.154837 344.945127 508.647252 355.790776 508.647252 367.087556 
L 515.749069 367.087556 
z
" style="fill:#808080;fill-opacity:0.7;"/>
    <path clip-path="url(#p15106acbc8)" d="M 508.647252 367.087556 
C 508.647252 355.790776 504.154837 344.945127 496.166807 336.957097 
C 488.178777 328.969067 477.333128 324.476652 466.036348 324.476652 
C 454.739567 324.476652 443.893918 328.969067 435.905888 336.957097 
C 427.917858 344.945127 423.425443 355.790776 423.425443 367.087556 
L 430.527261 367.087556 
C 430.527261 357.673573 434.27094 348.635532 440.927632 341.97884 
C 447.584323 335.322148 456.622364 331.578469 466.036348 331.578469 
C 475.450331 331.578469 484.488372 335.322148 491.145064 341.97884 
C 497.801755 348.635532 501.545435 357.673573 501.545435 367.087556 
L 508.647252 367.087556 
z
" style="fill:#808080;fill-opacity:0.7;"/>
    <path clip-path="url(#p15106acbc8)" d="M 501.545435 367.087556 
C 501.545435 357.673573 497.801755 348.635532 491.145064 341.97884 
C 484.488372 335.322148 475.450331 331.578469 466.036348 331.578469 
C 456.622364 331.578469 447.584323 335.322148 440.927632 341.97884 
C 434.27094 348.635532 430.527261 357.673573 430.527261 367.087556 
L 437.629078 367.087556 
C 437.629078 359.556369 440.624021 352.325937 445.949375 347.000583 
C 451.274728 341.67523 458.505161 338.680287 466.036348 338.680287 
C 473.567535 338.680287 480.797967 341.67523 486.123321 347.000583 
C 491.448674 352.325937 494.443617 359.556369 494.443617 367.087556 
L 501.545435 367.087556 
z
" style="fill:#808080;fill-opacity:0.7;"/>
    <path clip-path="url(#p15106acbc8)" d="M 494.443617 367.087556 
C 494.443617 359.556369 491.448674 352.325937 486.123321 347.000583 
C 480.797967 341.67523 473.567535 338.680287 466.036348 338.680287 
C 458.505161 338.680287 451.274728 341.67523 445.949375 347.000583 
C 440.624021 352.325937 437.629078 359.556369 437.629078 367.087556 
L 444.730896 367.087556 
C 444.730896 361.439166 446.977103 356.016341 450.971118 352.022327 
C 454.965133 348.028312 460.387958 345.782104 466.036348 345.782104 
C 471.684738 345.782104 477.107562 348.028312 481.101577 352.022327 
C 485.095592 356.016341 487.3418 361.439166 487.3418 367.087556 
L 494.443617 367.087556 
z
" style="fill:#808080;fill-opacity:0.7;"/>
   </g>
   <g id="PatchCollection_2">
    <path clip-path="url(#p15106acbc8)" d="M 402.119991 367.087556 
C 402.119991 384.974125 409.232982 402.146403 421.880696 414.794117 
C 434.52841 427.441831 451.700688 434.554821 469.587256 434.554821 
C 487.473825 434.554821 504.646103 427.441831 517.293817 414.794117 
C 529.941531 402.146403 537.054522 384.974125 537.054522 367.087556 
L 529.952704 367.087556 
C 529.952704 383.091328 523.58845 398.455998 512.272074 409.772374 
C 500.955698 421.088749 485.591028 427.453004 469.587256 427.453004 
C 453.583484 427.453004 438.218815 421.088749 426.902439 409.772374 
C 415.586063 398.455998 409.221809 383.091328 409.221809 367.087556 
L 402.119991 367.087556 
z
" style="fill:#fff3ff;fill-opacity:0.6;"/>
    <path clip-path="url(#p15106acbc8)" d="M 515.749069 367.087556 
C 515.749069 376.50154 519.492749 385.539581 526.14944 392.196272 
C 532.806132 398.852964 541.844173 402.596643 551.258156 402.596643 
C 560.67214 402.596643 569.710181 398.852964 576.366872 392.196272 
C 583.023564 385.539581 586.767243 376.50154 586.767243 367.087556 
L 579.665426 367.087556 
C 579.665426 374.618743 576.670482 381.849176 571.345129 387.174529 
C 566.019776 392.499882 558.789343 395.494826 551.258156 395.494826 
C 543.726969 395.494826 536.496537 392.499882 531.171183 387.174529 
C 525.84583 381.849176 522.850887 374.618743 522.850887 367.087556 
L 515.749069 367.087556 
z
" style="fill:#fff3ff;fill-opacity:0.6;"/>
    <path clip-path="url(#p15106acbc8)" d="M 409.221809 367.087556 
C 409.221809 383.091328 415.586063 398.455998 426.902439 409.772374 
C 438.218815 421.088749 453.583484 427.453004 469.587256 427.453004 
C 485.591028 427.453004 500.955698 421.088749 512.272074 409.772374 
C 523.58845 398.455998 529.952704 383.091328 529.952704 367.087556 
L 522.850887 367.087556 
C 522.850887 381.208532 517.235368 394.765593 507.250331 404.75063 
C 497.265293 414.735668 483.708232 420.351187 469.587256 420.351187 
C 455.466281 420.351187 441.90922 414.735668 431.924182 404.75063 
C 421.939145 394.765593 416.323626 381.208532 416.323626 367.087556 
L 409.221809 367.087556 
z
" style="fill:#fff3ff;fill-opacity:0.6;"/>
    <path clip-path="url(#p15106acbc8)" d="M 61.232757 367.087556 
C 61.232757 395.329507 72.463794 422.44363 92.433869 442.413705 
C 112.403944 462.383779 139.518067 473.614817 167.760018 473.614817 
C 196.001968 473.614817 223.116091 462.383779 243.086166 442.413705 
C 263.056241 422.44363 274.287278 395.329507 274.287278 367.087556 
L 267.185461 367.087556 
C 267.185461 393.44671 256.703159 418.753225 238.064423 437.391961 
C 219.425686 456.030698 194.119171 466.513 167.760018 466.513 
C 141.400864 466.513 116.094349 456.030698 97.455612 437.391961 
C 78.816876 418.753225 68.334574 393.44671 68.334574 367.087556 
L 61.232757 367.087556 
z
" style="fill:#fff0ff;fill-opacity:0.6;"/>
    <path clip-path="url(#p15106acbc8)" d="M 68.334574 367.087556 
C 68.334574 393.44671 78.816876 418.753225 97.455612 437.391961 
C 116.094349 456.030698 141.400864 466.513 167.760018 466.513 
C 194.119171 466.513 219.425686 456.030698 238.064423 437.391961 
C 256.703159 418.753225 267.185461 393.44671 267.185461 367.087556 
L 260.083644 367.087556 
C 260.083644 391.563913 250.350078 415.06282 233.04268 432.370218 
C 215.735281 449.677616 192.236375 459.411182 167.760018 459.411182 
C 143.28366 459.411182 119.784754 449.677616 102.477356 432.370218 
C 85.169957 415.06282 75.436392 391.563913 75.436392 367.087556 
L 68.334574 367.087556 
z
" style="fill:#ffedff;fill-opacity:0.6;"/>
    <path clip-path="url(#p15106acbc8)" d="M 75.436392 367.087556 
C 75.436392 391.563913 85.169957 415.06282 102.477356 432.370218 
C 119.784754 449.677616 143.28366 459.411182 167.760018 459.411182 
C 192.236375 459.411182 215.735281 449.677616 233.04268 432.370218 
C 250.350078 415.06282 260.083644 391.563913 260.083644 367.087556 
L 252.981826 367.087556 
C 252.981826 389.681117 243.996996 411.372415 228.020936 427.348475 
C 212.044876 443.324535 190.353578 452.309365 167.760018 452.309365 
C 145.166457 452.309365 123.475159 443.324535 107.499099 427.348475 
C 91.523039 411.372415 82.538209 389.681117 82.538209 367.087556 
L 75.436392 367.087556 
z
" style="fill:#ffedff;fill-opacity:0.6;"/>
    <path clip-path="url(#p15106acbc8)" d="M 75.436392 367.087556 
C 75.436392 401.919295 89.288004 435.360047 113.917763 459.989806 
C 138.547522 484.619565 171.988274 498.471178 206.820013 498.471178 
C 241.651752 498.471178 275.092504 484.619565 299.722263 459.989806 
C 324.352022 435.360047 338.203635 401.919295 338.203635 367.087556 
L 331.101817 367.087556 
C 331.101817 400.036499 317.99894 431.669642 294.70052 454.968063 
C 271.402099 478.266483 239.768956 491.36936 206.820013 491.36936 
C 173.871071 491.36936 142.237927 478.266483 118.939507 454.968063 
C 95.641086 431.669642 82.538209 400.036499 82.538209 367.087556 
L 75.436392 367.087556 
z
" style="fill:#ffebff;fill-opacity:0.6;"/>
    <path clip-path="url(#p15106acbc8)" d="M 68.334574 367.087556 
C 68.334574 395.329507 79.565612 422.44363 99.535686 442.413705 
C 119.505761 462.383779 146.619884 473.614817 174.861835 473.614817 
C 203.103786 473.614817 230.217909 462.383779 250.187983 442.413705 
C 270.158058 422.44363 281.389096 395.329507 281.389096 367.087556 
L 274.287278 367.087556 
C 274.287278 393.44671 263.804977 418.753225 245.16624 437.391961 
C 226.527504 456.030698 201.220989 466.513 174.861835 466.513 
C 148.502681 466.513 123.196166 456.030698 104.55743 437.391961 
C 85.918693 418.753225 75.436392 393.44671 75.436392 367.087556 
L 68.334574 367.087556 
z
" style="fill:#ffe5ff;fill-opacity:0.6;"/>
    <path clip-path="url(#p15106acbc8)" d="M 132.250931 367.087556 
C 132.250931 380.267133 137.492081 392.920391 146.81145 402.239759 
C 156.130818 411.559127 168.784075 416.800278 181.963652 416.800278 
C 195.143229 416.800278 207.796487 411.559127 217.115855 402.239759 
C 226.435223 392.920391 231.676374 380.267133 231.676374 367.087556 
L 224.574557 367.087556 
C 224.574557 378.384336 220.082142 389.229986 212.094112 397.218016 
C 204.106082 405.206046 193.260433 409.698461 181.963652 409.698461 
C 170.666872 409.698461 159.821223 405.206046 151.833193 397.218016 
C 143.845163 389.229986 139.352748 378.384336 139.352748 367.087556 
L 132.250931 367.087556 
z
" style="fill:#ffe3ff;fill-opacity:0.6;"/>
    <path clip-path="url(#p15106acbc8)" d="M 75.436392 367.087556 
C 75.436392 393.44671 85.918693 418.753225 104.55743 437.391961 
C 123.196166 456.030698 148.502681 466.513 174.861835 466.513 
C 201.220989 466.513 226.527504 456.030698 245.16624 437.391961 
C 263.804977 418.753225 274.287278 393.44671 274.287278 367.087556 
L 267.185461 367.087556 
C 267.185461 391.563913 257.451895 415.06282 240.144497 432.370218 
C 222.837099 449.677616 199.338192 459.411182 174.861835 459.411182 
C 150.385478 459.411182 126.886571 449.677616 109.579173 432.370218 
C 92.271775 415.06282 82.538209 391.563913 82.538209 367.087556 
L 75.436392 367.087556 
z
" style="fill:#ffe0ff;fill-opacity:0.6;"/>
    <path clip-path="url(#p15106acbc8)" d="M 395.018174 367.087556 
C 395.018174 385.915523 402.505532 403.991605 415.818915 417.304989 
C 429.132299 430.618372 447.208381 438.10573 466.036348 438.10573 
C 484.864315 438.10573 502.940397 430.618372 516.25378 417.304989 
C 529.567163 403.991605 537.054522 385.915523 537.054522 367.087556 
L 529.952704 367.087556 
C 529.952704 384.032727 523.214082 400.3012 511.232037 412.283245 
C 499.249992 424.26529 482.981518 431.003913 466.036348 431.003913 
C 449.091177 431.003913 432.822703 424.26529 420.840659 412.283245 
C 408.858614 400.3012 402.119991 384.032727 402.119991 367.087556 
L 395.018174 367.087556 
z
" style="fill:#ffe0ff;fill-opacity:0.6;"/>
    <path clip-path="url(#p15106acbc8)" d="M 160.6582 367.087556 
C 160.6582 380.267133 165.899351 392.920391 175.218719 402.239759 
C 184.538087 411.559127 197.191345 416.800278 210.370922 416.800278 
C 223.550499 416.800278 236.203756 411.559127 245.523124 402.239759 
C 254.842493 392.920391 260.083644 380.267133 260.083644 367.087556 
L 252.981826 367.087556 
C 252.981826 378.384336 248.489411 389.229986 240.501381 397.218016 
C 232.513351 405.206046 221.667702 409.698461 210.370922 409.698461 
C 199.074142 409.698461 188.228492 405.206046 180.240462 397.218016 
C 172.252433 389.229986 167.760018 378.384336 167.760018 367.087556 
L 160.6582 367.087556 
z
" style="fill:#ffe0ff;fill-opacity:0.6;"/>
    <path clip-path="url(#p15106acbc8)" d="M 110.945478 367.087556 
C 110.945478 393.44671 121.42778 418.753225 140.066517 437.391961 
C 158.705253 456.030698 184.011768 466.513 210.370922 466.513 
C 236.730076 466.513 262.036591 456.030698 280.675327 437.391961 
C 299.314064 418.753225 309.796365 393.44671 309.796365 367.087556 
L 302.694548 367.087556 
C 302.694548 391.563913 292.960982 415.06282 275.653584 432.370218 
C 258.346186 449.677616 234.847279 459.411182 210.370922 459.411182 
C 185.894565 459.411182 162.395658 449.677616 145.08826 432.370218 
C 127.780862 415.06282 118.047296 391.563913 118.047296 367.087556 
L 110.945478 367.087556 
z
" style="fill:#ffdeff;fill-opacity:0.6;"/>
    <path clip-path="url(#p15106acbc8)" d="M 359.509087 367.087556 
C 359.509087 394.388108 370.365757 420.598427 389.670162 439.902833 
C 408.974568 459.207239 435.184887 470.063908 462.485439 470.063908 
C 489.785991 470.063908 515.99631 459.207239 535.300716 439.902833 
C 554.605121 420.598427 565.461791 394.388108 565.461791 367.087556 
L 558.359974 367.087556 
C 558.359974 392.505312 548.25204 416.908023 530.278973 434.88109 
C 512.305905 452.854157 487.903195 462.962091 462.485439 462.962091 
C 437.067683 462.962091 412.664973 452.854157 394.691905 434.88109 
C 376.718838 416.908023 366.610904 392.505312 366.610904 367.087556 
L 359.509087 367.087556 
z
" style="fill:#fedcff;fill-opacity:0.6;"/>
    <path clip-path="url(#p15106acbc8)" d="M 181.963652 367.087556 
C 181.963652 374.618743 184.958596 381.849176 190.283949 387.174529 
C 195.609302 392.499882 202.839735 395.494826 210.370922 395.494826 
C 217.902109 395.494826 225.132542 392.499882 230.457895 387.174529 
C 235.783248 381.849176 238.778191 374.618743 238.778191 367.087556 
L 231.676374 367.087556 
C 231.676374 372.735946 229.430167 378.158771 225.436152 382.152786 
C 221.442137 386.146801 216.019312 388.393008 210.370922 388.393008 
C 204.722532 388.393008 199.299707 386.146801 195.305692 382.152786 
C 191.311677 378.158771 189.06547 372.735946 189.06547 367.087556 
L 181.963652 367.087556 
z
" style="fill:#fdd9ff;fill-opacity:0.6;"/>
    <path clip-path="url(#p15106acbc8)" d="M 551.258156 367.087556 
C 551.258156 374.618743 554.2531 381.849176 559.578453 387.174529 
C 564.903806 392.499882 572.134239 395.494826 579.665426 395.494826 
C 587.196613 395.494826 594.427045 392.499882 599.752399 387.174529 
C 605.077752 381.849176 608.072695 374.618743 608.072695 367.087556 
L 600.970878 367.087556 
C 600.970878 372.735946 598.72467 378.158771 594.730656 382.152786 
C 590.736641 386.146801 585.313816 388.393008 579.665426 388.393008 
C 574.017036 388.393008 568.594211 386.146801 564.600196 382.152786 
C 560.606181 378.158771 558.359974 372.735946 558.359974 367.087556 
L 551.258156 367.087556 
z
" style="fill:#fdd9ff;fill-opacity:0.6;"/>
    <path clip-path="url(#p15106acbc8)" d="M 89.640026 367.087556 
C 89.640026 399.0951 102.368536 429.82444 125.001287 452.457191 
C 147.634038 475.089943 178.363378 487.818452 210.370922 487.818452 
C 242.378466 487.818452 273.107805 475.089943 295.740557 452.457191 
C 318.373308 429.82444 331.101817 399.0951 331.101817 367.087556 
L 324 367.087556 
C 324 397.212304 312.020227 426.134035 290.718814 447.435448 
C 269.4174 468.736861 240.495669 480.716634 210.370922 480.716634 
C 180.246175 480.716634 151.324443 468.736861 130.02303 447.435448 
C 108.721617 426.134035 96.741844 397.212304 96.741844 367.087556 
L 89.640026 367.087556 
z
" style="fill:#fbd7ff;fill-opacity:0.6;"/>
    <path clip-path="url(#p15106acbc8)" d="M 558.359974 367.087556 
C 558.359974 372.735946 560.606181 378.158771 564.600196 382.152786 
C 568.594211 386.146801 574.017036 388.393008 579.665426 388.393008 
C 585.313816 388.393008 590.736641 386.146801 594.730656 382.152786 
C 598.72467 378.158771 600.970878 372.735946 600.970878 367.087556 
L 593.869061 367.087556 
C 593.869061 370.85315 592.371589 374.468366 589.708912 377.131043 
C 587.046236 379.793719 583.431019 381.291191 579.665426 381.291191 
C 575.899832 381.291191 572.284616 379.793719 569.621939 377.131043 
C 566.959263 374.468366 565.461791 370.85315 565.461791 367.087556 
L 558.359974 367.087556 
z
" style="fill:#fbd7ff;fill-opacity:0.6;"/>
    <path clip-path="url(#p15106acbc8)" d="M 47.029122 367.087556 
C 47.029122 403.802092 61.629471 439.050452 87.590568 465.011549 
C 113.551665 490.972646 148.800025 505.572995 185.514561 505.572995 
C 222.229097 505.572995 257.477457 490.972646 283.438554 465.011549 
C 309.399651 439.050452 324 403.802092 324 367.087556 
L 316.898183 367.087556 
C 316.898183 401.919295 303.04657 435.360047 278.416811 459.989806 
C 253.787052 484.619565 220.3463 498.471178 185.514561 498.471178 
C 150.682822 498.471178 117.24207 484.619565 92.612311 459.989806 
C 67.982552 435.360047 54.130939 401.919295 54.130939 367.087556 
L 47.029122 367.087556 
z
" style="fill:#fbd7ff;fill-opacity:0.6;"/>
    <path clip-path="url(#p15106acbc8)" d="M 96.741844 367.087556 
C 96.741844 397.212304 108.721617 426.134035 130.02303 447.435448 
C 151.324443 468.736861 180.246175 480.716634 210.370922 480.716634 
C 240.495669 480.716634 269.4174 468.736861 290.718814 447.435448 
C 312.020227 426.134035 324 397.212304 324 367.087556 
L 316.898183 367.087556 
C 316.898183 395.329507 305.667145 422.44363 285.69707 442.413705 
C 265.726996 462.383779 238.612872 473.614817 210.370922 473.614817 
C 182.128971 473.614817 155.014848 462.383779 135.044773 442.413705 
C 115.074699 422.44363 103.843661 395.329507 103.843661 367.087556 
L 96.741844 367.087556 
z
" style="fill:#fad5ff;fill-opacity:0.6;"/>
    <path clip-path="url(#p15106acbc8)" d="M 96.741844 367.087556 
C 96.741844 396.270905 108.347249 424.288832 128.982993 444.924576 
C 149.618737 465.56032 177.636664 477.165726 206.820013 477.165726 
C 236.003362 477.165726 264.021289 465.56032 284.657033 444.924576 
C 305.292777 424.288832 316.898183 396.270905 316.898183 367.087556 
L 309.796365 367.087556 
C 309.796365 394.388108 298.939696 420.598427 279.63529 439.902833 
C 260.330884 459.207239 234.120565 470.063908 206.820013 470.063908 
C 179.519461 470.063908 153.309142 459.207239 134.004736 439.902833 
C 114.700331 420.598427 103.843661 394.388108 103.843661 367.087556 
L 96.741844 367.087556 
z
" style="fill:#fad5ff;fill-opacity:0.6;"/>
    <path clip-path="url(#p15106acbc8)" d="M 89.640026 367.087556 
C 89.640026 398.153702 101.994168 427.979237 123.96125 449.94632 
C 145.928332 471.913402 175.753867 484.267543 206.820013 484.267543 
C 237.886159 484.267543 267.711694 471.913402 289.678776 449.94632 
C 311.645859 427.979237 324 398.153702 324 367.087556 
L 316.898183 367.087556 
C 316.898183 396.270905 305.292777 424.288832 284.657033 444.924576 
C 264.021289 465.56032 236.003362 477.165726 206.820013 477.165726 
C 177.636664 477.165726 149.618737 465.56032 128.982993 444.924576 
C 108.347249 424.288832 96.741844 396.270905 96.741844 367.087556 
L 89.640026 367.087556 
z
" style="fill:#fad5ff;fill-opacity:0.6;"/>
    <path clip-path="url(#p15106acbc8)" d="M 103.843661 367.087556 
C 103.843661 395.329507 115.074699 422.44363 135.044773 442.413705 
C 155.014848 462.383779 182.128971 473.614817 210.370922 473.614817 
C 238.612872 473.614817 265.726996 462.383779 285.69707 442.413705 
C 305.667145 422.44363 316.898183 395.329507 316.898183 367.087556 
L 309.796365 367.087556 
C 309.796365 393.44671 299.314064 418.753225 280.675327 437.391961 
C 262.036591 456.030698 236.730076 466.513 210.370922 466.513 
C 184.011768 466.513 158.705253 456.030698 140.066517 437.391961 
C 121.42778 418.753225 110.945478 393.44671 110.945478 367.087556 
L 103.843661 367.087556 
z
" style="fill:#fad5ff;fill-opacity:0.6;"/>
    <path clip-path="url(#p15106acbc8)" d="M 82.538209 367.087556 
C 82.538209 400.036499 95.641086 431.669642 118.939507 454.968063 
C 142.237927 478.266483 173.871071 491.36936 206.820013 491.36936 
C 239.768956 491.36936 271.402099 478.266483 294.70052 454.968063 
C 317.99894 431.669642 331.101817 400.036499 331.101817 367.087556 
L 324 367.087556 
C 324 398.153702 311.645859 427.979237 289.678776 449.94632 
C 267.711694 471.913402 237.886159 484.267543 206.820013 484.267543 
C 175.753867 484.267543 145.928332 471.913402 123.96125 449.94632 
C 101.994168 427.979237 89.640026 398.153702 89.640026 367.087556 
L 82.538209 367.087556 
z
" style="fill:#f9d3ff;fill-opacity:0.6;"/>
    <path clip-path="url(#p15106acbc8)" d="M 39.927305 367.087556 
C 39.927305 405.684889 55.276389 442.740857 82.568825 470.033292 
C 109.86126 497.325728 146.917229 512.674813 185.514561 512.674813 
C 224.111894 512.674813 261.167862 497.325728 288.460297 470.033292 
C 315.752733 442.740857 331.101817 405.684889 331.101817 367.087556 
L 324 367.087556 
C 324 403.802092 309.399651 439.050452 283.438554 465.011549 
C 257.477457 490.972646 222.229097 505.572995 185.514561 505.572995 
C 148.800025 505.572995 113.551665 490.972646 87.590568 465.011549 
C 61.629471 439.050452 47.029122 403.802092 47.029122 367.087556 
L 39.927305 367.087556 
z
" style="fill:#f9d3ff;fill-opacity:0.6;"/>
    <path clip-path="url(#p15106acbc8)" d="M 39.927305 367.087556 
C 39.927305 404.74349 54.902021 440.895654 81.528788 467.522421 
C 108.155554 494.149187 144.307718 509.123904 181.963652 509.123904 
C 219.619586 509.123904 255.771751 494.149187 282.398517 467.522421 
C 309.025283 440.895654 324 404.74349 324 367.087556 
L 316.898183 367.087556 
C 316.898183 402.860694 302.672202 437.20525 277.376774 462.500678 
C 252.081346 487.796106 217.73679 502.022087 181.963652 502.022087 
C 146.190515 502.022087 111.845959 487.796106 86.550531 462.500678 
C 61.255103 437.20525 47.029122 402.860694 47.029122 367.087556 
L 39.927305 367.087556 
z
" style="fill:#f1ccff;fill-opacity:0.6;"/>
    <path clip-path="url(#p15106acbc8)" d="M 47.029122 367.087556 
C 47.029122 402.860694 61.255103 437.20525 86.550531 462.500678 
C 111.845959 487.796106 146.190515 502.022087 181.963652 502.022087 
C 217.73679 502.022087 252.081346 487.796106 277.376774 462.500678 
C 302.672202 437.20525 316.898183 402.860694 316.898183 367.087556 
L 309.796365 367.087556 
C 309.796365 400.977897 296.31912 433.514845 272.35503 457.478934 
C 248.390941 481.443024 215.853993 494.920269 181.963652 494.920269 
C 148.073312 494.920269 115.536364 481.443024 91.572274 457.478934 
C 67.608184 433.514845 54.130939 400.977897 54.130939 367.087556 
L 47.029122 367.087556 
z
" style="fill:#efcaff;fill-opacity:0.6;"/>
    <path clip-path="url(#p15106acbc8)" d="M 387.916356 367.087556 
C 387.916356 387.79832 396.152451 407.68201 410.797172 422.326732 
C 425.441894 436.971453 445.325584 445.207547 466.036348 445.207547 
C 486.747111 445.207547 506.630802 436.971453 521.275523 422.326732 
C 535.920245 407.68201 544.156339 387.79832 544.156339 367.087556 
L 537.054522 367.087556 
C 537.054522 385.915523 529.567163 403.991605 516.25378 417.304989 
C 502.940397 430.618372 484.864315 438.10573 466.036348 438.10573 
C 447.208381 438.10573 429.132299 430.618372 415.818915 417.304989 
C 402.505532 403.991605 395.018174 385.915523 395.018174 367.087556 
L 387.916356 367.087556 
z
" style="fill:#e0c2ff;fill-opacity:0.6;"/>
    <path clip-path="url(#p15106acbc8)" d="M 387.916356 367.087556 
C 387.916356 388.739718 396.526819 409.527213 411.837209 424.837603 
C 427.1476 440.147994 447.935094 448.758456 469.587256 448.758456 
C 491.239419 448.758456 512.026913 440.147994 527.337304 424.837603 
C 542.647694 409.527213 551.258156 388.739718 551.258156 367.087556 
L 544.156339 367.087556 
C 544.156339 386.856922 536.294613 405.836808 522.31556 419.81586 
C 508.336508 433.794912 489.356622 441.656639 469.587256 441.656639 
C 449.817891 441.656639 430.838005 433.794912 416.858952 419.81586 
C 402.8799 405.836808 395.018174 386.856922 395.018174 367.087556 
L 387.916356 367.087556 
z
" style="fill:#d8beff;fill-opacity:0.6;"/>
    <path clip-path="url(#p15106acbc8)" d="M 125.149113 367.087556 
C 125.149113 382.14993 131.139 396.610796 141.789706 407.261502 
C 152.440413 417.912209 166.901279 423.902095 181.963652 423.902095 
C 197.026026 423.902095 211.486892 417.912209 222.137598 407.261502 
C 232.788305 396.610796 238.778191 382.14993 238.778191 367.087556 
L 231.676374 367.087556 
C 231.676374 380.267133 226.435223 392.920391 217.115855 402.239759 
C 207.796487 411.559127 195.143229 416.800278 181.963652 416.800278 
C 168.784075 416.800278 156.130818 411.559127 146.81145 402.239759 
C 137.492081 392.920391 132.250931 380.267133 132.250931 367.087556 
L 125.149113 367.087556 
z
" style="fill:#cabbff;fill-opacity:0.6;"/>
    <path clip-path="url(#p15106acbc8)" d="M 373.712722 367.087556 
C 373.712722 392.505312 383.820655 416.908023 401.793723 434.88109 
C 419.76679 452.854157 444.169501 462.962091 469.587256 462.962091 
C 495.005012 462.962091 519.407723 452.854157 537.38079 434.88109 
C 555.353857 416.908023 565.461791 392.505312 565.461791 367.087556 
L 558.359974 367.087556 
C 558.359974 390.622515 549.000776 413.217618 532.359047 429.859347 
C 515.717318 446.501076 493.122215 455.860274 469.587256 455.860274 
C 446.052298 455.860274 423.457195 446.501076 406.815466 429.859347 
C 390.173737 413.217618 380.814539 390.622515 380.814539 367.087556 
L 373.712722 367.087556 
z
" style="fill:#b8b8ff;fill-opacity:0.6;"/>
    <path clip-path="url(#p15106acbc8)" d="M 380.814539 367.087556 
C 380.814539 390.622515 390.173737 413.217618 406.815466 429.859347 
C 423.457195 446.501076 446.052298 455.860274 469.587256 455.860274 
C 493.122215 455.860274 515.717318 446.501076 532.359047 429.859347 
C 549.000776 413.217618 558.359974 390.622515 558.359974 367.087556 
L 551.258156 367.087556 
C 551.258156 388.739718 542.647694 409.527213 527.337304 424.837603 
C 512.026913 440.147994 491.239419 448.758456 469.587256 448.758456 
C 447.935094 448.758456 427.1476 440.147994 411.837209 424.837603 
C 396.526819 409.527213 387.916356 388.739718 387.916356 367.087556 
L 380.814539 367.087556 
z
" style="fill:#b4b7ff;fill-opacity:0.6;"/>
    <path clip-path="url(#p15106acbc8)" d="M 373.712722 367.087556 
C 373.712722 391.563913 383.446288 415.06282 400.753686 432.370218 
C 418.061084 449.677616 441.55999 459.411182 466.036348 459.411182 
C 490.512705 459.411182 514.011612 449.677616 531.31901 432.370218 
C 548.626408 415.06282 558.359974 391.563913 558.359974 367.087556 
L 551.258156 367.087556 
C 551.258156 389.681117 542.273326 411.372415 526.297266 427.348475 
C 510.321207 443.324535 488.629908 452.309365 466.036348 452.309365 
C 443.442787 452.309365 421.751489 443.324535 405.775429 427.348475 
C 389.799369 411.372415 380.814539 389.681117 380.814539 367.087556 
L 373.712722 367.087556 
z
" style="fill:#94b5ff;fill-opacity:0.6;"/>
    <path clip-path="url(#p15106acbc8)" d="M 380.814539 367.087556 
C 380.814539 389.681117 389.799369 411.372415 405.775429 427.348475 
C 421.751489 443.324535 443.442787 452.309365 466.036348 452.309365 
C 488.629908 452.309365 510.321207 443.324535 526.297266 427.348475 
C 542.273326 411.372415 551.258156 389.681117 551.258156 367.087556 
L 544.156339 367.087556 
C 544.156339 387.79832 535.920245 407.68201 521.275523 422.326732 
C 506.630802 436.971453 486.747111 445.207547 466.036348 445.207547 
C 445.325584 445.207547 425.441894 436.971453 410.797172 422.326732 
C 396.152451 407.68201 387.916356 387.79832 387.916356 367.087556 
L 380.814539 367.087556 
z
" style="fill:#7fb6ff;fill-opacity:0.6;"/>
    <path clip-path="url(#p15106acbc8)" d="M 132.250931 367.087556 
C 132.250931 381.208532 137.866449 394.765593 147.851487 404.75063 
C 157.836524 414.735668 171.393586 420.351187 185.514561 420.351187 
C 199.635536 420.351187 213.192598 414.735668 223.177635 404.75063 
C 233.162673 394.765593 238.778191 381.208532 238.778191 367.087556 
L 231.676374 367.087556 
C 231.676374 379.325735 226.809591 391.075188 218.155892 399.728887 
C 209.502193 408.382586 197.75274 413.249369 185.514561 413.249369 
C 173.276382 413.249369 161.526929 408.382586 152.87323 399.728887 
C 144.219531 391.075188 139.352748 379.325735 139.352748 367.087556 
L 132.250931 367.087556 
z
" style="fill:#36baff;fill-opacity:0.6;"/>
    <path clip-path="url(#p15106acbc8)" d="M 153.556383 367.087556 
C 153.556383 375.560141 156.925694 383.694378 162.916716 389.685401 
C 168.907739 395.676423 177.041976 399.045734 185.514561 399.045734 
C 193.987146 399.045734 202.121383 395.676423 208.112406 389.685401 
C 214.103428 383.694378 217.472739 375.560141 217.472739 367.087556 
L 210.370922 367.087556 
C 210.370922 373.677345 207.750346 380.003973 203.090662 384.663658 
C 198.430978 389.323342 192.104349 391.943917 185.514561 391.943917 
C 178.924773 391.943917 172.598144 389.323342 167.93846 384.663658 
C 163.278776 380.003973 160.6582 373.677345 160.6582 367.087556 
L 153.556383 367.087556 
z
" style="fill:#36baff;fill-opacity:0.6;"/>
    <path clip-path="url(#p15106acbc8)" d="M 146.454565 367.087556 
C 146.454565 377.442938 150.572612 387.384783 157.894973 394.707144 
C 165.217334 402.029505 175.159179 406.147552 185.514561 406.147552 
C 195.869943 406.147552 205.811788 402.029505 213.134149 394.707144 
C 220.45651 387.384783 224.574557 377.442938 224.574557 367.087556 
L 217.472739 367.087556 
C 217.472739 375.560141 214.103428 383.694378 208.112406 389.685401 
C 202.121383 395.676423 193.987146 399.045734 185.514561 399.045734 
C 177.041976 399.045734 168.907739 395.676423 162.916716 389.685401 
C 156.925694 383.694378 153.556383 375.560141 153.556383 367.087556 
L 146.454565 367.087556 
z
" style="fill:#00bdc4;fill-opacity:0.6;"/>
    <path clip-path="url(#p15106acbc8)" d="M 118.047296 367.087556 
C 118.047296 384.032727 124.785918 400.3012 136.767963 412.283245 
C 148.750008 424.26529 165.018482 431.003913 181.963652 431.003913 
C 198.908823 431.003913 215.177297 424.26529 227.159341 412.283245 
C 239.141386 400.3012 245.880009 384.032727 245.880009 367.087556 
L 238.778191 367.087556 
C 238.778191 382.14993 232.788305 396.610796 222.137598 407.261502 
C 211.486892 417.912209 197.026026 423.902095 181.963652 423.902095 
C 166.901279 423.902095 152.440413 417.912209 141.789706 407.261502 
C 131.139 396.610796 125.149113 382.14993 125.149113 367.087556 
L 118.047296 367.087556 
z
" style="fill:#00bdb6;fill-opacity:0.6;"/>
    <path clip-path="url(#p15106acbc8)" d="M 139.352748 367.087556 
C 139.352748 379.325735 144.219531 391.075188 152.87323 399.728887 
C 161.526929 408.382586 173.276382 413.249369 185.514561 413.249369 
C 197.75274 413.249369 209.502193 408.382586 218.155892 399.728887 
C 226.809591 391.075188 231.676374 379.325735 231.676374 367.087556 
L 224.574557 367.087556 
C 224.574557 377.442938 220.45651 387.384783 213.134149 394.707144 
C 205.811788 402.029505 195.869943 406.147552 185.514561 406.147552 
C 175.159179 406.147552 165.217334 402.029505 157.894973 394.707144 
C 150.572612 387.384783 146.454565 377.442938 146.454565 367.087556 
L 139.352748 367.087556 
z
" style="fill:#00bca0;fill-opacity:0.6;"/>
    <path clip-path="url(#p15106acbc8)" d="M 160.6582 367.087556 
C 160.6582 373.677345 163.278776 380.003973 167.93846 384.663658 
C 172.598144 389.323342 178.924773 391.943917 185.514561 391.943917 
C 192.104349 391.943917 198.430978 389.323342 203.090662 384.663658 
C 207.750346 380.003973 210.370922 373.677345 210.370922 367.087556 
L 203.269104 367.087556 
C 203.269104 371.794548 201.397265 376.313569 198.068919 379.641914 
C 194.740573 382.97026 190.221553 384.8421 185.514561 384.8421 
C 180.807569 384.8421 176.288549 382.97026 172.960203 379.641914 
C 169.631857 376.313569 167.760018 371.794548 167.760018 367.087556 
L 160.6582 367.087556 
z
" style="fill:#00b984;fill-opacity:0.6;"/>
    <path clip-path="url(#p15106acbc8)" d="M 437.629078 367.087556 
C 437.629078 374.618743 440.624021 381.849176 445.949375 387.174529 
C 451.274728 392.499882 458.505161 395.494826 466.036348 395.494826 
C 473.567535 395.494826 480.797967 392.499882 486.123321 387.174529 
C 491.448674 381.849176 494.443617 374.618743 494.443617 367.087556 
L 487.3418 367.087556 
C 487.3418 372.735946 485.095592 378.158771 481.101577 382.152786 
C 477.107562 386.146801 471.684738 388.393008 466.036348 388.393008 
C 460.387958 388.393008 454.965133 386.146801 450.971118 382.152786 
C 446.977103 378.158771 444.730896 372.735946 444.730896 367.087556 
L 437.629078 367.087556 
z
" style="fill:#0b7000;fill-opacity:0.6;"/>
    <path clip-path="url(#p15106acbc8)" d="M 416.323626 367.087556 
C 416.323626 380.267133 421.564777 392.920391 430.884145 402.239759 
C 440.203513 411.559127 452.856771 416.800278 466.036348 416.800278 
C 479.215925 416.800278 491.869182 411.559127 501.18855 402.239759 
C 510.507919 392.920391 515.749069 380.267133 515.749069 367.087556 
L 508.647252 367.087556 
C 508.647252 378.384336 504.154837 389.229986 496.166807 397.218016 
C 488.178777 405.206046 477.333128 409.698461 466.036348 409.698461 
C 454.739567 409.698461 443.893918 405.206046 435.905888 397.218016 
C 427.917858 389.229986 423.425443 378.384336 423.425443 367.087556 
L 416.323626 367.087556 
z
" style="fill:#0b7000;fill-opacity:0.6;"/>
    <path clip-path="url(#p15106acbc8)" d="M 423.425443 367.087556 
C 423.425443 378.384336 427.917858 389.229986 435.905888 397.218016 
C 443.893918 405.206046 454.739567 409.698461 466.036348 409.698461 
C 477.333128 409.698461 488.178777 405.206046 496.166807 397.218016 
C 504.154837 389.229986 508.647252 378.384336 508.647252 367.087556 
L 501.545435 367.087556 
C 501.545435 376.50154 497.801755 385.539581 491.145064 392.196272 
C 484.488372 398.852964 475.450331 402.596643 466.036348 402.596643 
C 456.622364 402.596643 447.584323 398.852964 440.927632 392.196272 
C 434.27094 385.539581 430.527261 376.50154 430.527261 367.087556 
L 423.425443 367.087556 
z
" style="fill:#0d6d00;fill-opacity:0.6;"/>
    <path clip-path="url(#p15106acbc8)" d="M 430.527261 367.087556 
C 430.527261 376.50154 434.27094 385.539581 440.927632 392.196272 
C 447.584323 398.852964 456.622364 402.596643 466.036348 402.596643 
C 475.450331 402.596643 484.488372 398.852964 491.145064 392.196272 
C 497.801755 385.539581 501.545435 376.50154 501.545435 367.087556 
L 494.443617 367.087556 
C 494.443617 374.618743 491.448674 381.849176 486.123321 387.174529 
C 480.797967 392.499882 473.567535 395.494826 466.036348 395.494826 
C 458.505161 395.494826 451.274728 392.499882 445.949375 387.174529 
C 440.624021 381.849176 437.629078 374.618743 437.629078 367.087556 
L 430.527261 367.087556 
z
" style="fill:#0d6d00;fill-opacity:0.6;"/>
   </g>
   <g id="patch_3">
    <path clip-path="url(#p15106acbc8)" d="M 39.749759 367.087556 
L 47.206667 367.087556 
L 47.206667 366.945621 
L 39.749759 366.945621 
z
"/>
   </g>
   <g id="patch_4">
    <path clip-path="url(#p15106acbc8)" d="M 46.851577 367.087556 
L 54.308485 367.087556 
L 54.308485 319.076429 
L 46.851577 319.076429 
z
" style="fill:#ffa500;"/>
   </g>
   <g id="patch_5">
    <path clip-path="url(#p15106acbc8)" d="M 53.953394 367.087556 
L 61.410302 367.087556 
L 61.410302 342.613986 
L 53.953394 342.613986 
z
"/>
   </g>
   <g id="patch_6">
    <path clip-path="url(#p15106acbc8)" d="M 61.055211 367.087556 
L 68.51212 367.087556 
L 68.51212 350.276523 
L 61.055211 350.276523 
z
"/>
   </g>
   <g id="patch_7">
    <path clip-path="url(#p15106acbc8)" d="M 68.157029 367.087556 
L 75.613937 367.087556 
L 75.613937 354.818645 
L 68.157029 354.818645 
z
"/>
   </g>
   <g id="patch_8">
    <path clip-path="url(#p15106acbc8)" d="M 75.258846 367.087556 
L 82.715754 367.087556 
L 82.715754 357.855386 
L 75.258846 357.855386 
z
"/>
   </g>
   <g id="patch_9">
    <path clip-path="url(#p15106acbc8)" d="M 82.360664 367.087556 
L 89.817572 367.087556 
L 89.817572 297.201319 
L 82.360664 297.201319 
z
" style="fill:#ff0000;"/>
   </g>
   <g id="patch_10">
    <path clip-path="url(#p15106acbc8)" d="M 89.462481 367.087556 
L 96.919389 367.087556 
L 96.919389 295.163124 
L 89.462481 295.163124 
z
" style="fill:#ff0000;"/>
   </g>
   <g id="patch_11">
    <path clip-path="url(#p15106acbc8)" d="M 96.564298 367.087556 
L 104.021207 367.087556 
L 104.021207 323.604174 
L 96.564298 323.604174 
z
" style="fill:#ffa500;"/>
   </g>
   <g id="patch_12">
    <path clip-path="url(#p15106acbc8)" d="M 103.666116 367.087556 
L 111.123024 367.087556 
L 111.123024 343.673864 
L 103.666116 343.673864 
z
"/>
   </g>
   <g id="patch_13">
    <path clip-path="url(#p15106acbc8)" d="M 110.767933 367.087556 
L 118.224841 367.087556 
L 118.224841 353.52987 
L 110.767933 353.52987 
z
"/>
   </g>
   <g id="patch_14">
    <path clip-path="url(#p15106acbc8)" d="M 117.86975 367.087556 
L 125.326659 367.087556 
L 125.326659 330.72934 
L 117.86975 330.72934 
z
" style="fill:#ffa500;"/>
   </g>
   <g id="patch_15">
    <path clip-path="url(#p15106acbc8)" d="M 124.971568 367.087556 
L 132.428476 367.087556 
L 132.428476 353.996706 
L 124.971568 353.996706 
z
"/>
   </g>
   <g id="patch_16">
    <path clip-path="url(#p15106acbc8)" d="M 132.073385 367.087556 
L 139.530293 367.087556 
L 139.530293 358.974903 
L 132.073385 358.974903 
z
"/>
   </g>
   <g id="patch_17">
    <path clip-path="url(#p15106acbc8)" d="M 139.175203 367.087556 
L 146.632111 367.087556 
L 146.632111 225.845643 
L 139.175203 225.845643 
z
" style="fill:#ff0000;"/>
   </g>
   <g id="patch_18">
    <path clip-path="url(#p15106acbc8)" d="M 146.27702 367.087556 
L 153.733928 367.087556 
L 153.733928 344.849091 
L 146.27702 344.849091 
z
"/>
   </g>
   <g id="patch_19">
    <path clip-path="url(#p15106acbc8)" d="M 153.378837 367.087556 
L 160.835746 367.087556 
L 160.835746 325.17682 
L 153.378837 325.17682 
z
" style="fill:#ffa500;"/>
   </g>
   <g id="patch_20">
    <path clip-path="url(#p15106acbc8)" d="M 160.480655 367.087556 
L 167.937563 367.087556 
L 167.937563 348.965611 
L 160.480655 348.965611 
z
"/>
   </g>
   <g id="patch_21">
    <path clip-path="url(#p15106acbc8)" d="M 167.582472 367.087556 
L 175.03938 367.087556 
L 175.03938 350.739417 
L 167.582472 350.739417 
z
"/>
   </g>
   <g id="patch_22">
    <path clip-path="url(#p15106acbc8)" d="M 174.68429 367.087556 
L 182.141198 367.087556 
L 182.141198 300.34945 
L 174.68429 300.34945 
z
" style="fill:#ff0000;"/>
   </g>
   <g id="patch_23">
    <path clip-path="url(#p15106acbc8)" d="M 181.786107 367.087556 
L 189.243015 367.087556 
L 189.243015 284.228852 
L 181.786107 284.228852 
z
" style="fill:#ff0000;"/>
   </g>
   <g id="patch_24">
    <path clip-path="url(#p15106acbc8)" d="M 188.887924 367.087556 
L 196.344833 367.087556 
L 196.344833 336.386892 
L 188.887924 336.386892 
z
" style="fill:#ffa500;"/>
   </g>
   <g id="patch_25">
    <path clip-path="url(#p15106acbc8)" d="M 195.989742 367.087556 
L 203.44665 367.087556 
L 203.44665 327.388176 
L 195.989742 327.388176 
z
" style="fill:#ffa500;"/>
   </g>
   <g id="patch_26">
    <path clip-path="url(#p15106acbc8)" d="M 203.091559 367.087556 
L 210.548467 367.087556 
L 210.548467 349.575545 
L 203.091559 349.575545 
z
"/>
   </g>
   <g id="patch_27">
    <path clip-path="url(#p15106acbc8)" d="M 210.193376 367.087556 
L 217.650285 367.087556 
L 217.650285 352.568456 
L 210.193376 352.568456 
z
"/>
   </g>
   <g id="patch_28">
    <path clip-path="url(#p15106acbc8)" d="M 217.295194 367.087556 
L 224.752102 367.087556 
L 224.752102 351.048836 
L 217.295194 351.048836 
z
"/>
   </g>
   <g id="patch_29">
    <path clip-path="url(#p15106acbc8)" d="M 224.397011 367.087556 
L 231.853919 367.087556 
L 231.853919 348.493996 
L 224.397011 348.493996 
z
"/>
   </g>
   <g id="patch_30">
    <path clip-path="url(#p15106acbc8)" d="M 231.498829 367.087556 
L 238.955737 367.087556 
L 238.955737 295.642866 
L 231.498829 295.642866 
z
" style="fill:#ff0000;"/>
   </g>
   <g id="patch_31">
    <path clip-path="url(#p15106acbc8)" d="M 238.600646 367.087556 
L 246.057554 367.087556 
L 246.057554 359.230738 
L 238.600646 359.230738 
z
"/>
   </g>
   <g id="patch_32">
    <path clip-path="url(#p15106acbc8)" d="M 245.702463 367.087556 
L 253.159372 367.087556 
L 253.159372 351.026127 
L 245.702463 351.026127 
z
"/>
   </g>
   <g id="patch_33">
    <path clip-path="url(#p15106acbc8)" d="M 252.804281 367.087556 
L 260.261189 367.087556 
L 260.261189 354.452451 
L 252.804281 354.452451 
z
"/>
   </g>
   <g id="patch_34">
    <path clip-path="url(#p15106acbc8)" d="M 259.906098 367.087556 
L 267.363006 367.087556 
L 267.363006 350.265944 
L 259.906098 350.265944 
z
"/>
   </g>
   <g id="patch_35">
    <path clip-path="url(#p15106acbc8)" d="M 267.007915 367.087556 
L 274.464824 367.087556 
L 274.464824 327.521596 
L 267.007915 327.521596 
z
" style="fill:#ffa500;"/>
   </g>
   <g id="patch_36">
    <path clip-path="url(#p15106acbc8)" d="M 274.109733 367.087556 
L 281.566641 367.087556 
L 281.566641 361.94297 
L 274.109733 361.94297 
z
"/>
   </g>
   <g id="patch_37">
    <path clip-path="url(#p15106acbc8)" d="M 281.21155 367.087556 
L 288.668459 367.087556 
L 288.668459 282.966029 
L 281.21155 282.966029 
z
" style="fill:#ff0000;"/>
   </g>
   <g id="patch_38">
    <path clip-path="url(#p15106acbc8)" d="M 288.313368 367.087556 
L 295.770276 367.087556 
L 295.770276 342.199456 
L 288.313368 342.199456 
z
"/>
   </g>
   <g id="patch_39">
    <path clip-path="url(#p15106acbc8)" d="M 295.415185 367.087556 
L 302.872093 367.087556 
L 302.872093 321.778882 
L 295.415185 321.778882 
z
" style="fill:#ffa500;"/>
   </g>
   <g id="patch_40">
    <path clip-path="url(#p15106acbc8)" d="M 302.517002 367.087556 
L 309.973911 367.087556 
L 309.973911 347.975935 
L 302.517002 347.975935 
z
"/>
   </g>
   <g id="patch_41">
    <path clip-path="url(#p15106acbc8)" d="M 309.61882 367.087556 
L 317.075728 367.087556 
L 317.075728 356.933996 
L 309.61882 356.933996 
z
"/>
   </g>
   <g id="patch_42">
    <path clip-path="url(#p15106acbc8)" d="M 316.720637 367.087556 
L 324.177545 367.087556 
L 324.177545 359.547165 
L 316.720637 359.547165 
z
"/>
   </g>
   <g id="patch_43">
    <path clip-path="url(#p15106acbc8)" d="M 323.822455 367.087556 
L 331.279363 367.087556 
L 331.279363 353.475419 
L 323.822455 353.475419 
z
"/>
   </g>
   <g id="patch_44">
    <path clip-path="url(#p15106acbc8)" d="M 330.924272 367.087556 
L 338.38118 367.087556 
L 338.38118 305.135517 
L 330.924272 305.135517 
z
" style="fill:#ff0000;"/>
   </g>
   <g id="patch_45">
    <path clip-path="url(#p15106acbc8)" d="M 338.026089 367.087556 
L 345.482998 367.087556 
L 345.482998 349.115674 
L 338.026089 349.115674 
z
"/>
   </g>
   <g id="patch_46">
    <path clip-path="url(#p15106acbc8)" d="M 345.127907 367.087556 
L 352.584815 367.087556 
L 352.584815 339.475683 
L 345.127907 339.475683 
z
"/>
   </g>
   <g id="patch_47">
    <path clip-path="url(#p15106acbc8)" d="M 352.229724 367.087556 
L 359.686632 367.087556 
L 359.686632 327.799789 
L 352.229724 327.799789 
z
" style="fill:#ffa500;"/>
   </g>
   <g id="patch_48">
    <path clip-path="url(#p15106acbc8)" d="M 359.331541 367.087556 
L 366.78845 367.087556 
L 366.78845 321.013266 
L 359.331541 321.013266 
z
" style="fill:#ffa500;"/>
   </g>
   <g id="patch_49">
    <path clip-path="url(#p15106acbc8)" d="M 366.433359 367.087556 
L 373.890267 367.087556 
L 373.890267 337.054871 
L 366.433359 337.054871 
z
" style="fill:#ffa500;"/>
   </g>
   <g id="patch_50">
    <path clip-path="url(#p15106acbc8)" d="M 373.535176 367.087556 
L 380.992085 367.087556 
L 380.992085 356.698359 
L 373.535176 356.698359 
z
"/>
   </g>
   <g id="patch_51">
    <path clip-path="url(#p15106acbc8)" d="M 380.636994 367.087556 
L 388.093902 367.087556 
L 388.093902 356.740678 
L 380.636994 356.740678 
z
"/>
   </g>
   <g id="patch_52">
    <path clip-path="url(#p15106acbc8)" d="M 387.738811 367.087556 
L 395.195719 367.087556 
L 395.195719 347.883673 
L 387.738811 347.883673 
z
"/>
   </g>
   <g id="patch_53">
    <path clip-path="url(#p15106acbc8)" d="M 394.840628 367.087556 
L 402.297537 367.087556 
L 402.297537 351.213482 
L 394.840628 351.213482 
z
"/>
   </g>
   <g id="patch_54">
    <path clip-path="url(#p15106acbc8)" d="M 401.942446 367.087556 
L 409.399354 367.087556 
L 409.399354 345.519537 
L 401.942446 345.519537 
z
"/>
   </g>
   <g id="patch_55">
    <path clip-path="url(#p15106acbc8)" d="M 409.044263 367.087556 
L 416.501171 367.087556 
L 416.501171 309.430488 
L 409.044263 309.430488 
z
" style="fill:#ffa500;"/>
   </g>
   <g id="patch_56">
    <path clip-path="url(#p15106acbc8)" d="M 416.146081 367.087556 
L 423.602989 367.087556 
L 423.602989 359.593331 
L 416.146081 359.593331 
z
"/>
   </g>
   <g id="patch_57">
    <path clip-path="url(#p15106acbc8)" d="M 423.247898 367.087556 
L 430.704806 367.087556 
L 430.704806 355.065613 
L 423.247898 355.065613 
z
"/>
   </g>
   <g id="patch_58">
    <path clip-path="url(#p15106acbc8)" d="M 430.349715 367.087556 
L 437.806624 367.087556 
L 437.806624 296.270221 
L 430.349715 296.270221 
z
" style="fill:#ff0000;"/>
   </g>
   <g id="patch_59">
    <path clip-path="url(#p15106acbc8)" d="M 437.451533 367.087556 
L 444.908441 367.087556 
L 444.908441 341.902508 
L 437.451533 341.902508 
z
"/>
   </g>
   <g id="patch_60">
    <path clip-path="url(#p15106acbc8)" d="M 444.55335 367.087556 
L 452.010258 367.087556 
L 452.010258 343.164126 
L 444.55335 343.164126 
z
"/>
   </g>
   <g id="patch_61">
    <path clip-path="url(#p15106acbc8)" d="M 451.655167 367.087556 
L 459.112076 367.087556 
L 459.112076 358.347164 
L 451.655167 358.347164 
z
"/>
   </g>
   <g id="patch_62">
    <path clip-path="url(#p15106acbc8)" d="M 458.756985 367.087556 
L 466.213893 367.087556 
L 466.213893 341.545443 
L 458.756985 341.545443 
z
"/>
   </g>
   <g id="patch_63">
    <path clip-path="url(#p15106acbc8)" d="M 465.858802 367.087556 
L 473.31571 367.087556 
L 473.31571 343.709458 
L 465.858802 343.709458 
z
"/>
   </g>
   <g id="patch_64">
    <path clip-path="url(#p15106acbc8)" d="M 472.96062 367.087556 
L 480.417528 367.087556 
L 480.417528 353.152322 
L 472.96062 353.152322 
z
"/>
   </g>
   <g id="patch_65">
    <path clip-path="url(#p15106acbc8)" d="M 480.062437 367.087556 
L 487.519345 367.087556 
L 487.519345 327.609596 
L 480.062437 327.609596 
z
" style="fill:#ffa500;"/>
   </g>
   <g id="patch_66">
    <path clip-path="url(#p15106acbc8)" d="M 487.164254 367.087556 
L 494.621163 367.087556 
L 494.621163 361.800626 
L 487.164254 361.800626 
z
"/>
   </g>
   <g id="patch_67">
    <path clip-path="url(#p15106acbc8)" d="M 494.266072 367.087556 
L 501.72298 367.087556 
L 501.72298 361.327428 
L 494.266072 361.327428 
z
"/>
   </g>
   <g id="patch_68">
    <path clip-path="url(#p15106acbc8)" d="M 501.367889 367.087556 
L 508.824797 367.087556 
L 508.824797 354.819032 
L 501.367889 354.819032 
z
"/>
   </g>
   <g id="patch_69">
    <path clip-path="url(#p15106acbc8)" d="M 508.469707 367.087556 
L 515.926615 367.087556 
L 515.926615 301.924934 
L 508.469707 301.924934 
z
" style="fill:#ff0000;"/>
   </g>
   <g id="patch_70">
    <path clip-path="url(#p15106acbc8)" d="M 515.571524 367.087556 
L 523.028432 367.087556 
L 523.028432 344.643351 
L 515.571524 344.643351 
z
"/>
   </g>
   <g id="patch_71">
    <path clip-path="url(#p15106acbc8)" d="M 522.673341 367.087556 
L 530.13025 367.087556 
L 530.13025 356.964711 
L 522.673341 356.964711 
z
"/>
   </g>
   <g id="patch_72">
    <path clip-path="url(#p15106acbc8)" d="M 529.775159 367.087556 
L 537.232067 367.087556 
L 537.232067 329.849339 
L 529.775159 329.849339 
z
" style="fill:#ffa500;"/>
   </g>
   <g id="patch_73">
    <path clip-path="url(#p15106acbc8)" d="M 536.876976 367.087556 
L 544.333884 367.087556 
L 544.333884 343.914318 
L 536.876976 343.914318 
z
"/>
   </g>
   <g id="patch_74">
    <path clip-path="url(#p15106acbc8)" d="M 543.978793 367.087556 
L 551.435702 367.087556 
L 551.435702 308.107648 
L 543.978793 308.107648 
z
" style="fill:#ffa500;"/>
   </g>
   <g id="patch_75">
    <path clip-path="url(#p15106acbc8)" d="M 551.080611 367.087556 
L 558.537519 367.087556 
L 558.537519 317.588944 
L 551.080611 317.588944 
z
" style="fill:#ffa500;"/>
   </g>
   <g id="patch_76">
    <path clip-path="url(#p15106acbc8)" d="M 558.182428 367.087556 
L 565.639336 367.087556 
L 565.639336 353.527032 
L 558.182428 353.527032 
z
"/>
   </g>
   <g id="patch_77">
    <path clip-path="url(#p15106acbc8)" d="M 565.284246 367.087556 
L 572.741154 367.087556 
L 572.741154 344.661625 
L 565.284246 344.661625 
z
"/>
   </g>
   <g id="patch_78">
    <path clip-path="url(#p15106acbc8)" d="M 572.386063 367.087556 
L 579.842971 367.087556 
L 579.842971 335.41599 
L 572.386063 335.41599 
z
" style="fill:#ffa500;"/>
   </g>
   <g id="patch_79">
    <path clip-path="url(#p15106acbc8)" d="M 579.48788 367.087556 
L 586.944789 367.087556 
L 586.944789 236.637409 
L 579.48788 236.637409 
z
" style="fill:#ff0000;"/>
   </g>
   <g id="patch_80">
    <path clip-path="url(#p15106acbc8)" d="M 586.589698 367.087556 
L 594.046606 367.087556 
L 594.046606 334.788697 
L 586.589698 334.788697 
z
" style="fill:#ffa500;"/>
   </g>
   <g id="patch_81">
    <path clip-path="url(#p15106acbc8)" d="M 593.691515 367.087556 
L 601.148423 367.087556 
L 601.148423 346.364963 
L 593.691515 346.364963 
z
"/>
   </g>
   <g id="patch_82">
    <path clip-path="url(#p15106acbc8)" d="M 600.793333 367.087556 
L 608.250241 367.087556 
L 608.250241 367.087556 
L 600.793333 367.087556 
z
"/>
   </g>
   <g id="patch_83">
    <path d="M 39.927305 658.262069 
L 39.927305 75.913043 
" style="fill:none;"/>
   </g>
   <g id="patch_84">
    <path d="M 608.072695 658.262069 
L 608.072695 75.913043 
" style="fill:none;"/>
   </g>
   <g id="patch_85">
    <path d="M 39.927305 75.913043 
L 608.072695 75.913043 
" style="fill:none;"/>
   </g>
  </g>
 </g>
 <defs>
  <clipPath id="p15106acbc8">
   <rect height="582.349025" width="568.145391" x="39.927305" y="75.913043"/>
  </clipPath>
 </defs>
</svg>
