<?xml version="1.0" encoding="utf-8" standalone="no"?>
<!DOCTYPE svg PUBLIC "-//W3C//DTD SVG 1.1//EN"
  "http://www.w3.org/Graphics/SVG/1.1/DTD/svg11.dtd">
<!-- Created with matplotlib (https://matplotlib.org/) -->
<svg height="439.858421pt" version="1.1" viewBox="0 0 787.444342 439.858421" width="787.444342pt" xmlns="http://www.w3.org/2000/svg" xmlns:xlink="http://www.w3.org/1999/xlink">
 <metadata>
  <rdf:RDF xmlns:cc="http://creativecommons.org/ns#" xmlns:dc="http://purl.org/dc/elements/1.1/" xmlns:rdf="http://www.w3.org/1999/02/22-rdf-syntax-ns#">
   <cc:Work>
    <dc:type rdf:resource="http://purl.org/dc/dcmitype/StillImage"/>
    <dc:date>2023-04-10T12:10:52.286118</dc:date>
    <dc:format>image/svg+xml</dc:format>
    <dc:creator>
     <cc:Agent>
      <dc:title>Matplotlib v3.3.4, https://matplotlib.org/</dc:title>
     </cc:Agent>
    </dc:creator>
   </cc:Work>
  </rdf:RDF>
 </metadata>
 <defs>
  <style type="text/css">*{stroke-linecap:butt;stroke-linejoin:round;}</style>
 </defs>
 <g id="figure_1">
  <g id="patch_1">
   <path d="M 0 439.858421 
L 787.444342 439.858421 
L 787.444342 0 
L 0 0 
z
" style="fill:#ffffff;"/>
  </g>
  <g id="axes_1">
   <g id="line2d_1">
    <path clip-path="url(#p397eb1591d)" d="M 373.607121 314.101743 
L 386.74348 314.101743 
" style="fill:none;stroke:#808080;stroke-width:6;"/>
   </g>
   <g id="line2d_2">
    <path clip-path="url(#p397eb1591d)" d="M 373.607121 314.101743 
L 386.74348 314.101743 
" style="fill:none;stroke:#ffffff;stroke-linecap:round;stroke-width:2;"/>
   </g>
   <g id="line2d_3">
    <path clip-path="url(#p397eb1591d)" d="M 373.607121 292.105602 
L 386.74348 292.105602 
" style="fill:none;stroke:#808080;stroke-width:3;"/>
   </g>
   <g id="line2d_4">
    <path clip-path="url(#p397eb1591d)" d="M 373.607121 270.109461 
L 386.74348 270.109461 
" style="fill:none;stroke:#808080;stroke-width:3;"/>
   </g>
   <g id="line2d_5">
    <path clip-path="url(#p397eb1591d)" d="M 373.607121 248.11332 
L 386.74348 248.11332 
" style="fill:none;stroke:#808080;stroke-width:6;"/>
   </g>
   <g id="line2d_6">
    <path clip-path="url(#p397eb1591d)" d="M 373.607121 248.11332 
L 386.74348 248.11332 
" style="fill:none;stroke:#ffffff;stroke-linecap:round;stroke-width:2;"/>
   </g>
   <g id="line2d_7">
    <path clip-path="url(#p397eb1591d)" d="M 373.607121 226.117179 
L 386.74348 226.117179 
" style="fill:none;stroke:#808080;stroke-width:3;"/>
   </g>
   <g id="line2d_8">
    <path clip-path="url(#p397eb1591d)" d="M 311.07978 165.836088 
L 311.07978 153.171643 
" style="fill:none;stroke:#808080;stroke-width:6;"/>
   </g>
   <g id="line2d_9">
    <path clip-path="url(#p397eb1591d)" d="M 311.07978 165.836088 
L 311.07978 153.171643 
" style="fill:none;stroke:#ffffff;stroke-linecap:round;stroke-width:2;"/>
   </g>
   <g id="line2d_10">
    <path clip-path="url(#p397eb1591d)" d="M 288.263999 165.836088 
L 288.263999 153.171643 
" style="fill:none;stroke:#808080;stroke-width:6;"/>
   </g>
   <g id="line2d_11">
    <path clip-path="url(#p397eb1591d)" d="M 288.263999 165.836088 
L 288.263999 153.171643 
" style="fill:none;stroke:#ffffff;stroke-linecap:round;stroke-width:2;"/>
   </g>
   <g id="line2d_12">
    <path clip-path="url(#p397eb1591d)" d="M 265.448217 165.836088 
L 265.448217 153.171643 
" style="fill:none;stroke:#808080;stroke-width:6;"/>
   </g>
   <g id="line2d_13">
    <path clip-path="url(#p397eb1591d)" d="M 265.448217 165.836088 
L 265.448217 153.171643 
" style="fill:none;stroke:#ffffff;stroke-linecap:round;stroke-width:2;"/>
   </g>
   <g id="line2d_14">
    <path clip-path="url(#p397eb1591d)" d="M 242.632435 165.836088 
L 242.632435 153.171643 
" style="fill:none;stroke:#808080;stroke-width:6;"/>
   </g>
   <g id="line2d_15">
    <path clip-path="url(#p397eb1591d)" d="M 242.632435 165.836088 
L 242.632435 153.171643 
" style="fill:none;stroke:#ffffff;stroke-linecap:round;stroke-width:2;"/>
   </g>
   <g id="line2d_16">
    <path clip-path="url(#p397eb1591d)" d="M 181.579178 219.78536 
L 168.47626 218.701409 
" style="fill:none;stroke:#808080;stroke-width:6;"/>
   </g>
   <g id="line2d_17">
    <path clip-path="url(#p397eb1591d)" d="M 181.579178 219.78536 
L 168.47626 218.701409 
" style="fill:none;stroke:#ffffff;stroke-linecap:round;stroke-width:2;"/>
   </g>
   <g id="line2d_18">
    <path clip-path="url(#p397eb1591d)" d="M 179.634651 241.781501 
L 166.531733 240.69755 
" style="fill:none;stroke:#808080;stroke-width:6;"/>
   </g>
   <g id="line2d_19">
    <path clip-path="url(#p397eb1591d)" d="M 179.634651 241.781501 
L 166.531733 240.69755 
" style="fill:none;stroke:#ffffff;stroke-linecap:round;stroke-width:2;"/>
   </g>
   <g id="line2d_20">
    <path clip-path="url(#p397eb1591d)" d="M 177.690124 263.652664 
L 164.587206 262.568713 
" style="fill:none;stroke:#808080;stroke-width:6;"/>
   </g>
   <g id="line2d_21">
    <path clip-path="url(#p397eb1591d)" d="M 177.690124 263.652664 
L 164.587206 262.568713 
" style="fill:none;stroke:#ffffff;stroke-linecap:round;stroke-width:2;"/>
   </g>
   <g id="line2d_22">
    <path clip-path="url(#p397eb1591d)" d="M 156.081094 308.396058 
L 146.787159 299.436001 
" style="fill:none;stroke:#808080;stroke-width:3;"/>
   </g>
   <g id="line2d_23">
    <path clip-path="url(#p397eb1591d)" d="M 140.006338 323.893339 
L 130.712404 314.933283 
" style="fill:none;stroke:#808080;stroke-width:3;"/>
   </g>
   <g id="line2d_24">
    <path clip-path="url(#p397eb1591d)" d="M 123.801948 339.515598 
L 114.508014 330.555542 
" style="fill:none;stroke:#808080;stroke-width:6;"/>
   </g>
   <g id="line2d_25">
    <path clip-path="url(#p397eb1591d)" d="M 123.801948 339.515598 
L 114.508014 330.555542 
" style="fill:none;stroke:#ffffff;stroke-linecap:round;stroke-width:2;"/>
   </g>
   <g id="line2d_26">
    <path clip-path="url(#p397eb1591d)" d="M 449.270821 153.171643 
L 449.270821 165.836088 
" style="fill:none;stroke:#808080;stroke-width:6;"/>
   </g>
   <g id="line2d_27">
    <path clip-path="url(#p397eb1591d)" d="M 449.270821 153.171643 
L 449.270821 165.836088 
" style="fill:none;stroke:#ffffff;stroke-linecap:round;stroke-width:2;"/>
   </g>
   <g id="line2d_28">
    <path clip-path="url(#p397eb1591d)" d="M 472.086603 153.171643 
L 472.086603 165.836088 
" style="fill:none;stroke:#808080;stroke-width:6;"/>
   </g>
   <g id="line2d_29">
    <path clip-path="url(#p397eb1591d)" d="M 472.086603 153.171643 
L 472.086603 165.836088 
" style="fill:none;stroke:#ffffff;stroke-linecap:round;stroke-width:2;"/>
   </g>
   <g id="line2d_30">
    <path clip-path="url(#p397eb1591d)" d="M 494.902384 153.171643 
L 494.902384 165.836088 
" style="fill:none;stroke:#808080;stroke-width:3;"/>
   </g>
   <g id="line2d_31">
    <path clip-path="url(#p397eb1591d)" d="M 585.906241 153.171643 
L 585.906241 165.836088 
" style="fill:none;stroke:#808080;stroke-width:6;"/>
   </g>
   <g id="line2d_32">
    <path clip-path="url(#p397eb1591d)" d="M 585.906241 153.171643 
L 585.906241 165.836088 
" style="fill:none;stroke:#ffffff;stroke-linecap:round;stroke-width:2;"/>
   </g>
   <g id="line2d_33">
    <path clip-path="url(#p397eb1591d)" d="M 608.722022 153.171643 
L 608.722022 165.836088 
" style="fill:none;stroke:#808080;stroke-width:3;"/>
   </g>
   <g id="line2d_34">
    <path clip-path="url(#p397eb1591d)" d="M 631.537804 153.171643 
L 631.537804 165.836088 
" style="fill:none;stroke:#808080;stroke-width:6;"/>
   </g>
   <g id="line2d_35">
    <path clip-path="url(#p397eb1591d)" d="M 631.537804 153.171643 
L 631.537804 165.836088 
" style="fill:none;stroke:#ffffff;stroke-linecap:round;stroke-width:2;"/>
   </g>
   <g id="line2d_36">
    <path clip-path="url(#p397eb1591d)" d="M 654.353585 153.171643 
L 654.353585 165.836088 
" style="fill:none;stroke:#808080;stroke-width:6;"/>
   </g>
   <g id="line2d_37">
    <path clip-path="url(#p397eb1591d)" d="M 654.353585 153.171643 
L 654.353585 165.836088 
" style="fill:none;stroke:#ffffff;stroke-linecap:round;stroke-width:2;"/>
   </g>
   <g id="PathCollection_1">
    <defs>
     <path d="M 0 3 
C 0.795609 3 1.55874 2.683901 2.12132 2.12132 
C 2.683901 1.55874 3 0.795609 3 0 
C 3 -0.795609 2.683901 -1.55874 2.12132 -2.12132 
C 1.55874 -2.683901 0.795609 -3 0 -3 
C -0.795609 -3 -1.55874 -2.683901 -2.12132 -2.12132 
C -2.683901 -1.55874 -3 -0.795609 -3 0 
C -3 0.795609 -2.683901 1.55874 -2.12132 2.12132 
C -1.55874 2.683901 -0.795609 3 0 3 
z
" id="m65a0fe94b8" style="stroke:#808080;stroke-width:2;"/>
    </defs>
    <g clip-path="url(#p397eb1591d)">
     <use style="fill:#ffffff;stroke:#808080;stroke-width:2;" x="380.175301" xlink:href="#m65a0fe94b8" y="292.105602"/>
    </g>
   </g>
   <g id="LineCollection_1">
    <path clip-path="url(#p397eb1591d)" d="M 360.470762 314.101743 
L 360.470762 303.103672 
" style="fill:none;stroke:#000000;stroke-width:3;"/>
    <path clip-path="url(#p397eb1591d)" d="M 360.470762 303.103672 
L 360.470762 292.105602 
L 360.470762 281.107531 
" style="fill:none;stroke:#ffa500;stroke-width:3;"/>
    <path clip-path="url(#p397eb1591d)" d="M 360.470762 281.107531 
L 360.470762 270.109461 
L 360.470762 259.11139 
L 360.470762 248.11332 
L 360.470762 237.115249 
L 360.470762 226.117179 
L 335.775271 202.308855 
L 311.07978 178.500532 
L 299.671889 178.500532 
" style="fill:none;stroke:#000000;stroke-width:3;"/>
    <path clip-path="url(#p397eb1591d)" d="M 299.671889 178.500532 
L 288.263999 178.500532 
L 276.856108 178.500532 
L 265.448217 178.500532 
L 254.040326 178.500532 
" style="fill:none;stroke:#ff0000;stroke-width:3;"/>
    <path clip-path="url(#p397eb1591d)" d="M 254.040326 178.500532 
L 242.632435 178.500532 
L 236.92849 186.374151 
" style="fill:none;stroke:#ffa500;stroke-width:3;"/>
    <path clip-path="url(#p397eb1591d)" d="M 236.92849 186.374151 
L 231.224545 194.24777 
L 221.566728 202.746279 
L 211.908911 211.244788 
L 203.288176 216.056444 
" style="fill:none;stroke:#000000;stroke-width:3;"/>
    <path clip-path="url(#p397eb1591d)" d="M 203.288176 216.056444 
L 194.66744 220.868099 
L 193.695177 231.86617 
" style="fill:none;stroke:#ffa500;stroke-width:3;"/>
    <path clip-path="url(#p397eb1591d)" d="M 193.695177 231.86617 
L 192.722913 242.86424 
L 191.75065 253.799822 
L 190.778386 264.735403 
L 191.167292 280.920064 
" style="fill:none;stroke:#000000;stroke-width:3;"/>
    <path clip-path="url(#p397eb1591d)" d="M 191.167292 280.920064 
L 191.556197 297.104725 
L 178.46305 307.227949 
" style="fill:none;stroke:#ff0000;stroke-width:3;"/>
    <path clip-path="url(#p397eb1591d)" d="M 178.46305 307.227949 
L 165.369902 317.351173 
L 157.332525 325.099813 
" style="fill:none;stroke:#000000;stroke-width:3;"/>
    <path clip-path="url(#p397eb1591d)" d="M 157.332525 325.099813 
L 149.295147 332.848454 
L 141.192952 340.659583 
" style="fill:none;stroke:#ffa500;stroke-width:3;"/>
    <path clip-path="url(#p397eb1591d)" d="M 141.192952 340.659583 
L 133.090757 348.470713 
L 129.396156 360.093674 
L 125.701555 371.716635 
L 114.293664 377.028203 
" style="fill:none;stroke:#000000;stroke-width:3;"/>
    <path clip-path="url(#p397eb1591d)" d="M 114.293664 377.028203 
L 102.885773 382.339771 
L 91.153794 377.903049 
L 79.421816 373.466328 
L 74.754951 362.093323 
" style="fill:none;stroke:#ff0000;stroke-width:3;"/>
    <path clip-path="url(#p397eb1591d)" d="M 74.754951 362.093323 
L 70.088087 350.720318 
L 75.59758 339.722248 
L 81.107072 328.724177 
L 93.163139 325.162302 
" style="fill:none;stroke:#ffa500;stroke-width:3;"/>
    <path clip-path="url(#p397eb1591d)" d="M 93.163139 325.162302 
L 105.219205 321.600427 
L 113.3214 313.789297 
L 121.423596 305.978168 
L 129.460973 298.229527 
L 137.498351 290.480887 
L 144.498648 275.98343 
L 151.498944 261.485973 
L 152.471208 250.550392 
" style="fill:none;stroke:#000000;stroke-width:3;"/>
    <path clip-path="url(#p397eb1591d)" d="M 152.471208 250.550392 
L 153.443471 239.614811 
L 154.415734 228.61674 
" style="fill:none;stroke:#ff0000;stroke-width:3;"/>
    <path clip-path="url(#p397eb1591d)" d="M 154.415734 228.61674 
L 155.387998 217.61867 
L 147.804343 211.494744 
L 140.220688 205.370818 
L 132.248128 195.310083 
L 124.275568 185.249348 
L 121.229143 173.001497 
L 118.182718 160.753646 
L 120.710602 148.318328 
" style="fill:none;stroke:#000000;stroke-width:3;"/>
    <path clip-path="url(#p397eb1591d)" d="M 120.710602 148.318328 
L 123.238487 135.883009 
L 130.822142 125.572318 
" style="fill:none;stroke:#ffa500;stroke-width:3;"/>
    <path clip-path="url(#p397eb1591d)" d="M 130.822142 125.572318 
L 138.405797 115.261627 
L 149.684052 108.887745 
" style="fill:none;stroke:#000000;stroke-width:3;"/>
    <path clip-path="url(#p397eb1591d)" d="M 149.684052 108.887745 
L 160.962308 102.513863 
L 173.990638 101.201594 
" style="fill:none;stroke:#ff0000;stroke-width:3;"/>
    <path clip-path="url(#p397eb1591d)" d="M 173.990638 101.201594 
L 187.018968 99.889324 
L 199.46394 103.826133 
" style="fill:none;stroke:#000000;stroke-width:3;"/>
    <path clip-path="url(#p397eb1591d)" d="M 199.46394 103.826133 
L 211.908911 107.762943 
L 221.566728 116.323941 
" style="fill:none;stroke:#ffa500;stroke-width:3;"/>
    <path clip-path="url(#p397eb1591d)" d="M 221.566728 116.323941 
L 231.224545 124.884939 
L 236.92849 132.696068 
L 242.632435 140.507198 
L 254.040326 140.507198 
L 265.448217 140.507198 
L 276.856108 140.507198 
L 288.263999 140.507198 
L 299.671889 140.507198 
" style="fill:none;stroke:#000000;stroke-width:3;"/>
    <path clip-path="url(#p397eb1591d)" d="M 299.671889 140.507198 
L 311.07978 140.507198 
L 319.376428 128.321836 
" style="fill:none;stroke:#ff0000;stroke-width:3;"/>
    <path clip-path="url(#p397eb1591d)" d="M 319.376428 128.321836 
L 327.673076 116.136473 
L 339.469872 107.575475 
L 351.266668 99.014477 
L 365.720985 95.952515 
" style="fill:none;stroke:#000000;stroke-width:3;"/>
    <path clip-path="url(#p397eb1591d)" d="M 365.720985 95.952515 
L 380.175301 92.890552 
L 394.629617 95.952515 
L 409.083933 99.014477 
L 420.880729 107.575475 
L 432.677525 116.136473 
L 440.974173 128.321836 
" style="fill:none;stroke:#ffa500;stroke-width:3;"/>
    <path clip-path="url(#p397eb1591d)" d="M 440.974173 128.321836 
L 449.270821 140.507198 
L 460.678712 140.507198 
L 472.086603 140.507198 
L 483.494494 140.507198 
L 494.902384 140.507198 
L 505.013924 131.758733 
L 515.125464 123.010268 
L 527.764888 119.323414 
L 540.404312 115.636561 
L 553.043737 119.323414 
" style="fill:none;stroke:#000000;stroke-width:3;"/>
    <path clip-path="url(#p397eb1591d)" d="M 553.043737 119.323414 
L 565.683161 123.010268 
L 575.794701 131.758733 
" style="fill:none;stroke:#ffa500;stroke-width:3;"/>
    <path clip-path="url(#p397eb1591d)" d="M 575.794701 131.758733 
L 585.906241 140.507198 
L 597.314131 140.507198 
L 608.722022 140.507198 
L 620.129913 140.507198 
" style="fill:none;stroke:#000000;stroke-width:3;"/>
    <path clip-path="url(#p397eb1591d)" d="M 620.129913 140.507198 
L 631.537804 140.507198 
L 642.945695 140.507198 
" style="fill:none;stroke:#ff0000;stroke-width:3;"/>
    <path clip-path="url(#p397eb1591d)" d="M 642.945695 140.507198 
L 654.353585 140.507198 
L 664.724395 133.383448 
L 675.095205 126.259697 
L 687.73463 127.634456 
L 700.374054 129.009215 
L 708.865155 138.132614 
L 717.356255 147.256014 
L 717.356255 159.503865 
L 717.356255 171.751716 
L 708.865155 180.875116 
L 700.374054 189.998515 
L 687.73463 191.373274 
" style="fill:none;stroke:#000000;stroke-width:3;"/>
    <path clip-path="url(#p397eb1591d)" d="M 687.73463 191.373274 
L 675.095205 192.748033 
L 664.724395 185.624283 
" style="fill:none;stroke:#ffa500;stroke-width:3;"/>
    <path clip-path="url(#p397eb1591d)" d="M 664.724395 185.624283 
L 654.353585 178.500532 
L 642.945695 178.500532 
L 631.537804 178.500532 
L 620.129913 178.500532 
L 608.722022 178.500532 
L 597.314131 178.500532 
" style="fill:none;stroke:#000000;stroke-width:3;"/>
    <path clip-path="url(#p397eb1591d)" d="M 597.314131 178.500532 
L 585.906241 178.500532 
L 575.794701 187.248998 
" style="fill:none;stroke:#ff0000;stroke-width:3;"/>
    <path clip-path="url(#p397eb1591d)" d="M 575.794701 187.248998 
L 565.683161 195.997463 
L 553.043737 199.684316 
L 540.404312 203.371169 
L 527.764888 199.684316 
" style="fill:none;stroke:#000000;stroke-width:3;"/>
    <path clip-path="url(#p397eb1591d)" d="M 527.764888 199.684316 
L 515.125464 195.997463 
L 505.013924 187.248998 
" style="fill:none;stroke:#ffa500;stroke-width:3;"/>
    <path clip-path="url(#p397eb1591d)" d="M 505.013924 187.248998 
L 494.902384 178.500532 
L 483.494494 178.500532 
" style="fill:none;stroke:#000000;stroke-width:3;"/>
    <path clip-path="url(#p397eb1591d)" d="M 483.494494 178.500532 
L 472.086603 178.500532 
L 460.678712 178.500532 
L 449.270821 178.500532 
L 442.9187 188.248822 
" style="fill:none;stroke:#ffa500;stroke-width:3;"/>
    <path clip-path="url(#p397eb1591d)" d="M 442.9187 188.248822 
L 436.566579 197.997112 
L 428.334749 205.93322 
L 420.102919 213.869327 
L 409.991379 219.993253 
" style="fill:none;stroke:#000000;stroke-width:3;"/>
    <path clip-path="url(#p397eb1591d)" d="M 409.991379 219.993253 
L 399.879839 226.117179 
L 399.879839 237.115249 
" style="fill:none;stroke:#ffa500;stroke-width:3;"/>
    <path clip-path="url(#p397eb1591d)" d="M 399.879839 237.115249 
L 399.879839 248.11332 
L 399.879839 259.11139 
" style="fill:none;stroke:#ff0000;stroke-width:3;"/>
    <path clip-path="url(#p397eb1591d)" d="M 399.879839 259.11139 
L 399.879839 270.109461 
L 399.879839 281.107531 
" style="fill:none;stroke:#ffa500;stroke-width:3;"/>
    <path clip-path="url(#p397eb1591d)" d="M 399.879839 281.107531 
L 399.879839 292.105602 
L 399.879839 303.103672 
L 399.879839 314.101743 
" style="fill:none;stroke:#000000;stroke-width:3;"/>
   </g>
   <g id="PathCollection_2">
    <defs>
     <path d="M 0 2.5 
C 0.663008 2.5 1.29895 2.236584 1.767767 1.767767 
C 2.236584 1.29895 2.5 0.663008 2.5 -0 
C 2.5 -0.663008 2.236584 -1.29895 1.767767 -1.767767 
C 1.29895 -2.236584 0.663008 -2.5 0 -2.5 
C -0.663008 -2.5 -1.29895 -2.236584 -1.767767 -1.767767 
C -2.236584 -1.29895 -2.5 -0.663008 -2.5 0 
C -2.5 0.663008 -2.236584 1.29895 -1.767767 1.767767 
C -1.29895 2.236584 -0.663008 2.5 0 2.5 
z
" id="C0_0_e3964c1cd2"/>
    </defs>
    <g clip-path="url(#p397eb1591d)">
     <use style="stroke:#000000;stroke-width:2;" x="360.470762" xlink:href="#C0_0_e3964c1cd2" y="314.101743"/>
    </g>
    <g clip-path="url(#p397eb1591d)">
     <use style="fill:#ffa500;stroke:#ffa500;stroke-width:2;" x="360.470762" xlink:href="#C0_0_e3964c1cd2" y="292.105602"/>
    </g>
    <g clip-path="url(#p397eb1591d)">
     <use style="stroke:#000000;stroke-width:2;" x="360.470762" xlink:href="#C0_0_e3964c1cd2" y="270.109461"/>
    </g>
    <g clip-path="url(#p397eb1591d)">
     <use style="stroke:#000000;stroke-width:2;" x="360.470762" xlink:href="#C0_0_e3964c1cd2" y="248.11332"/>
    </g>
    <g clip-path="url(#p397eb1591d)">
     <use style="stroke:#000000;stroke-width:2;" x="360.470762" xlink:href="#C0_0_e3964c1cd2" y="226.117179"/>
    </g>
    <g clip-path="url(#p397eb1591d)">
     <use style="stroke:#000000;stroke-width:2;" x="311.07978" xlink:href="#C0_0_e3964c1cd2" y="178.500532"/>
    </g>
    <g clip-path="url(#p397eb1591d)">
     <use style="fill:#ff0000;stroke:#ff0000;stroke-width:2;" x="288.263999" xlink:href="#C0_0_e3964c1cd2" y="178.500532"/>
    </g>
    <g clip-path="url(#p397eb1591d)">
     <use style="fill:#ff0000;stroke:#ff0000;stroke-width:2;" x="265.448217" xlink:href="#C0_0_e3964c1cd2" y="178.500532"/>
    </g>
    <g clip-path="url(#p397eb1591d)">
     <use style="fill:#ffa500;stroke:#ffa500;stroke-width:2;" x="242.632435" xlink:href="#C0_0_e3964c1cd2" y="178.500532"/>
    </g>
    <g clip-path="url(#p397eb1591d)">
     <use style="stroke:#000000;stroke-width:2;" x="231.224545" xlink:href="#C0_0_e3964c1cd2" y="194.24777"/>
    </g>
    <g clip-path="url(#p397eb1591d)">
     <use style="stroke:#000000;stroke-width:2;" x="211.908911" xlink:href="#C0_0_e3964c1cd2" y="211.244788"/>
    </g>
    <g clip-path="url(#p397eb1591d)">
     <use style="fill:#ffa500;stroke:#ffa500;stroke-width:2;" x="194.66744" xlink:href="#C0_0_e3964c1cd2" y="220.868099"/>
    </g>
    <g clip-path="url(#p397eb1591d)">
     <use style="stroke:#000000;stroke-width:2;" x="192.722913" xlink:href="#C0_0_e3964c1cd2" y="242.86424"/>
    </g>
    <g clip-path="url(#p397eb1591d)">
     <use style="stroke:#000000;stroke-width:2;" x="190.778386" xlink:href="#C0_0_e3964c1cd2" y="264.735403"/>
    </g>
    <g clip-path="url(#p397eb1591d)">
     <use style="fill:#ff0000;stroke:#ff0000;stroke-width:2;" x="191.556197" xlink:href="#C0_0_e3964c1cd2" y="297.104725"/>
    </g>
    <g clip-path="url(#p397eb1591d)">
     <use style="stroke:#000000;stroke-width:2;" x="165.369902" xlink:href="#C0_0_e3964c1cd2" y="317.351173"/>
    </g>
    <g clip-path="url(#p397eb1591d)">
     <use style="fill:#ffa500;stroke:#ffa500;stroke-width:2;" x="149.295147" xlink:href="#C0_0_e3964c1cd2" y="332.848454"/>
    </g>
    <g clip-path="url(#p397eb1591d)">
     <use style="stroke:#000000;stroke-width:2;" x="133.090757" xlink:href="#C0_0_e3964c1cd2" y="348.470713"/>
    </g>
    <g clip-path="url(#p397eb1591d)">
     <use style="stroke:#000000;stroke-width:2;" x="125.701555" xlink:href="#C0_0_e3964c1cd2" y="371.716635"/>
    </g>
    <g clip-path="url(#p397eb1591d)">
     <use style="fill:#ff0000;stroke:#ff0000;stroke-width:2;" x="102.885773" xlink:href="#C0_0_e3964c1cd2" y="382.339771"/>
    </g>
    <g clip-path="url(#p397eb1591d)">
     <use style="fill:#ff0000;stroke:#ff0000;stroke-width:2;" x="79.421816" xlink:href="#C0_0_e3964c1cd2" y="373.466328"/>
    </g>
    <g clip-path="url(#p397eb1591d)">
     <use style="fill:#ffa500;stroke:#ffa500;stroke-width:2;" x="70.088087" xlink:href="#C0_0_e3964c1cd2" y="350.720318"/>
    </g>
    <g clip-path="url(#p397eb1591d)">
     <use style="fill:#ffa500;stroke:#ffa500;stroke-width:2;" x="81.107072" xlink:href="#C0_0_e3964c1cd2" y="328.724177"/>
    </g>
    <g clip-path="url(#p397eb1591d)">
     <use style="stroke:#000000;stroke-width:2;" x="105.219205" xlink:href="#C0_0_e3964c1cd2" y="321.600427"/>
    </g>
    <g clip-path="url(#p397eb1591d)">
     <use style="stroke:#000000;stroke-width:2;" x="121.423596" xlink:href="#C0_0_e3964c1cd2" y="305.978168"/>
    </g>
    <g clip-path="url(#p397eb1591d)">
     <use style="stroke:#000000;stroke-width:2;" x="137.498351" xlink:href="#C0_0_e3964c1cd2" y="290.480887"/>
    </g>
    <g clip-path="url(#p397eb1591d)">
     <use style="stroke:#000000;stroke-width:2;" x="151.498944" xlink:href="#C0_0_e3964c1cd2" y="261.485973"/>
    </g>
    <g clip-path="url(#p397eb1591d)">
     <use style="fill:#ff0000;stroke:#ff0000;stroke-width:2;" x="153.443471" xlink:href="#C0_0_e3964c1cd2" y="239.614811"/>
    </g>
    <g clip-path="url(#p397eb1591d)">
     <use style="stroke:#000000;stroke-width:2;" x="155.387998" xlink:href="#C0_0_e3964c1cd2" y="217.61867"/>
    </g>
    <g clip-path="url(#p397eb1591d)">
     <use style="stroke:#000000;stroke-width:2;" x="140.220688" xlink:href="#C0_0_e3964c1cd2" y="205.370818"/>
    </g>
    <g clip-path="url(#p397eb1591d)">
     <use style="stroke:#000000;stroke-width:2;" x="124.275568" xlink:href="#C0_0_e3964c1cd2" y="185.249348"/>
    </g>
    <g clip-path="url(#p397eb1591d)">
     <use style="stroke:#000000;stroke-width:2;" x="118.182718" xlink:href="#C0_0_e3964c1cd2" y="160.753646"/>
    </g>
    <g clip-path="url(#p397eb1591d)">
     <use style="fill:#ffa500;stroke:#ffa500;stroke-width:2;" x="123.238487" xlink:href="#C0_0_e3964c1cd2" y="135.883009"/>
    </g>
    <g clip-path="url(#p397eb1591d)">
     <use style="stroke:#000000;stroke-width:2;" x="138.405797" xlink:href="#C0_0_e3964c1cd2" y="115.261627"/>
    </g>
    <g clip-path="url(#p397eb1591d)">
     <use style="fill:#ff0000;stroke:#ff0000;stroke-width:2;" x="160.962308" xlink:href="#C0_0_e3964c1cd2" y="102.513863"/>
    </g>
    <g clip-path="url(#p397eb1591d)">
     <use style="stroke:#000000;stroke-width:2;" x="187.018968" xlink:href="#C0_0_e3964c1cd2" y="99.889324"/>
    </g>
    <g clip-path="url(#p397eb1591d)">
     <use style="fill:#ffa500;stroke:#ffa500;stroke-width:2;" x="211.908911" xlink:href="#C0_0_e3964c1cd2" y="107.762943"/>
    </g>
    <g clip-path="url(#p397eb1591d)">
     <use style="stroke:#000000;stroke-width:2;" x="231.224545" xlink:href="#C0_0_e3964c1cd2" y="124.884939"/>
    </g>
    <g clip-path="url(#p397eb1591d)">
     <use style="stroke:#000000;stroke-width:2;" x="242.632435" xlink:href="#C0_0_e3964c1cd2" y="140.507198"/>
    </g>
    <g clip-path="url(#p397eb1591d)">
     <use style="stroke:#000000;stroke-width:2;" x="265.448217" xlink:href="#C0_0_e3964c1cd2" y="140.507198"/>
    </g>
    <g clip-path="url(#p397eb1591d)">
     <use style="stroke:#000000;stroke-width:2;" x="288.263999" xlink:href="#C0_0_e3964c1cd2" y="140.507198"/>
    </g>
    <g clip-path="url(#p397eb1591d)">
     <use style="fill:#ff0000;stroke:#ff0000;stroke-width:2;" x="311.07978" xlink:href="#C0_0_e3964c1cd2" y="140.507198"/>
    </g>
    <g clip-path="url(#p397eb1591d)">
     <use style="stroke:#000000;stroke-width:2;" x="327.673076" xlink:href="#C0_0_e3964c1cd2" y="116.136473"/>
    </g>
    <g clip-path="url(#p397eb1591d)">
     <use style="stroke:#000000;stroke-width:2;" x="351.266668" xlink:href="#C0_0_e3964c1cd2" y="99.014477"/>
    </g>
    <g clip-path="url(#p397eb1591d)">
     <use style="fill:#ffa500;stroke:#ffa500;stroke-width:2;" x="380.175301" xlink:href="#C0_0_e3964c1cd2" y="92.890552"/>
    </g>
    <g clip-path="url(#p397eb1591d)">
     <use style="fill:#ffa500;stroke:#ffa500;stroke-width:2;" x="409.083933" xlink:href="#C0_0_e3964c1cd2" y="99.014477"/>
    </g>
    <g clip-path="url(#p397eb1591d)">
     <use style="fill:#ffa500;stroke:#ffa500;stroke-width:2;" x="432.677525" xlink:href="#C0_0_e3964c1cd2" y="116.136473"/>
    </g>
    <g clip-path="url(#p397eb1591d)">
     <use style="stroke:#000000;stroke-width:2;" x="449.270821" xlink:href="#C0_0_e3964c1cd2" y="140.507198"/>
    </g>
    <g clip-path="url(#p397eb1591d)">
     <use style="stroke:#000000;stroke-width:2;" x="472.086603" xlink:href="#C0_0_e3964c1cd2" y="140.507198"/>
    </g>
    <g clip-path="url(#p397eb1591d)">
     <use style="stroke:#000000;stroke-width:2;" x="494.902384" xlink:href="#C0_0_e3964c1cd2" y="140.507198"/>
    </g>
    <g clip-path="url(#p397eb1591d)">
     <use style="stroke:#000000;stroke-width:2;" x="515.125464" xlink:href="#C0_0_e3964c1cd2" y="123.010268"/>
    </g>
    <g clip-path="url(#p397eb1591d)">
     <use style="stroke:#000000;stroke-width:2;" x="540.404312" xlink:href="#C0_0_e3964c1cd2" y="115.636561"/>
    </g>
    <g clip-path="url(#p397eb1591d)">
     <use style="fill:#ffa500;stroke:#ffa500;stroke-width:2;" x="565.683161" xlink:href="#C0_0_e3964c1cd2" y="123.010268"/>
    </g>
    <g clip-path="url(#p397eb1591d)">
     <use style="stroke:#000000;stroke-width:2;" x="585.906241" xlink:href="#C0_0_e3964c1cd2" y="140.507198"/>
    </g>
    <g clip-path="url(#p397eb1591d)">
     <use style="stroke:#000000;stroke-width:2;" x="608.722022" xlink:href="#C0_0_e3964c1cd2" y="140.507198"/>
    </g>
    <g clip-path="url(#p397eb1591d)">
     <use style="fill:#ff0000;stroke:#ff0000;stroke-width:2;" x="631.537804" xlink:href="#C0_0_e3964c1cd2" y="140.507198"/>
    </g>
    <g clip-path="url(#p397eb1591d)">
     <use style="stroke:#000000;stroke-width:2;" x="654.353585" xlink:href="#C0_0_e3964c1cd2" y="140.507198"/>
    </g>
    <g clip-path="url(#p397eb1591d)">
     <use style="stroke:#000000;stroke-width:2;" x="675.095205" xlink:href="#C0_0_e3964c1cd2" y="126.259697"/>
    </g>
    <g clip-path="url(#p397eb1591d)">
     <use style="stroke:#000000;stroke-width:2;" x="700.374054" xlink:href="#C0_0_e3964c1cd2" y="129.009215"/>
    </g>
    <g clip-path="url(#p397eb1591d)">
     <use style="stroke:#000000;stroke-width:2;" x="717.356255" xlink:href="#C0_0_e3964c1cd2" y="147.256014"/>
    </g>
    <g clip-path="url(#p397eb1591d)">
     <use style="stroke:#000000;stroke-width:2;" x="717.356255" xlink:href="#C0_0_e3964c1cd2" y="171.751716"/>
    </g>
    <g clip-path="url(#p397eb1591d)">
     <use style="stroke:#000000;stroke-width:2;" x="700.374054" xlink:href="#C0_0_e3964c1cd2" y="189.998515"/>
    </g>
    <g clip-path="url(#p397eb1591d)">
     <use style="fill:#ffa500;stroke:#ffa500;stroke-width:2;" x="675.095205" xlink:href="#C0_0_e3964c1cd2" y="192.748033"/>
    </g>
    <g clip-path="url(#p397eb1591d)">
     <use style="stroke:#000000;stroke-width:2;" x="654.353585" xlink:href="#C0_0_e3964c1cd2" y="178.500532"/>
    </g>
    <g clip-path="url(#p397eb1591d)">
     <use style="stroke:#000000;stroke-width:2;" x="631.537804" xlink:href="#C0_0_e3964c1cd2" y="178.500532"/>
    </g>
    <g clip-path="url(#p397eb1591d)">
     <use style="stroke:#000000;stroke-width:2;" x="608.722022" xlink:href="#C0_0_e3964c1cd2" y="178.500532"/>
    </g>
    <g clip-path="url(#p397eb1591d)">
     <use style="fill:#ff0000;stroke:#ff0000;stroke-width:2;" x="585.906241" xlink:href="#C0_0_e3964c1cd2" y="178.500532"/>
    </g>
    <g clip-path="url(#p397eb1591d)">
     <use style="stroke:#000000;stroke-width:2;" x="565.683161" xlink:href="#C0_0_e3964c1cd2" y="195.997463"/>
    </g>
    <g clip-path="url(#p397eb1591d)">
     <use style="stroke:#000000;stroke-width:2;" x="540.404312" xlink:href="#C0_0_e3964c1cd2" y="203.371169"/>
    </g>
    <g clip-path="url(#p397eb1591d)">
     <use style="fill:#ffa500;stroke:#ffa500;stroke-width:2;" x="515.125464" xlink:href="#C0_0_e3964c1cd2" y="195.997463"/>
    </g>
    <g clip-path="url(#p397eb1591d)">
     <use style="stroke:#000000;stroke-width:2;" x="494.902384" xlink:href="#C0_0_e3964c1cd2" y="178.500532"/>
    </g>
    <g clip-path="url(#p397eb1591d)">
     <use style="fill:#ffa500;stroke:#ffa500;stroke-width:2;" x="472.086603" xlink:href="#C0_0_e3964c1cd2" y="178.500532"/>
    </g>
    <g clip-path="url(#p397eb1591d)">
     <use style="fill:#ffa500;stroke:#ffa500;stroke-width:2;" x="449.270821" xlink:href="#C0_0_e3964c1cd2" y="178.500532"/>
    </g>
    <g clip-path="url(#p397eb1591d)">
     <use style="stroke:#000000;stroke-width:2;" x="436.566579" xlink:href="#C0_0_e3964c1cd2" y="197.997112"/>
    </g>
    <g clip-path="url(#p397eb1591d)">
     <use style="stroke:#000000;stroke-width:2;" x="420.102919" xlink:href="#C0_0_e3964c1cd2" y="213.869327"/>
    </g>
    <g clip-path="url(#p397eb1591d)">
     <use style="fill:#ffa500;stroke:#ffa500;stroke-width:2;" x="399.879839" xlink:href="#C0_0_e3964c1cd2" y="226.117179"/>
    </g>
    <g clip-path="url(#p397eb1591d)">
     <use style="fill:#ff0000;stroke:#ff0000;stroke-width:2;" x="399.879839" xlink:href="#C0_0_e3964c1cd2" y="248.11332"/>
    </g>
    <g clip-path="url(#p397eb1591d)">
     <use style="fill:#ffa500;stroke:#ffa500;stroke-width:2;" x="399.879839" xlink:href="#C0_0_e3964c1cd2" y="270.109461"/>
    </g>
    <g clip-path="url(#p397eb1591d)">
     <use style="stroke:#000000;stroke-width:2;" x="399.879839" xlink:href="#C0_0_e3964c1cd2" y="292.105602"/>
    </g>
    <g clip-path="url(#p397eb1591d)">
     <use style="stroke:#000000;stroke-width:2;" x="399.879839" xlink:href="#C0_0_e3964c1cd2" y="314.101743"/>
    </g>
   </g>
  </g>
 </g>
 <defs>
  <clipPath id="p397eb1591d">
   <rect height="318.394141" width="711.994985" x="37.724679" y="78.418091"/>
  </clipPath>
 </defs>
</svg>
